<svg width="32" height="32" viewBox="0 0 32 32" fill="none" xmlns="http://www.w3.org/2000/svg">
<g id="gg:shopping-cart">
<g id="Group">
<path id="Vector" fill-rule="evenodd" clip-rule="evenodd" d="M7.72268 2.66675H1.33334V5.33341H5.62401L9.31734 22.2374H9.33334V22.6667H26.6667V22.3361L29.5907 9.45475L30.0413 8.00008H8.87334L8.11334 4.51875L7.72268 2.66675ZM26.6493 10.6667H9.45601L11.4947 20.0001H24.5307L26.6493 10.6667Z" fill="white"/>
<path id="Vector_2" d="M13.3334 29.3333C14.0406 29.3333 14.7189 29.0524 15.219 28.5523C15.7191 28.0522 16 27.3739 16 26.6667C16 25.9594 15.7191 25.2811 15.219 24.781C14.7189 24.281 14.0406 24 13.3334 24C12.6261 24 11.9478 24.281 11.4477 24.781C10.9476 25.2811 10.6667 25.9594 10.6667 26.6667C10.6667 27.3739 10.9476 28.0522 11.4477 28.5523C11.9478 29.0524 12.6261 29.3333 13.3334 29.3333ZM25.3334 26.6667C25.3334 27.3739 25.0524 28.0522 24.5523 28.5523C24.0522 29.0524 23.3739 29.3333 22.6667 29.3333C21.9594 29.3333 21.2812 29.0524 20.7811 28.5523C20.281 28.0522 20 27.3739 20 26.6667C20 25.9594 20.281 25.2811 20.7811 24.781C21.2812 24.281 21.9594 24 22.6667 24C23.3739 24 24.0522 24.281 24.5523 24.781C25.0524 25.2811 25.3334 25.9594 25.3334 26.6667Z" fill="white"/>
</g>
</g>
</svg>
