<svg width="400" height="76" viewBox="0 0 400 76" fill="none" xmlns="http://www.w3.org/2000/svg">
<g filter="url(#filter0_d_1477_1274)">
<path d="M7.51465 17.0513C7.51465 11.5284 11.9918 7.05127 17.5146 7.05127H380.546C386.069 7.05127 390.546 11.5284 390.546 17.0513V56.0708C390.546 61.5936 386.069 66.0708 380.546 66.0708H17.5147C11.9918 66.0708 7.51465 61.5936 7.51465 56.0708V17.0513Z" fill="white"/>
</g>
<path d="M365.515 40.561L370.515 36.561L365.515 32.561" stroke="#454545"/>
<g filter="url(#filter1_d_1477_1274)">
<rect x="19.1465" y="18.8044" width="57.8535" height="35.5132" rx="8" fill="white"/>
</g>
<path d="M93.2344 42.2485C90.125 42.2485 88.1562 39.9907 88.1562 36.4204C88.1562 32.8813 90.1484 30.6001 93.2344 30.6001C95.6875 30.6001 97.5547 32.0923 97.9141 34.3423H96.4922C96.1328 32.8657 94.8438 31.897 93.2344 31.897C91.0312 31.897 89.6016 33.6782 89.6016 36.4204C89.6016 39.186 91.0156 40.9517 93.2422 40.9517C94.8984 40.9517 96.0859 40.1548 96.4922 38.7798H97.9141C97.3984 41.0063 95.7266 42.2485 93.2344 42.2485ZM99.3672 42.061V33.936H100.648V35.2642H100.68C100.945 34.3657 101.695 33.7954 102.648 33.7954C102.883 33.7954 103.086 33.8345 103.195 33.8501V35.1704C103.086 35.1313 102.797 35.0923 102.469 35.0923C101.414 35.0923 100.727 35.8501 100.727 36.9985V42.061H99.3672ZM107.172 34.9751C105.898 34.9751 105.008 35.9517 104.922 37.3032H109.336C109.305 35.9438 108.453 34.9751 107.172 34.9751ZM109.305 39.7329H110.641C110.406 41.1548 109.031 42.2017 107.258 42.2017C104.93 42.2017 103.516 40.5845 103.516 38.0298C103.516 35.5063 104.953 33.7954 107.195 33.7954C109.391 33.7954 110.742 35.3892 110.742 37.8501V38.3657H104.914V38.4438C104.914 39.9985 105.828 41.022 107.289 41.022C108.32 41.022 109.078 40.4985 109.305 39.7329ZM114.797 41.0454C116.078 41.0454 117.062 40.147 117.062 38.9751V38.311L114.891 38.4438C113.797 38.5142 113.172 38.9985 113.172 39.7642C113.172 40.5376 113.82 41.0454 114.797 41.0454ZM114.492 42.2017C112.875 42.2017 111.789 41.2251 111.789 39.7642C111.789 38.3735 112.859 37.4985 114.734 37.3892L117.062 37.2563V36.5767C117.062 35.5845 116.406 34.9907 115.281 34.9907C114.234 34.9907 113.578 35.4829 113.406 36.2798H112.094C112.188 34.8735 113.391 33.7954 115.312 33.7954C117.219 33.7954 118.422 34.8267 118.422 36.4438V42.061H117.133V40.6626H117.102C116.617 41.5923 115.586 42.2017 114.492 42.2017ZM120.586 31.9751H121.945V33.936H123.523V35.0532H121.945V39.8813C121.945 40.6235 122.258 40.9595 122.953 40.9595C123.109 40.9595 123.422 40.936 123.516 40.9204V42.061C123.352 42.1001 122.977 42.1235 122.656 42.1235C121.164 42.1235 120.586 41.5142 120.586 39.9517V35.0532H119.375V33.936H120.586V31.9751ZM128 34.9751C126.727 34.9751 125.836 35.9517 125.75 37.3032H130.164C130.133 35.9438 129.281 34.9751 128 34.9751ZM130.133 39.7329H131.469C131.234 41.1548 129.859 42.2017 128.086 42.2017C125.758 42.2017 124.344 40.5845 124.344 38.0298C124.344 35.5063 125.781 33.7954 128.023 33.7954C130.219 33.7954 131.57 35.3892 131.57 37.8501V38.3657H125.742V38.4438C125.742 39.9985 126.656 41.022 128.117 41.022C129.148 41.022 129.906 40.4985 130.133 39.7329ZM141.078 42.2485C137.969 42.2485 136 39.9907 136 36.4204C136 32.8813 137.992 30.6001 141.078 30.6001C143.531 30.6001 145.398 32.0923 145.758 34.3423H144.336C143.977 32.8657 142.688 31.897 141.078 31.897C138.875 31.897 137.445 33.6782 137.445 36.4204C137.445 39.186 138.859 40.9517 141.086 40.9517C142.742 40.9517 143.93 40.1548 144.336 38.7798H145.758C145.242 41.0063 143.57 42.2485 141.078 42.2485ZM149.891 41.0454C151.172 41.0454 152.156 40.147 152.156 38.9751V38.311L149.984 38.4438C148.891 38.5142 148.266 38.9985 148.266 39.7642C148.266 40.5376 148.914 41.0454 149.891 41.0454ZM149.586 42.2017C147.969 42.2017 146.883 41.2251 146.883 39.7642C146.883 38.3735 147.953 37.4985 149.828 37.3892L152.156 37.2563V36.5767C152.156 35.5845 151.5 34.9907 150.375 34.9907C149.328 34.9907 148.672 35.4829 148.5 36.2798H147.188C147.281 34.8735 148.484 33.7954 150.406 33.7954C152.312 33.7954 153.516 34.8267 153.516 36.4438V42.061H152.227V40.6626H152.195C151.711 41.5923 150.68 42.2017 149.586 42.2017ZM155.68 31.9751H157.039V33.936H158.617V35.0532H157.039V39.8813C157.039 40.6235 157.352 40.9595 158.047 40.9595C158.203 40.9595 158.516 40.936 158.609 40.9204V42.061C158.445 42.1001 158.07 42.1235 157.75 42.1235C156.258 42.1235 155.68 41.5142 155.68 39.9517V35.0532H154.469V33.936H155.68V31.9751ZM162.594 41.0454C163.875 41.0454 164.859 40.147 164.859 38.9751V38.311L162.688 38.4438C161.594 38.5142 160.969 38.9985 160.969 39.7642C160.969 40.5376 161.617 41.0454 162.594 41.0454ZM162.289 42.2017C160.672 42.2017 159.586 41.2251 159.586 39.7642C159.586 38.3735 160.656 37.4985 162.531 37.3892L164.859 37.2563V36.5767C164.859 35.5845 164.203 34.9907 163.078 34.9907C162.031 34.9907 161.375 35.4829 161.203 36.2798H159.891C159.984 34.8735 161.188 33.7954 163.109 33.7954C165.016 33.7954 166.219 34.8267 166.219 36.4438V42.061H164.93V40.6626H164.898C164.414 41.5923 163.383 42.2017 162.289 42.2017ZM168.016 42.061V30.7876H169.375V42.061H168.016ZM174.578 42.2017C172.328 42.2017 170.812 40.5845 170.812 37.9985C170.812 35.4048 172.328 33.7954 174.578 33.7954C176.82 33.7954 178.336 35.4048 178.336 37.9985C178.336 40.5845 176.82 42.2017 174.578 42.2017ZM174.578 41.0063C176.016 41.0063 176.953 39.9126 176.953 37.9985C176.953 36.0845 176.016 34.9907 174.578 34.9907C173.141 34.9907 172.195 36.0845 172.195 37.9985C172.195 39.9126 173.141 41.0063 174.578 41.0063ZM183.016 40.9282C184.43 40.9282 185.375 39.7563 185.375 37.9673C185.375 36.1782 184.43 34.9907 183.016 34.9907C181.617 34.9907 180.703 36.147 180.703 37.9673C180.703 39.7876 181.617 40.9282 183.016 40.9282ZM183.062 45.1235C181.273 45.1235 179.859 44.1157 179.633 42.7329H181.031C181.297 43.4751 182.102 43.9673 183.117 43.9673C184.523 43.9673 185.375 43.1548 185.375 41.9438V40.6626H185.344C184.844 41.5454 183.883 42.1235 182.742 42.1235C180.672 42.1235 179.312 40.4907 179.312 37.9673C179.312 35.4204 180.672 33.7954 182.773 33.7954C183.922 33.7954 184.875 34.3579 185.414 35.3032H185.438V33.936H186.734V41.897C186.734 43.8345 185.305 45.1235 183.062 45.1235Z" fill="#2196F3"/>
<path d="M48.542 38.2485V41.8267H47.2764V38.2485H43.9404V36.9829H47.2764V33.4907H48.542V36.9829H51.8779V38.2485H48.542Z" fill="#2196F3"/>
<defs>
<filter id="filter0_d_1477_1274" x="0.514648" y="0.0512695" width="399.031" height="75.0195" filterUnits="userSpaceOnUse" color-interpolation-filters="sRGB">
<feFlood flood-opacity="0" result="BackgroundImageFix"/>
<feColorMatrix in="SourceAlpha" type="matrix" values="0 0 0 0 0 0 0 0 0 0 0 0 0 0 0 0 0 0 127 0" result="hardAlpha"/>
<feOffset dx="1" dy="1"/>
<feGaussianBlur stdDeviation="4"/>
<feComposite in2="hardAlpha" operator="out"/>
<feColorMatrix type="matrix" values="0 0 0 0 0 0 0 0 0 0 0 0 0 0 0 0 0 0 0.25 0"/>
<feBlend mode="normal" in2="BackgroundImageFix" result="effect1_dropShadow_1477_1274"/>
<feBlend mode="normal" in="SourceGraphic" in2="effect1_dropShadow_1477_1274" result="shape"/>
</filter>
<filter id="filter1_d_1477_1274" x="12.1465" y="11.8044" width="73.8535" height="51.5132" filterUnits="userSpaceOnUse" color-interpolation-filters="sRGB">
<feFlood flood-opacity="0" result="BackgroundImageFix"/>
<feColorMatrix in="SourceAlpha" type="matrix" values="0 0 0 0 0 0 0 0 0 0 0 0 0 0 0 0 0 0 127 0" result="hardAlpha"/>
<feOffset dx="1" dy="1"/>
<feGaussianBlur stdDeviation="4"/>
<feComposite in2="hardAlpha" operator="out"/>
<feColorMatrix type="matrix" values="0 0 0 0 0 0 0 0 0 0 0 0 0 0 0 0 0 0 0.25 0"/>
<feBlend mode="normal" in2="BackgroundImageFix" result="effect1_dropShadow_1477_1274"/>
<feBlend mode="normal" in="SourceGraphic" in2="effect1_dropShadow_1477_1274" result="shape"/>
</filter>
</defs>
</svg>
