<svg width="400" height="90" viewBox="0 0 400 90" fill="none" xmlns="http://www.w3.org/2000/svg">
<g filter="url(#filter0_d_1460_8355)">
<path d="M7 17C7 11.4772 11.4772 7 17 7H380.031C385.554 7 390.031 11.4772 390.031 17V70.0632C390.031 75.5861 385.554 80.0632 380.031 80.0632H17C11.4772 80.0632 7 75.5861 7 70.0632V17Z" fill="white"/>
</g>
<g filter="url(#filter1_d_1460_8355)">
<circle cx="48.5416" cy="44.8463" r="26.4283" stroke="#2196F3" shape-rendering="crispEdges"/>
</g>
<path d="M90.4326 46.7368H86.8857L86.1514 49.3462H85.1045L88.3857 38.1431H88.917L92.2139 49.3462H91.1748L90.4326 46.7368ZM87.1592 45.7759H90.167L88.6904 40.6118L88.6592 40.1978L88.6279 40.6118L87.1592 45.7759ZM98.3545 49.3462L97.8232 48.5337C97.6045 48.8306 97.3311 49.0675 97.0029 49.2446C96.6748 49.4165 96.3154 49.5024 95.9248 49.5024H95.6826C95.3597 49.5024 95.055 49.4425 94.7686 49.3228C94.4821 49.1978 94.2321 49.0285 94.0186 48.8149C93.805 48.6014 93.6357 48.3514 93.5107 48.0649C93.391 47.7785 93.3311 47.4738 93.3311 47.1509V43.5415C93.3311 43.2186 93.391 42.9139 93.5107 42.6274C93.6357 42.341 93.805 42.091 94.0186 41.8774C94.2321 41.6639 94.4821 41.4972 94.7686 41.3774C95.055 41.2524 95.3597 41.1899 95.6826 41.1899H95.9248C96.2842 41.1899 96.6175 41.2629 96.9248 41.4087C97.2321 41.5545 97.4951 41.7576 97.7139 42.0181V38.1431H98.6748V49.3462H98.3545ZM97.7139 43.4868C97.7139 43.2941 97.6774 43.1144 97.6045 42.9478C97.5316 42.7759 97.4326 42.6274 97.3076 42.5024C97.1826 42.3774 97.0342 42.2785 96.8623 42.2056C96.6956 42.1326 96.516 42.0962 96.3232 42.0962H95.6826C95.4899 42.0962 95.3076 42.1326 95.1357 42.2056C94.9691 42.2785 94.8232 42.3774 94.6982 42.5024C94.5732 42.6274 94.4743 42.7759 94.4014 42.9478C94.3285 43.1144 94.292 43.2941 94.292 43.4868V47.2056C94.292 47.3983 94.3285 47.5806 94.4014 47.7524C94.4743 47.9191 94.5732 48.0649 94.6982 48.1899C94.8232 48.3149 94.9691 48.4139 95.1357 48.4868C95.3076 48.5597 95.4899 48.5962 95.6826 48.5962H96.3232C96.516 48.5962 96.6956 48.5597 96.8623 48.4868C97.0342 48.4139 97.1826 48.3149 97.3076 48.1899C97.4326 48.0649 97.5316 47.9191 97.6045 47.7524C97.6774 47.5806 97.7139 47.3983 97.7139 47.2056V43.4868ZM105.62 49.3462L105.089 48.5337C104.87 48.8306 104.597 49.0675 104.269 49.2446C103.94 49.4165 103.581 49.5024 103.19 49.5024H102.948C102.625 49.5024 102.321 49.4425 102.034 49.3228C101.748 49.1978 101.498 49.0285 101.284 48.8149C101.071 48.6014 100.901 48.3514 100.776 48.0649C100.657 47.7785 100.597 47.4738 100.597 47.1509V43.5415C100.597 43.2186 100.657 42.9139 100.776 42.6274C100.901 42.341 101.071 42.091 101.284 41.8774C101.498 41.6639 101.748 41.4972 102.034 41.3774C102.321 41.2524 102.625 41.1899 102.948 41.1899H103.19C103.55 41.1899 103.883 41.2629 104.19 41.4087C104.498 41.5545 104.761 41.7576 104.979 42.0181V38.1431H105.94V49.3462H105.62ZM104.979 43.4868C104.979 43.2941 104.943 43.1144 104.87 42.9478C104.797 42.7759 104.698 42.6274 104.573 42.5024C104.448 42.3774 104.3 42.2785 104.128 42.2056C103.961 42.1326 103.782 42.0962 103.589 42.0962H102.948C102.756 42.0962 102.573 42.1326 102.401 42.2056C102.235 42.2785 102.089 42.3774 101.964 42.5024C101.839 42.6274 101.74 42.7759 101.667 42.9478C101.594 43.1144 101.558 43.2941 101.558 43.4868V47.2056C101.558 47.3983 101.594 47.5806 101.667 47.7524C101.74 47.9191 101.839 48.0649 101.964 48.1899C102.089 48.3149 102.235 48.4139 102.401 48.4868C102.573 48.5597 102.756 48.5962 102.948 48.5962H103.589C103.782 48.5962 103.961 48.5597 104.128 48.4868C104.3 48.4139 104.448 48.3149 104.573 48.1899C104.698 48.0649 104.797 47.9191 104.87 47.7524C104.943 47.5806 104.979 47.3983 104.979 47.2056V43.4868ZM118.175 46.5962C118.175 46.9764 118.102 47.3332 117.956 47.6665C117.815 47.9998 117.62 48.2915 117.37 48.5415C117.12 48.7915 116.826 48.9894 116.487 49.1353C116.154 49.2759 115.797 49.3462 115.417 49.3462H111.87V38.1431H115.417C115.797 38.1431 116.154 38.216 116.487 38.3618C116.826 38.5024 117.12 38.6978 117.37 38.9478C117.62 39.1978 117.815 39.492 117.956 39.8306C118.102 40.1639 118.175 40.5207 118.175 40.9009V46.5962ZM117.167 40.9009C117.167 40.6509 117.12 40.4191 117.026 40.2056C116.933 39.9868 116.802 39.7967 116.636 39.6353C116.474 39.4686 116.284 39.3384 116.065 39.2446C115.852 39.1509 115.62 39.104 115.37 39.104H112.878V48.3853H115.37C115.62 48.3853 115.852 48.3384 116.065 48.2446C116.284 48.1509 116.474 48.0233 116.636 47.8618C116.802 47.7004 116.933 47.5129 117.026 47.2993C117.12 47.0806 117.167 46.8462 117.167 46.5962V40.9009ZM122.604 42.2603C122.412 42.2603 122.229 42.2967 122.058 42.3696C121.891 42.4425 121.745 42.5415 121.62 42.6665C121.495 42.7915 121.396 42.9399 121.323 43.1118C121.25 43.2785 121.214 43.4582 121.214 43.6509V49.3462H120.253V41.3462H120.573L121.097 42.1587C121.315 41.8618 121.589 41.6274 121.917 41.4556C122.25 41.2785 122.612 41.1899 123.003 41.1899H123.565V42.2603H122.604ZM125.089 39.4243V38.1431H126.206V39.4243H125.089ZM125.167 49.3462V41.3462H126.128V49.3462H125.167ZM130.886 49.3462H130.409L127.573 41.3462H128.534L130.62 47.4087L130.651 47.8228L130.683 47.4087L132.761 41.3462H133.722L130.886 49.3462ZM140.19 47.1509C140.19 47.4738 140.128 47.7785 140.003 48.0649C139.883 48.3514 139.716 48.6014 139.503 48.8149C139.289 49.0285 139.039 49.1978 138.753 49.3228C138.466 49.4425 138.162 49.5024 137.839 49.5024H137.198C136.875 49.5024 136.571 49.4425 136.284 49.3228C135.998 49.1978 135.748 49.0285 135.534 48.8149C135.321 48.6014 135.151 48.3514 135.026 48.0649C134.907 47.7785 134.847 47.4738 134.847 47.1509V43.5415C134.847 43.2186 134.907 42.9139 135.026 42.6274C135.151 42.341 135.321 42.091 135.534 41.8774C135.748 41.6639 135.998 41.4972 136.284 41.3774C136.571 41.2524 136.875 41.1899 137.198 41.1899H137.839C138.162 41.1899 138.466 41.2524 138.753 41.3774C139.039 41.4972 139.289 41.6639 139.503 41.8774C139.716 42.091 139.883 42.341 140.003 42.6274C140.128 42.9139 140.19 43.2186 140.19 43.5415V45.4243H135.808V47.2056C135.808 47.3983 135.844 47.5806 135.917 47.7524C135.99 47.9191 136.089 48.0649 136.214 48.1899C136.339 48.3149 136.485 48.4139 136.651 48.4868C136.823 48.5597 137.006 48.5962 137.198 48.5962H137.839C138.032 48.5962 138.211 48.5597 138.378 48.4868C138.55 48.4139 138.698 48.3149 138.823 48.1899C138.948 48.0649 139.047 47.9191 139.12 47.7524C139.193 47.5806 139.229 47.3983 139.229 47.2056V46.6743L140.19 46.8306V47.1509ZM139.229 43.4868C139.229 43.2941 139.193 43.1144 139.12 42.9478C139.047 42.7759 138.948 42.6274 138.823 42.5024C138.698 42.3774 138.55 42.2785 138.378 42.2056C138.211 42.1326 138.032 42.0962 137.839 42.0962H137.198C137.006 42.0962 136.823 42.1326 136.651 42.2056C136.485 42.2785 136.339 42.3774 136.214 42.5024C136.089 42.6274 135.99 42.7759 135.917 42.9478C135.844 43.1144 135.808 43.2941 135.808 43.4868V44.6743H139.229V43.4868ZM144.464 42.2603C144.271 42.2603 144.089 42.2967 143.917 42.3696C143.75 42.4425 143.604 42.5415 143.479 42.6665C143.354 42.7915 143.256 42.9399 143.183 43.1118C143.11 43.2785 143.073 43.4582 143.073 43.6509V49.3462H142.112V41.3462H142.433L142.956 42.1587C143.175 41.8618 143.448 41.6274 143.776 41.4556C144.11 41.2785 144.472 41.1899 144.862 41.1899H145.425V42.2603H144.464Z" fill="#454545"/>
<path d="M41.543 43.6179H46.9873V38.1614H48.562V43.6179H54.043V45.1926H48.562V50.6614H46.9873V45.1926H41.543V43.6179Z" fill="#2196F3"/>
<defs>
<filter id="filter0_d_1460_8355" x="0" y="0" width="399.031" height="89.0632" filterUnits="userSpaceOnUse" color-interpolation-filters="sRGB">
<feFlood flood-opacity="0" result="BackgroundImageFix"/>
<feColorMatrix in="SourceAlpha" type="matrix" values="0 0 0 0 0 0 0 0 0 0 0 0 0 0 0 0 0 0 127 0" result="hardAlpha"/>
<feOffset dx="1" dy="1"/>
<feGaussianBlur stdDeviation="4"/>
<feComposite in2="hardAlpha" operator="out"/>
<feColorMatrix type="matrix" values="0 0 0 0 0 0 0 0 0 0 0 0 0 0 0 0 0 0 0.25 0"/>
<feBlend mode="normal" in2="BackgroundImageFix" result="effect1_dropShadow_1460_8355"/>
<feBlend mode="normal" in="SourceGraphic" in2="effect1_dropShadow_1460_8355" result="shape"/>
</filter>
<filter id="filter1_d_1460_8355" x="14.6133" y="10.918" width="69.8564" height="69.8567" filterUnits="userSpaceOnUse" color-interpolation-filters="sRGB">
<feFlood flood-opacity="0" result="BackgroundImageFix"/>
<feColorMatrix in="SourceAlpha" type="matrix" values="0 0 0 0 0 0 0 0 0 0 0 0 0 0 0 0 0 0 127 0" result="hardAlpha"/>
<feOffset dx="1" dy="1"/>
<feGaussianBlur stdDeviation="4"/>
<feComposite in2="hardAlpha" operator="out"/>
<feColorMatrix type="matrix" values="0 0 0 0 0 0 0 0 0 0 0 0 0 0 0 0 0 0 0.25 0"/>
<feBlend mode="normal" in2="BackgroundImageFix" result="effect1_dropShadow_1460_8355"/>
<feBlend mode="normal" in="SourceGraphic" in2="effect1_dropShadow_1460_8355" result="shape"/>
</filter>
</defs>
</svg>
