<svg width="39" height="38" viewBox="0 0 20 20" fill="none" xmlns="http://www.w3.org/2000/svg">
<path d="M6.87458 17.5021C7.56544 17.5021 8.1255 16.9421 8.1255 16.2512C8.1255 15.5604 7.56544 15.0003 6.87458 15.0003C6.18371 15.0003 5.62366 15.5604 5.62366 16.2512C5.62366 16.9421 6.18371 17.5021 6.87458 17.5021Z" fill="#2196F3"/>
<path d="M15.6267 17.5021C16.3176 17.5021 16.8776 16.9421 16.8776 16.2512C16.8776 15.5604 16.3176 15.0003 15.6267 15.0003C14.9358 15.0003 14.3758 15.5604 14.3758 16.2512C14.3758 16.9421 14.9358 17.5021 15.6267 17.5021Z" fill="#2196F3"/>
<path d="M17.8435 4.71882C17.7557 4.61142 17.6451 4.52492 17.5197 4.46559C17.3943 4.40627 17.2572 4.37562 17.1185 4.37585H5.22983L4.99038 3.01726C4.96485 2.87255 4.88914 2.74145 4.77655 2.64701C4.66397 2.55257 4.52171 2.50082 4.37476 2.50085H1.87476C1.709 2.50085 1.55002 2.5667 1.43281 2.68391C1.3156 2.80112 1.24976 2.96009 1.24976 3.12585C1.24976 3.29162 1.3156 3.45059 1.43281 3.5678C1.55002 3.68501 1.709 3.75085 1.87476 3.75085H3.85054L5.63413 13.8595C5.65966 14.0042 5.73537 14.1353 5.84796 14.2297C5.96054 14.3241 6.1028 14.3759 6.24976 14.3759H16.2498C16.4155 14.3759 16.5745 14.31 16.6917 14.1928C16.8089 14.0756 16.8748 13.9166 16.8748 13.7509C16.8748 13.5851 16.8089 13.4261 16.6917 13.3089C16.5745 13.1917 16.4155 13.1259 16.2498 13.1259H6.77397L6.55366 11.8759H15.9935C16.2103 11.8756 16.4202 11.8004 16.588 11.6631C16.7557 11.5258 16.8708 11.3348 16.9138 11.1223L18.0388 5.49734C18.0659 5.36121 18.0625 5.22076 18.0287 5.08612C17.9949 4.95149 17.9317 4.82604 17.8435 4.71882Z" fill="#2196F3"/>
</svg>
