<svg width="37" height="37" viewBox="0 0 37 37" fill="none" xmlns="http://www.w3.org/2000/svg">
<path d="M24.9404 27.3632C25.7361 27.3632 26.4991 27.6792 27.0617 28.2418C27.6244 28.8044 27.9404 29.5675 27.9404 30.3632C27.9404 31.1588 27.6244 31.9219 27.0617 32.4845C26.4991 33.0471 25.7361 33.3632 24.9404 33.3632C24.1448 33.3632 23.3817 33.0471 22.8191 32.4845C22.2565 31.9219 21.9404 31.1588 21.9404 30.3632C21.9404 29.5675 22.2565 28.8044 22.8191 28.2418C23.3817 27.6792 24.1448 27.3632 24.9404 27.3632ZM24.9404 28.8632C24.5426 28.8632 24.1611 29.0212 23.8798 29.3025C23.5985 29.5838 23.4404 29.9653 23.4404 30.3632C23.4404 30.761 23.5985 31.1425 23.8798 31.4238C24.1611 31.7051 24.5426 31.8632 24.9404 31.8632C25.3383 31.8632 25.7198 31.7051 26.0011 31.4238C26.2824 31.1425 26.4404 30.761 26.4404 30.3632C26.4404 29.9653 26.2824 29.5838 26.0011 29.3025C25.7198 29.0212 25.3383 28.8632 24.9404 28.8632ZM11.4404 27.3632C12.2361 27.3632 12.9991 27.6792 13.5617 28.2418C14.1244 28.8044 14.4404 29.5675 14.4404 30.3632C14.4404 31.1588 14.1244 31.9219 13.5617 32.4845C12.9991 33.0471 12.2361 33.3632 11.4404 33.3632C10.6448 33.3632 9.88172 33.0471 9.31911 32.4845C8.7565 31.9219 8.44043 31.1588 8.44043 30.3632C8.44043 29.5675 8.7565 28.8044 9.31911 28.2418C9.88172 27.6792 10.6448 27.3632 11.4404 27.3632ZM11.4404 28.8632C11.0426 28.8632 10.6611 29.0212 10.3798 29.3025C10.0985 29.5838 9.94043 29.9653 9.94043 30.3632C9.94043 30.761 10.0985 31.1425 10.3798 31.4238C10.6611 31.7051 11.0426 31.8632 11.4404 31.8632C11.8383 31.8632 12.2198 31.7051 12.5011 31.4238C12.7824 31.1425 12.9404 30.761 12.9404 30.3632C12.9404 29.9653 12.7824 29.5838 12.5011 29.3025C12.2198 29.0212 11.8383 28.8632 11.4404 28.8632ZM27.9404 9.36316H7.34543L11.1704 18.3632H23.4404C23.9354 18.3632 24.3704 18.1232 24.6404 17.7632L29.1404 11.7632C29.3354 11.5082 29.4404 11.1932 29.4404 10.8632C29.4404 10.4653 29.2824 10.0838 29.0011 9.8025C28.7198 9.52119 28.3383 9.36316 27.9404 9.36316ZM23.4404 19.8632H11.2454L10.0904 22.2032L9.94043 22.8632C9.94043 23.261 10.0985 23.6425 10.3798 23.9238C10.6611 24.2051 11.0426 24.3632 11.4404 24.3632H27.9404V25.8632H11.4404C10.6448 25.8632 9.88172 25.5471 9.31911 24.9845C8.7565 24.4219 8.44043 23.6588 8.44043 22.8632C8.43998 22.3542 8.56903 21.8535 8.81543 21.4082L9.89543 19.2032L4.45043 6.36316H2.44043V4.86316H5.44043L6.71543 7.86316H27.9404C28.7361 7.86316 29.4991 8.17923 30.0617 8.74184C30.6244 9.30445 30.9404 10.0675 30.9404 10.8632C30.9404 11.6132 30.6854 12.2432 30.2654 12.7532L25.9004 18.5882C25.3604 19.3532 24.4604 19.8632 23.4404 19.8632Z" />
</svg>
