<svg width="28" height="33" viewBox="0 0 28 33" fill="none" xmlns="http://www.w3.org/2000/svg">
<path d="M11.5747 7.53564H20.5747V9.78564H11.5747V7.53564ZM11.5747 15.4106H20.5747V17.6606H11.5747V15.4106ZM11.5747 23.2856H20.5747V25.5356H11.5747V23.2856Z" fill="#454545"/>
<path d="M25.3247 0.785645H5.07471C4.47797 0.785645 3.90567 1.0227 3.48372 1.44465C3.06176 1.86661 2.82471 2.43891 2.82471 3.03564V7.53564H0.574707V9.78564H2.82471V15.4106H0.574707V17.6606H2.82471V23.2856H0.574707V25.5356H2.82471V30.0356C2.82471 30.6324 3.06176 31.2047 3.48372 31.6266C3.90567 32.0486 4.47797 32.2856 5.07471 32.2856H25.3247C25.9214 32.2856 26.4937 32.0486 26.9157 31.6266C27.3377 31.2047 27.5747 30.6324 27.5747 30.0356V3.03564C27.5747 2.43891 27.3377 1.86661 26.9157 1.44465C26.4937 1.0227 25.9214 0.785645 25.3247 0.785645ZM25.3247 30.0356H5.07471V25.5356H7.32471V23.2856H5.07471V17.6606H7.32471V15.4106H5.07471V9.78564H7.32471V7.53564H5.07471V3.03564H25.3247V30.0356Z" fill="#454545"/>
</svg>
