<svg width="138" height="17" viewBox="0 0 138 17" fill="none" xmlns="http://www.w3.org/2000/svg">
<path d="M8.5 9.75C8.00555 9.75 7.5222 9.60338 7.11108 9.32868C6.69995 9.05397 6.37952 8.66353 6.1903 8.20671C6.00108 7.74989 5.95157 7.24723 6.04804 6.76228C6.1445 6.27732 6.3826 5.83187 6.73223 5.48223C7.08187 5.1326 7.52732 4.8945 8.01228 4.79804C8.49723 4.70157 8.9999 4.75108 9.45671 4.9403C9.91353 5.12952 10.304 5.44995 10.5787 5.86108C10.8534 6.2722 11 6.75555 11 7.25C10.9992 7.9128 10.7356 8.54822 10.2669 9.01689C9.79822 9.48556 9.1628 9.74921 8.5 9.75ZM8.5 5.75C8.20333 5.75 7.91332 5.83797 7.66665 6.0028C7.41997 6.16762 7.22771 6.40189 7.11418 6.67598C7.00065 6.95007 6.97095 7.25167 7.02882 7.54264C7.0867 7.83361 7.22956 8.10088 7.43934 8.31066C7.64912 8.52044 7.91639 8.6633 8.20737 8.72118C8.49834 8.77906 8.79994 8.74935 9.07403 8.63582C9.34812 8.52229 9.58238 8.33003 9.74721 8.08336C9.91203 7.83668 10 7.54667 10 7.25C9.9996 6.8523 9.84144 6.471 9.56022 6.18978C9.279 5.90856 8.8977 5.7504 8.5 5.75Z" fill="#2196F3"/>
<path d="M8.50001 15.75L4.28201 10.7755C4.2234 10.7008 4.16539 10.6256 4.10801 10.55C3.3875 9.60089 2.99826 8.44161 3.00001 7.25C3.00001 5.79131 3.57947 4.39236 4.61092 3.36091C5.64237 2.32946 7.04132 1.75 8.50001 1.75C9.9587 1.75 11.3576 2.32946 12.3891 3.36091C13.4205 4.39236 14 5.79131 14 7.25C14.0018 8.44107 13.6127 9.59982 12.8925 10.5485L12.892 10.55C12.892 10.55 12.742 10.747 12.7195 10.7735L8.50001 15.75ZM4.90651 9.9475C4.90651 9.9475 5.02301 10.1015 5.04951 10.1345L8.50001 14.204L11.955 10.129C11.977 10.1015 12.094 9.9465 12.0945 9.946C12.6831 9.17056 13.0012 8.22352 13 7.25C13 6.05653 12.5259 4.91193 11.682 4.06802C10.8381 3.22411 9.69348 2.75 8.50001 2.75C7.30653 2.75 6.16194 3.22411 5.31803 4.06802C4.47411 4.91193 4.00001 6.05653 4.00001 7.25C3.99896 8.22412 4.31739 9.17171 4.90651 9.9475Z" fill="#2196F3"/>
<path d="M20.375 4.29492V9.71484C20.375 10.9922 21.2129 11.918 22.6777 11.918C24.1426 11.918 24.9805 10.9922 24.9805 9.71484V4.29492H26.0352V9.78516C26.0352 11.5898 24.7754 12.8906 22.6777 12.8906C20.5801 12.8906 19.3203 11.5898 19.3203 9.78516V4.29492H20.375ZM27.4121 8.33789C27.4121 7.29492 28.3438 6.55078 29.6855 6.55078C30.9453 6.55078 31.8711 7.30078 31.918 8.33203H30.9453C30.875 7.74609 30.4004 7.38281 29.6504 7.38281C28.9062 7.38281 28.4141 7.75195 28.4141 8.28516C28.4141 8.70703 28.7363 8.98828 29.4277 9.16406L30.3711 9.39258C31.6016 9.70312 32.0469 10.1484 32.0469 11.0449C32.0469 12.1055 31.0449 12.8555 29.6211 12.8555C28.2852 12.8555 27.3535 12.1289 27.248 11.0508H28.2676C28.3789 11.6836 28.8594 12.0234 29.6855 12.0234C30.5117 12.0234 31.0215 11.6719 31.0215 11.1211C31.0215 10.6875 30.7695 10.4531 30.084 10.2715L29.0117 9.99609C27.9395 9.7207 27.4121 9.16992 27.4121 8.33789ZM35.5508 7.43555C34.5957 7.43555 33.9277 8.16797 33.8633 9.18164H37.1738C37.1504 8.16211 36.5117 7.43555 35.5508 7.43555ZM37.1504 11.0039H38.1523C37.9766 12.0703 36.9453 12.8555 35.6152 12.8555C33.8691 12.8555 32.8086 11.6426 32.8086 9.72656C32.8086 7.83398 33.8867 6.55078 35.5684 6.55078C37.2148 6.55078 38.2285 7.74609 38.2285 9.5918V9.97852H33.8574V10.0371C33.8574 11.2031 34.543 11.9707 35.6387 11.9707C36.4121 11.9707 36.9805 11.5781 37.1504 11.0039ZM41.7207 12.75V6.65625H42.6816V7.62891H42.7051C42.9922 6.98438 43.6133 6.55078 44.4336 6.55078C45.2656 6.55078 45.8809 6.97266 46.1445 7.71094H46.168C46.5078 6.98438 47.2227 6.55078 48.0781 6.55078C49.2852 6.55078 50.0645 7.33594 50.0645 8.54297V12.75H49.0449V8.77734C49.0449 7.94531 48.582 7.45312 47.7793 7.45312C46.9707 7.45312 46.4023 8.05078 46.4023 8.87695V12.75H45.3828V8.66602C45.3828 7.93359 44.8906 7.45312 44.1348 7.45312C43.3262 7.45312 42.7402 8.08594 42.7402 8.92969V12.75H41.7207ZM51.8691 15.0293C51.7461 15.0293 51.541 15.0176 51.4297 14.9941V14.1387C51.541 14.1621 51.6992 14.168 51.8281 14.168C52.3965 14.168 52.7129 13.8926 52.9473 13.1836L53.0879 12.7559L50.8379 6.65625H51.9277L53.6152 11.7305H53.6328L55.3203 6.65625H56.3926L53.9961 13.1777C53.4746 14.6016 52.9707 15.0293 51.8691 15.0293ZM64.7246 8.6543H63.7285C63.582 7.99219 63.0664 7.44727 62.1699 7.44727C61.1152 7.44727 60.4004 8.32031 60.4004 9.70312C60.4004 11.1211 61.127 11.959 62.1816 11.959C63.0137 11.959 63.5586 11.5195 63.7344 10.7871H64.7363C64.5781 12 63.5586 12.8555 62.1758 12.8555C60.4883 12.8555 59.3633 11.666 59.3633 9.70312C59.3633 7.78125 60.4824 6.55078 62.1641 6.55078C63.6875 6.55078 64.5957 7.55859 64.7246 8.6543ZM70.6777 6.65625V12.75H69.7109V11.7598H69.6875C69.3242 12.4629 68.6914 12.8555 67.7539 12.8555C66.4238 12.8555 65.6445 11.9941 65.6445 10.6113V6.65625H66.6641V10.4297C66.6641 11.4199 67.127 11.9531 68.0703 11.9531C69.0605 11.9531 69.6582 11.2734 69.6582 10.2363V6.65625H70.6777ZM72.002 12.75V6.65625H72.9629V7.65234H72.9863C73.1855 6.97852 73.748 6.55078 74.4629 6.55078C74.6387 6.55078 74.791 6.58008 74.873 6.5918V7.58203C74.791 7.55273 74.5742 7.52344 74.3281 7.52344C73.5371 7.52344 73.0215 8.0918 73.0215 8.95312V12.75H72.002ZM75.7051 12.75V6.65625H76.666V7.65234H76.6895C76.8887 6.97852 77.4512 6.55078 78.166 6.55078C78.3418 6.55078 78.4941 6.58008 78.5762 6.5918V7.58203C78.4941 7.55273 78.2773 7.52344 78.0312 7.52344C77.2402 7.52344 76.7246 8.0918 76.7246 8.95312V12.75H75.7051ZM81.5586 7.43555C80.6035 7.43555 79.9355 8.16797 79.8711 9.18164H83.1816C83.1582 8.16211 82.5195 7.43555 81.5586 7.43555ZM83.1582 11.0039H84.1602C83.9844 12.0703 82.9531 12.8555 81.623 12.8555C79.877 12.8555 78.8164 11.6426 78.8164 9.72656C78.8164 7.83398 79.8945 6.55078 81.5762 6.55078C83.2227 6.55078 84.2363 7.74609 84.2363 9.5918V9.97852H79.8652V10.0371C79.8652 11.2031 80.5508 11.9707 81.6465 11.9707C82.4199 11.9707 82.9883 11.5781 83.1582 11.0039ZM85.2676 12.75V6.65625H86.2285V7.62891H86.252C86.5918 6.97266 87.2422 6.55078 88.1855 6.55078C89.5215 6.55078 90.2949 7.41211 90.2949 8.79492V12.75H89.2754V8.97656C89.2754 7.99219 88.8125 7.45312 87.875 7.45312C86.9141 7.45312 86.2871 8.13281 86.2871 9.16406V12.75H85.2676ZM91.9238 5.18555H92.9434V6.65625H94.127V7.49414H92.9434V11.1152C92.9434 11.6719 93.1777 11.9238 93.6992 11.9238C93.8164 11.9238 94.0508 11.9062 94.1211 11.8945V12.75C93.998 12.7793 93.7168 12.7969 93.4766 12.7969C92.3574 12.7969 91.9238 12.3398 91.9238 11.168V7.49414H91.0156V6.65625H91.9238V5.18555ZM97.7305 12.75V4.29492H98.75V12.75H97.7305ZM102.652 12.8555C100.965 12.8555 99.8281 11.6426 99.8281 9.70312C99.8281 7.75781 100.965 6.55078 102.652 6.55078C104.334 6.55078 105.471 7.75781 105.471 9.70312C105.471 11.6426 104.334 12.8555 102.652 12.8555ZM102.652 11.959C103.73 11.959 104.434 11.1387 104.434 9.70312C104.434 8.26758 103.73 7.44727 102.652 7.44727C101.574 7.44727 100.865 8.26758 100.865 9.70312C100.865 11.1387 101.574 11.959 102.652 11.959ZM111.564 8.6543H110.568C110.422 7.99219 109.906 7.44727 109.01 7.44727C107.955 7.44727 107.24 8.32031 107.24 9.70312C107.24 11.1211 107.967 11.959 109.021 11.959C109.854 11.959 110.398 11.5195 110.574 10.7871H111.576C111.418 12 110.398 12.8555 109.016 12.8555C107.328 12.8555 106.203 11.666 106.203 9.70312C106.203 7.78125 107.322 6.55078 109.004 6.55078C110.527 6.55078 111.436 7.55859 111.564 8.6543ZM114.523 11.9883C115.484 11.9883 116.223 11.3145 116.223 10.4355V9.9375L114.594 10.0371C113.773 10.0898 113.305 10.4531 113.305 11.0273C113.305 11.6074 113.791 11.9883 114.523 11.9883ZM114.295 12.8555C113.082 12.8555 112.268 12.123 112.268 11.0273C112.268 9.98438 113.07 9.32812 114.477 9.24609L116.223 9.14648V8.63672C116.223 7.89258 115.73 7.44727 114.887 7.44727C114.102 7.44727 113.609 7.81641 113.48 8.41406H112.496C112.566 7.35938 113.469 6.55078 114.91 6.55078C116.34 6.55078 117.242 7.32422 117.242 8.53711V12.75H116.275V11.7012H116.252C115.889 12.3984 115.115 12.8555 114.295 12.8555ZM118.865 5.18555H119.885V6.65625H121.068V7.49414H119.885V11.1152C119.885 11.6719 120.119 11.9238 120.641 11.9238C120.758 11.9238 120.992 11.9062 121.062 11.8945V12.75C120.939 12.7793 120.658 12.7969 120.418 12.7969C119.299 12.7969 118.865 12.3398 118.865 11.168V7.49414H117.957V6.65625H118.865V5.18555ZM122.211 12.75V6.65625H123.23V12.75H122.211ZM122.721 5.63086C122.375 5.63086 122.088 5.34375 122.088 4.99805C122.088 4.64648 122.375 4.36523 122.721 4.36523C123.072 4.36523 123.359 4.64648 123.359 4.99805C123.359 5.34375 123.072 5.63086 122.721 5.63086ZM127.133 12.8555C125.445 12.8555 124.309 11.6426 124.309 9.70312C124.309 7.75781 125.445 6.55078 127.133 6.55078C128.814 6.55078 129.951 7.75781 129.951 9.70312C129.951 11.6426 128.814 12.8555 127.133 12.8555ZM127.133 11.959C128.211 11.959 128.914 11.1387 128.914 9.70312C128.914 8.26758 128.211 7.44727 127.133 7.44727C126.055 7.44727 125.346 8.26758 125.346 9.70312C125.346 11.1387 126.055 11.959 127.133 11.959ZM130.982 12.75V6.65625H131.943V7.62891H131.967C132.307 6.97266 132.957 6.55078 133.9 6.55078C135.236 6.55078 136.01 7.41211 136.01 8.79492V12.75H134.99V8.97656C134.99 7.99219 134.527 7.45312 133.59 7.45312C132.629 7.45312 132.002 8.13281 132.002 9.16406V12.75H130.982Z" fill="#2196F3"/>
</svg>
