<svg width="37" height="37" viewBox="0 0 37 37" fill="none" xmlns="http://www.w3.org/2000/svg">
<path d="M4.55774 18.8461H18.0577V21.0961H4.55774V18.8461ZM2.30774 13.2211H13.5577V15.4711H2.30774V13.2211Z" fill="#454545"/>
<path d="M33.7166 19.5278L30.3416 11.6528C30.255 11.4504 30.1109 11.2779 29.9271 11.1567C29.7433 11.0355 29.5279 10.9709 29.3078 10.9711H25.9328V8.72107C25.9328 8.4227 25.8142 8.13655 25.6032 7.92557C25.3923 7.7146 25.1061 7.59607 24.8078 7.59607H6.80775V9.84607H23.6828V23.9716C23.1701 24.2692 22.7215 24.6654 22.3627 25.1373C22.004 25.6092 21.7422 26.1475 21.5925 26.7211H14.523C14.2492 25.6606 13.598 24.7364 12.6915 24.1216C11.785 23.5069 10.6854 23.2439 9.59887 23.3819C8.51233 23.5199 7.51342 24.0495 6.78939 24.8713C6.06535 25.6931 5.66589 26.7508 5.66589 27.8461C5.66589 28.9413 6.06535 29.999 6.78939 30.8208C7.51342 31.6426 8.51233 32.1722 9.59887 32.3102C10.6854 32.4482 11.785 32.1852 12.6915 31.5705C13.598 30.9558 14.2492 30.0316 14.523 28.9711H21.5925C21.8372 29.9366 22.3969 30.7929 23.183 31.4046C23.9691 32.0163 24.9367 32.3485 25.9328 32.3485C26.9288 32.3485 27.8964 32.0163 28.6825 31.4046C29.4686 30.7929 30.0283 29.9366 30.273 28.9711H32.6828C32.9811 28.9711 33.2673 28.8525 33.4782 28.6416C33.6892 28.4306 33.8078 28.1444 33.8078 27.8461V19.9711C33.8078 19.8187 33.7768 19.6678 33.7166 19.5278ZM10.1827 30.0961C9.73774 30.0961 9.30273 29.9641 8.93272 29.7169C8.56271 29.4696 8.27432 29.1182 8.10402 28.7071C7.93372 28.296 7.88917 27.8436 7.97598 27.4071C8.0628 26.9707 8.27709 26.5697 8.59176 26.2551C8.90643 25.9404 9.30734 25.7261 9.7438 25.6393C10.1803 25.5525 10.6327 25.597 11.0438 25.7673C11.4549 25.9376 11.8063 26.226 12.0536 26.596C12.3008 26.966 12.4327 27.4011 12.4327 27.8461C12.4322 28.4426 12.1949 29.0146 11.7731 29.4364C11.3513 29.8582 10.7793 30.0955 10.1827 30.0961ZM25.9328 13.2211H28.5653L30.9772 18.8461H25.9328V13.2211ZM25.9328 30.0961C25.4877 30.0961 25.0527 29.9641 24.6827 29.7169C24.3127 29.4696 24.0243 29.1182 23.854 28.7071C23.6837 28.296 23.6392 27.8436 23.726 27.4071C23.8128 26.9707 24.0271 26.5697 24.3418 26.2551C24.6564 25.9404 25.0573 25.7261 25.4938 25.6393C25.9303 25.5525 26.3827 25.597 26.7938 25.7673C27.2049 25.9376 27.5563 26.226 27.8036 26.596C28.0508 26.966 28.1828 27.4011 28.1828 27.8461C28.1822 28.4426 27.9449 29.0146 27.5231 29.4364C27.1013 29.8582 26.5293 30.0955 25.9328 30.0961ZM31.5578 26.7211H30.273C30.0252 25.7574 29.4646 24.9033 28.6791 24.2925C27.8937 23.6817 26.9277 23.3488 25.9328 23.3461V21.0961H31.5578V26.7211Z" fill="#454545"/>
</svg>
