<svg width="34" height="37" viewBox="0 0 34 37" fill="none" xmlns="http://www.w3.org/2000/svg">
<path d="M14.0864 5.28522C14.0864 5.02002 14.1918 4.76568 14.3793 4.57815C14.5668 4.39063 14.8212 4.28528 15.0864 4.28528H19.0861C19.3513 4.28528 19.6057 4.39063 19.7932 4.57815C19.9807 4.76568 20.0861 5.02002 20.0861 5.28522C20.0861 5.55042 19.9807 5.80476 19.7932 5.99228C19.6057 6.17981 19.3513 6.28516 19.0861 6.28516H15.0864C14.8212 6.28516 14.5668 6.17981 14.3793 5.99228C14.1918 5.80476 14.0864 5.55042 14.0864 5.28522Z" stroke-linecap="round" stroke-linejoin="round"/>
<path fill-rule="evenodd" clip-rule="evenodd" d="M26.4504 12.8049C26.0874 13.0899 25.6165 13.3179 25.0485 13.5028C25.1572 14.6137 25.0322 15.7351 24.6815 16.7947C24.3308 17.8544 23.7623 18.829 23.0124 19.6557C22.2626 20.4825 21.348 21.1432 20.3275 21.5954C19.307 22.0476 18.2032 22.2811 17.087 22.2811C15.9708 22.2811 14.867 22.0476 13.8465 21.5954C12.826 21.1432 11.9114 20.4825 11.1615 19.6557C10.4117 18.829 9.84313 17.8544 9.49247 16.7947C9.14182 15.7351 9.0168 14.6137 9.12546 13.5028C8.5575 13.3179 8.08653 13.0899 7.72455 12.8049C7.25458 12.4349 6.93959 11.9409 6.9026 11.347C6.8676 10.796 7.08559 10.328 7.30357 9.99806C7.51876 9.68551 7.77429 9.40275 8.06353 9.15711C8.20352 9.03412 8.34151 8.92513 8.4695 8.83013C8.4315 8.62514 8.38951 8.37716 8.34751 8.09018C8.17037 6.82973 8.08348 5.55823 8.08753 4.2854C8.08753 3.97142 8.22152 3.73744 8.28351 3.63844C8.36151 3.51345 8.4535 3.40646 8.5375 3.32046C8.70449 3.14547 8.92048 2.96748 9.15746 2.79649C9.63743 2.44851 10.2974 2.05754 11.0813 1.69156C12.6443 0.961604 14.7911 0.285645 17.087 0.285645C19.3838 0.285645 21.5297 0.962604 23.0926 1.69156C23.7666 1.99982 24.4106 2.3697 25.0165 2.79649C25.2535 2.96748 25.4695 3.14647 25.6365 3.32046C25.7205 3.40646 25.8125 3.51345 25.8905 3.63844C25.9525 3.73744 26.0864 3.97142 26.0864 4.2854C26.0864 5.88731 25.9565 7.18523 25.8265 8.09018C25.7845 8.37716 25.7425 8.62514 25.7045 8.83013C25.8325 8.92513 25.9715 9.03412 26.1114 9.15711C26.3614 9.3761 26.6474 9.66108 26.8704 9.99806C27.0894 10.328 27.3064 10.796 27.2724 11.348C27.2354 11.9409 26.9204 12.4349 26.4504 12.8049ZM10.0894 4.60338C10.1044 5.9513 10.2164 7.04124 10.3274 7.80319C10.3534 7.98318 10.3794 8.14317 10.4034 8.28516H23.7706C23.7956 8.14317 23.8206 7.98218 23.8466 7.80319C23.9566 7.04124 24.0696 5.9513 24.0846 4.60338C24.0067 4.53759 23.9263 4.47487 23.8436 4.4154C23.4826 4.15441 22.9346 3.82543 22.2467 3.50445C20.8638 2.85849 19.0109 2.28552 17.087 2.28552C15.1631 2.28552 13.3102 2.85849 11.9273 3.50445C11.2393 3.82543 10.6914 4.15441 10.3314 4.4144C10.2483 4.47451 10.1675 4.53789 10.0894 4.60438M9.87542 10.285L9.87242 10.287C9.69983 10.402 9.53453 10.5276 9.37745 10.663C9.19946 10.819 9.05747 10.971 8.97147 11.103C8.95101 11.1327 8.93263 11.1638 8.91648 11.196C8.93064 11.2089 8.94531 11.2213 8.96047 11.233C9.11046 11.351 9.43244 11.524 10.0604 11.695C10.1844 11.729 10.3174 11.761 10.4594 11.793L10.4684 11.795C10.9704 11.9059 11.5883 12.0049 12.3413 12.0829C13.4082 12.1939 14.7511 12.2669 16.429 12.2829L17.087 12.2849C20.3138 12.2849 22.4007 12.0839 23.7066 11.795L23.7146 11.793C23.8576 11.761 23.9906 11.729 24.1146 11.695C24.7415 11.525 25.0645 11.351 25.2135 11.233C25.2287 11.2213 25.2433 11.2089 25.2575 11.196C25.2417 11.1638 25.2236 11.1327 25.2035 11.103C25.0872 10.9396 24.9504 10.7917 24.7965 10.663C24.6398 10.5276 24.4748 10.4021 24.3026 10.287L24.2986 10.285H9.87542ZM16.815 14.2848C19.4568 14.2848 21.5047 14.1448 23.0746 13.9008C23.1262 14.7161 23.0108 15.5333 22.7354 16.3024C22.46 17.0715 22.0305 17.7762 21.4731 18.3734C20.9157 18.9706 20.2423 19.4477 19.494 19.7755C18.7457 20.1032 17.9384 20.2747 17.1215 20.2794C16.3046 20.2841 15.4954 20.1219 14.7434 19.8028C13.9914 19.4837 13.3125 19.0144 12.7483 18.4237C12.1841 17.8329 11.7464 17.1332 11.4622 16.3673C11.178 15.6015 11.0531 14.7856 11.0953 13.9698C12.5583 14.1718 14.4331 14.2848 16.815 14.2848ZM9.16546 33.1607C9.11335 33.5327 9.08729 33.9079 9.08747 34.2836V35.2835C9.08758 35.5034 9.01525 35.7171 8.88168 35.8917C8.7481 36.0662 8.56072 36.1919 8.34852 36.2493C8.13632 36.3067 7.91113 36.2926 7.70778 36.2091C7.50443 36.1256 7.33425 35.9774 7.22358 35.7875C6.54965 36.1531 5.76104 36.2458 5.02071 36.0465L3.08883 35.5285C2.32063 35.3223 1.66577 34.8195 1.26824 34.1305C0.870715 33.4416 0.763061 32.623 0.968953 31.8547L1.74491 28.9569C1.95089 28.1885 2.45365 27.5334 3.1426 27.1357C3.83155 26.738 4.65027 26.6302 5.41869 26.836L7.35057 27.353C8.02253 27.533 8.5805 27.928 8.96847 28.4439C9.89413 27.1555 11.1135 26.1061 12.5255 25.3827C13.9374 24.6593 15.5015 24.2827 17.088 24.2842C18.6736 24.2832 20.2368 24.6597 21.648 25.3827C23.0592 26.1057 24.278 27.1544 25.2035 28.4419C25.6054 27.9089 26.1743 27.5259 26.8194 27.354L28.7513 26.837C29.5196 26.6312 30.3382 26.7388 31.0271 27.1363C31.716 27.5339 32.2189 28.1887 32.4251 28.9569L33.202 31.8557C33.3039 32.2363 33.3299 32.6332 33.2784 33.0238C33.2269 33.4143 33.099 33.791 32.902 34.1321C32.7049 34.4733 32.4426 34.7722 32.13 35.012C31.8175 35.2518 31.4607 35.4276 31.0801 35.5295L29.1493 36.0465C28.4102 36.2459 27.6229 36.1543 26.9494 35.7905C26.8384 35.9802 26.668 36.128 26.4645 36.211C26.2611 36.2941 26.0359 36.3079 25.8239 36.2502C25.6118 36.1925 25.4247 36.0665 25.2914 35.8918C25.1581 35.7171 25.0861 35.5033 25.0865 35.2835V34.2836C25.0867 33.9079 25.0606 33.5327 25.0085 33.1607L19.8048 34.5556C19.5633 35.0726 19.1793 35.51 18.6979 35.8164C18.2165 36.1229 17.6576 36.2856 17.087 36.2856C16.5163 36.2856 15.9575 36.1229 15.4761 35.8164C14.9947 35.51 14.6107 35.0726 14.3691 34.5556L9.16546 33.1607ZM14.2072 32.4407C14.3414 31.9849 14.5817 31.5673 14.9085 31.2223C15.2352 30.8772 15.6391 30.6146 16.087 30.4558V26.3461C14.6845 26.5234 13.3538 27.0688 12.2303 27.9269C11.1068 28.7851 10.2305 29.9253 9.69043 31.2318L14.2072 32.4407ZM24.4835 31.2308C23.9433 29.9245 23.0669 28.7845 21.9434 27.9265C20.8199 27.0686 19.4894 26.5233 18.0869 26.3461V30.4548C18.9909 30.7748 19.6968 31.5148 19.9668 32.4417L24.4835 31.2308ZM26.6304 30.5108C26.5964 30.384 26.5877 30.2517 26.6048 30.1215C26.6219 29.9912 26.6645 29.8657 26.7302 29.7519C26.7958 29.6382 26.8832 29.5385 26.9874 29.4585C27.0916 29.3785 27.2105 29.3199 27.3374 29.2859L29.2693 28.7679C29.5253 28.6995 29.798 28.7355 30.0275 28.8681C30.257 29.0007 30.4245 29.2189 30.4932 29.4749L31.2701 32.3727C31.3042 32.4996 31.3129 32.6319 31.2957 32.7621C31.2786 32.8923 31.236 33.0179 31.1704 33.1316C31.1047 33.2454 31.0173 33.3451 30.9131 33.425C30.809 33.505 30.69 33.5636 30.5632 33.5976L28.6313 34.1156C28.5044 34.1496 28.372 34.1583 28.2417 34.1411C28.1115 34.1239 27.9859 34.0812 27.8721 34.0155C27.7583 33.9497 27.6587 33.8622 27.5787 33.7579C27.4988 33.6536 27.4403 33.5346 27.4064 33.4076L26.6304 30.5108ZM4.90172 28.7679C4.7748 28.7338 4.64239 28.7249 4.51206 28.742C4.38174 28.759 4.25605 28.8016 4.14219 28.8672C4.02833 28.9329 3.92853 29.0204 3.8485 29.1246C3.76847 29.2289 3.70978 29.3479 3.67579 29.4749L2.89984 32.3717C2.86581 32.4986 2.85711 32.6309 2.87422 32.7611C2.89134 32.8913 2.93393 33.0169 2.99958 33.1306C3.06523 33.2444 3.15265 33.3441 3.25683 33.424C3.36102 33.504 3.47994 33.5626 3.60679 33.5966L5.53868 34.1146C5.66553 34.1486 5.79784 34.1573 5.92805 34.1402C6.05827 34.1231 6.18383 34.0805 6.29758 34.0149C6.41133 33.9492 6.51103 33.8618 6.59099 33.7576C6.67096 33.6534 6.72961 33.5345 6.7636 33.4076L7.53956 30.5098C7.57373 30.3829 7.58255 30.2505 7.56551 30.1202C7.54847 29.9898 7.5059 29.8642 7.44024 29.7503C7.37458 29.6364 7.28712 29.5366 7.18285 29.4566C7.07859 29.3766 6.95957 29.3179 6.8326 29.2839L4.90172 28.7679ZM18.0869 33.2837C18.0869 33.5489 17.9816 33.8032 17.7941 33.9907C17.6065 34.1782 17.3522 34.2836 17.087 34.2836C16.8218 34.2836 16.5674 34.1782 16.3799 33.9907C16.1924 33.8032 16.087 33.5489 16.087 33.2837C16.087 33.0185 16.1924 32.7641 16.3799 32.5766C16.5674 32.3891 16.8218 32.2837 17.087 32.2837C17.3522 32.2837 17.6065 32.3891 17.7941 32.5766C17.9816 32.7641 18.0869 33.0185 18.0869 33.2837Z" stroke-linecap="round" stroke-linejoin="round"/>
</svg>
