<svg width="24" height="25" viewBox="0 0 24 25" fill="none" xmlns="http://www.w3.org/2000/svg">
<path d="M18.5271 1.69384C18.4743 1.63797 18.4114 1.59363 18.3421 1.5634C18.2727 1.53316 18.1983 1.51765 18.1232 1.51776C18.048 1.51787 17.9736 1.53361 17.9044 1.56405C17.8351 1.59448 17.7723 1.63902 17.7198 1.69504C17.6137 1.81029 17.5552 1.96441 17.5569 2.12421C17.5586 2.28401 17.6204 2.43671 17.729 2.54944C18.5563 3.41432 19.1797 4.46802 19.5499 5.62737C19.9201 6.78672 20.027 8.01999 19.8622 9.22984C19.8403 9.38778 19.8786 9.54838 19.9689 9.67716C20.0592 9.80595 20.1943 9.89265 20.3452 9.91864C20.4195 9.93068 20.4954 9.92714 20.5684 9.90822C20.6414 9.8893 20.71 9.85538 20.7703 9.80846C20.8306 9.76153 20.8813 9.70253 20.9195 9.63491C20.9577 9.56729 20.9825 9.49241 20.9927 9.41464C21.1832 8.01636 21.0596 6.591 20.6317 5.25109C20.2038 3.91118 19.4833 2.69339 18.5271 1.69384ZM5.62175 3.96184C5.63833 3.53346 5.79184 3.12319 6.05782 2.79641C6.3238 2.46963 6.68694 2.24514 7.08938 2.15873C7.49182 2.07231 7.9104 2.12893 8.27842 2.31957C8.64644 2.51021 8.94272 2.8239 9.12005 3.21064C9.34831 2.99778 9.62386 2.84771 9.92173 2.77403C10.2196 2.70035 10.5304 2.70538 10.8259 2.78868C11.1215 2.87197 11.3924 3.03089 11.6142 3.25104C11.8361 3.47119 12.0017 3.74561 12.0963 4.04944L12.1975 4.37344C12.4284 4.17255 12.703 4.03378 12.9973 3.96926C13.2915 3.90475 13.5964 3.91646 13.8853 4.00337C14.1742 4.09028 14.4383 4.24974 14.6545 4.46781C14.8707 4.68587 15.0323 4.95589 15.1254 5.25424L16.3513 9.13024L17.0229 11.175C17.5158 12.6782 17.6655 14.2808 17.4599 15.855L17.1494 18.2406C17.0819 18.7587 16.8859 19.2494 16.5807 19.6641C16.2755 20.0788 15.8717 20.403 15.4094 20.6046L12.9277 21.6858C11.8099 22.173 10.5495 21.8634 9.7031 21.0174C6.1266 17.439 2.94225 16.2534 2.0671 15.9786C1.6554 15.849 1.3035 15.3546 1.522 14.8122C1.6945 14.385 2.1085 13.6362 2.99515 13.227C3.6771 12.9114 4.5603 12.831 5.69765 13.1454L3.4816 6.44344C3.33072 5.95727 3.37022 5.42856 3.59147 4.97265C3.81273 4.51675 4.19779 4.17064 4.66265 4.00984C4.98465 3.90064 5.3147 3.88984 5.62175 3.96184ZM8.09425 8.33584L8.7325 10.3506C8.75621 10.4255 8.76556 10.5045 8.76001 10.5831C8.75447 10.6617 8.73413 10.7385 8.70018 10.8089C8.66622 10.8793 8.6193 10.9421 8.5621 10.9936C8.5049 11.0451 8.43854 11.0843 8.3668 11.109C8.29507 11.1338 8.21936 11.1435 8.14402 11.1378C8.06867 11.132 7.99515 11.1107 7.92766 11.0753C7.79136 11.0037 7.68789 10.8786 7.64 10.7274L6.9868 8.66344L5.892 5.64064L5.8874 5.62864C5.83206 5.44554 5.70967 5.29265 5.54686 5.20321C5.38405 5.11377 5.19399 5.09502 5.018 5.15104C4.84403 5.21325 4.70024 5.34393 4.61731 5.51521C4.53437 5.68649 4.51887 5.8848 4.5741 6.06784L7.16965 13.9254C7.20583 14.0353 7.21068 14.1538 7.18359 14.2664C7.15651 14.3791 7.09866 14.4811 7.01708 14.5602C6.9355 14.6392 6.83368 14.6918 6.72399 14.7117C6.6143 14.7315 6.50145 14.7176 6.39915 14.6718C4.86735 13.9878 3.9692 14.0886 3.45975 14.3238C3.12165 14.4798 2.89625 14.7234 2.75135 14.9478C4.05545 15.4134 7.12135 16.7742 10.4978 20.151C11.0429 20.6958 11.8237 20.8662 12.4838 20.5794L14.9644 19.497C15.2416 19.3762 15.4838 19.1818 15.667 18.9333C15.8501 18.6847 15.9679 18.3905 16.0086 18.0798L16.3191 15.6942C16.5007 14.3049 16.3688 12.8905 15.9338 11.5638L15.2611 9.51544L15.2588 9.50944L14.0317 5.62864V5.62624C13.9786 5.45168 13.8638 5.30478 13.7105 5.21546C13.5573 5.12614 13.3772 5.1011 13.2069 5.14545C13.0367 5.1898 12.889 5.30019 12.7939 5.45417C12.6989 5.60814 12.6637 5.79412 12.6954 5.97424L13.6787 9.13384C13.724 9.2844 13.7108 9.44756 13.6417 9.58796C13.5726 9.72837 13.4533 9.83472 13.3096 9.88397C13.1659 9.93322 13.0094 9.92139 12.8739 9.85107C12.7385 9.78074 12.6351 9.65757 12.5862 9.50824L12.5804 9.50944L11.6259 6.44224C11.61 6.39086 11.5962 6.33882 11.5845 6.28624L11.0026 4.42144C10.9423 4.24501 10.8184 4.10005 10.6574 4.01734C10.4963 3.93464 10.3106 3.9207 10.1399 3.97848C9.96911 4.03626 9.82665 4.16122 9.74273 4.32683C9.65882 4.49243 9.64007 4.68564 9.69045 4.86544L10.3839 7.09264C10.3977 7.13704 10.4069 7.18264 10.4104 7.22704L11.0164 9.13744C11.0643 9.28862 11.0527 9.45345 10.9841 9.59568C10.9155 9.7379 10.7956 9.84588 10.6507 9.89584C10.5058 9.94581 10.3479 9.93368 10.2116 9.86211C10.0753 9.79055 9.97179 9.66542 9.9239 9.51424L8.11495 3.81424C8.05731 3.63299 7.93302 3.48306 7.76944 3.39744C7.60586 3.31181 7.41637 3.29749 7.24268 3.35764C7.06898 3.41779 6.9253 3.54748 6.84324 3.71818C6.76117 3.88887 6.74746 4.08659 6.8051 4.26784L8.0724 8.26384L8.09885 8.33584H8.09425ZM16.6813 4.00624C16.7462 3.96578 16.818 3.93905 16.8928 3.92759C16.9675 3.91612 17.0437 3.92015 17.117 3.93943C17.1903 3.95871 17.2592 3.99287 17.3198 4.03995C17.3804 4.08704 17.4315 4.14613 17.4702 4.21384L17.8106 4.80784C18.3833 5.80864 18.6915 6.94984 18.7019 8.11624C18.7032 8.27537 18.644 8.42856 18.5371 8.54209C18.4302 8.65562 18.2845 8.72021 18.132 8.72164C17.9795 8.72308 17.8327 8.66124 17.7239 8.54973C17.6151 8.43822 17.5532 8.28617 17.5519 8.12704C17.5435 7.17439 17.2923 6.24122 16.8239 5.42344L16.4835 4.82944C16.4447 4.76184 16.419 4.68692 16.4079 4.60896C16.3968 4.531 16.4006 4.45153 16.419 4.37509C16.4373 4.29864 16.47 4.22672 16.515 4.16343C16.56 4.10015 16.6165 4.04673 16.6813 4.00624Z" fill="white"/>
</svg>
