<svg width="37" height="37" viewBox="0 0 37 37" fill="none" xmlns="http://www.w3.org/2000/svg">
<g clip-path="url(#clip0_1477_1711)">
<path d="M34.4507 17.5757L19.4507 2.5757C19.2634 2.38945 19.0099 2.28491 18.7457 2.28491C18.4816 2.28491 18.2281 2.38945 18.0407 2.5757L3.04075 17.5757C2.87692 17.767 2.79132 18.0131 2.80104 18.2648C2.81076 18.5164 2.91509 18.7552 3.09319 18.9333C3.27128 19.1114 3.51002 19.2157 3.7617 19.2254C4.01337 19.2351 4.25945 19.1495 4.45075 18.9857L18.7408 4.6957L33.0308 18.9957C33.2221 19.1595 33.4681 19.2451 33.7198 19.2354C33.9715 19.2257 34.2102 19.1214 34.3883 18.9433C34.5664 18.7652 34.6707 18.5264 34.6805 18.2748C34.6902 18.0231 34.6046 17.777 34.4408 17.5857L34.4507 17.5757Z" />
<path d="M28.7407 32.2857H23.7407V22.2857H13.7407V32.2857H8.74072V18.2857L6.74072 20.2857V32.2857C6.74072 32.8161 6.95144 33.3248 7.32651 33.6999C7.70158 34.0749 8.21029 34.2857 8.74072 34.2857H15.7407V24.2857H21.7407V34.2857H28.7407C29.2712 34.2857 29.7799 34.0749 30.1549 33.6999C30.53 33.3248 30.7407 32.8161 30.7407 32.2857V20.0457L28.7407 18.0457V32.2857Z" />
</g>
<defs>
<clipPath id="clip0_1477_1711">
<rect width="36" height="36" transform="translate(0.740723 0.285645)"/>
</clipPath>
</defs>
</svg>
