<svg width="62" height="62" viewBox="0 0 62 62" fill="none" xmlns="http://www.w3.org/2000/svg">
<path opacity="0.5" d="M30.9997 5.42053C25.9727 5.42053 21.0587 6.91119 16.8789 9.70401C12.6992 12.4968 9.44148 16.4664 7.51775 21.1107C5.59402 25.7549 5.09069 30.8654 6.07139 35.7957C7.0521 40.7261 9.4728 45.2549 13.0274 48.8095C16.582 52.3641 21.1108 54.7848 26.0411 55.7655C30.9715 56.7462 36.0819 56.2429 40.7262 54.3191C45.3705 52.3954 49.34 49.1377 52.1329 44.9579C54.9257 40.7782 56.4164 35.8641 56.4164 30.8372C56.4164 27.4994 55.7589 24.1944 54.4816 21.1107C53.2043 18.027 51.3321 15.2251 48.972 12.8649C46.6118 10.5047 43.8099 8.63257 40.7262 7.35526C37.6425 6.07795 34.3375 5.42053 30.9997 5.42053ZM30.9997 51.1705C26.9781 51.1705 23.0469 49.978 19.7031 47.7437C16.3593 45.5095 13.7531 42.3339 12.2141 38.6184C10.6752 34.903 10.2725 30.8146 11.0571 26.8704C11.8416 22.9261 13.7782 19.303 16.6218 16.4594C19.4655 13.6157 23.0886 11.6791 27.0329 10.8946C30.9771 10.11 35.0655 10.5127 38.7809 12.0516C42.4963 13.5906 45.672 16.1968 47.9062 19.5406C50.1405 22.8844 51.333 26.8156 51.333 30.8372C51.333 36.2299 49.1908 41.4018 45.3775 45.215C41.5643 49.0283 36.3924 51.1705 30.9997 51.1705Z" fill="black"/>
<path d="M51.3333 30.8372H56.4167C56.4167 27.4994 55.7592 24.1944 54.4819 21.1107C53.2046 18.027 51.3325 15.2251 48.9723 12.8649C46.6121 10.5047 43.8102 8.63257 40.7265 7.35526C37.6428 6.07795 34.3378 5.42053 31 5.42053V10.5039C36.3927 10.5039 41.5646 12.6461 45.3778 16.4594C49.1911 20.2726 51.3333 25.4445 51.3333 30.8372Z" fill="#2196F3"/>
</svg>
