<?xml version="1.0" encoding="UTF-8"?>
<svg version="1.1" xmlns="http://www.w3.org/2000/svg" width="2000" height="2000">
<path d="M0 0 C1.10809255 -0.00709439 2.2161851 -0.01418877 3.35785621 -0.02149814 C7.07843463 -0.03912872 10.79797542 -0.02094621 14.51853943 -0.00291443 C17.18273325 -0.00805128 19.84685683 -0.01514167 22.5110321 -0.02459717 C29.00023926 -0.04298066 35.48914541 -0.03445718 41.9783432 -0.01650894 C47.25138106 -0.00248702 52.52433717 0.00141075 57.79739189 -0.00195122 C58.54768245 -0.00242866 59.297973 -0.0029061 60.07099963 -0.00339801 C61.59515606 -0.00442433 63.11931246 -0.00547969 64.64346885 -0.00656378 C78.12190551 -0.01513211 91.60019675 0.00154909 105.07859802 0.03126526 C118.16134243 0.06010877 131.24387741 0.06718369 144.3266449 0.05177307 C158.56996314 0.0350184 172.81318194 0.03096873 187.05650276 0.04848343 C188.57476706 0.05032784 190.09303137 0.05216257 191.6112957 0.0539875 C192.3583318 0.05489959 193.10536789 0.05581168 193.87504144 0.05675141 C199.14312697 0.06236095 204.411164 0.05904581 209.6792469 0.05244255 C216.09725051 0.04471735 222.51504783 0.05143251 228.93300981 0.07661759 C232.20851822 0.08913125 235.4836386 0.09309541 238.75916862 0.08407593 C242.30707232 0.07542996 245.85403107 0.09125626 249.40185547 0.11352539 C250.960933 0.10116424 250.960933 0.10116424 252.55150706 0.08855337 C259.48856716 0.16932059 259.48856716 0.16932059 262.74590969 2.47285557 C264.97462166 5.92490522 265.26335585 8.65875311 265.26886368 12.66857719 C265.27270482 13.71648552 265.27654597 14.76439384 265.28050351 15.84405696 C265.27963703 16.99919233 265.27877055 18.1543277 265.27787781 19.34446716 C265.28233449 21.18061889 265.28233449 21.18061889 265.28688121 23.0538646 C265.2940697 26.4579211 265.29674116 29.86192715 265.29747868 33.26598763 C265.29932801 36.93478223 265.30687468 40.60356586 265.31361389 44.27235413 C265.32720209 52.29704815 265.33322254 60.32173718 265.33762455 68.34644079 C265.34038585 73.35520503 265.34462296 78.36396733 265.34912872 83.37273026 C265.36132145 97.23546922 265.37162113 111.09820664 265.37500381 124.96095085 C265.37522338 125.84837105 265.37544295 126.73579126 265.37566917 127.65010298 C265.37588744 128.53966578 265.37610572 129.42922858 265.37633061 130.34574783 C265.37677408 132.14839101 265.37722065 133.95103419 265.37767029 135.75367737 C265.37789172 136.64785374 265.37811315 137.54203012 265.37834129 138.46330275 C265.38229075 152.95770972 265.39974926 167.45206647 265.42302981 181.94645403 C265.44672841 196.82092839 265.45920497 211.69537752 265.46037173 226.56987107 C265.46128927 234.92409445 265.46706151 243.27825236 265.48519135 251.63245773 C265.50057215 258.74504895 265.50572474 265.85755448 265.49745324 272.97015916 C265.49353969 276.60014166 265.4945105 280.22995149 265.50851059 283.85991287 C265.52354005 287.79266492 265.51540396 291.72517237 265.50492859 295.65794373 C265.5170132 297.38395461 265.5170132 297.38395461 265.52934194 299.1448344 C265.52275209 300.19795822 265.51616225 301.25108204 265.50937271 302.3361187 C265.5099698 303.24392267 265.51056689 304.15172664 265.51118207 305.08703983 C265.05395882 308.19576079 263.95945367 310.08954692 262.13743591 312.62818909 C259.75567999 313.81906705 258.31013373 313.75455065 255.65179539 313.75682354 C254.70217979 313.76004799 253.75256419 313.76327243 252.77417237 313.76659459 C251.72370647 313.76504599 250.67324058 313.76349738 249.59094238 313.76190186 C248.48062399 313.76416741 247.37030559 313.76643297 246.22634119 313.76876718 C242.48063127 313.77513158 238.7349573 313.77427626 234.98924255 313.77345276 C232.31404483 313.77644272 229.63884999 313.77981622 226.96365356 313.78363037 C220.43637234 313.79194839 213.90910015 313.79468573 207.38181407 313.79524275 C202.07820511 313.79571735 196.77459915 313.79776926 191.47099113 313.80094337 C176.44619518 313.80975293 161.42140638 313.81436226 146.39660782 313.8136129 C145.586064 313.81357294 144.77552018 313.81353299 143.94041443 313.81349182 C143.12888515 313.81345094 142.31735586 313.81341006 141.48123478 313.81336794 C128.323995 313.81296134 115.16678382 313.82253368 102.00955231 313.83663019 C88.51147434 313.85097819 75.01341033 313.85790125 61.51532453 313.85703641 C53.93246627 313.8567039 46.34963799 313.8594744 38.76678658 313.87021446 C32.31142121 313.87929875 25.85609941 313.88151184 19.40073044 313.87470504 C16.10520091 313.87142935 12.8097729 313.87249759 9.51424789 313.88005829 C5.94639362 313.88771619 2.37876218 313.88317474 -1.18908691 313.87542725 C-2.23732209 313.88057081 -3.28555726 313.88571437 -4.36555713 313.8910138 C-5.31778048 313.88641501 -6.27000382 313.88181621 -7.25108242 313.87707806 C-8.07513055 313.87729542 -8.89917868 313.87751279 -9.74819797 313.87773675 C-11.86256409 313.62818909 -11.86256409 313.62818909 -14.86256409 311.62818909 C-15.85955472 308.6372172 -15.99163612 306.66450941 -15.99957848 303.54094887 C-16.00465302 302.48259036 -16.00972756 301.42423185 -16.01495588 300.33380187 C-16.01545364 299.16699365 -16.01595139 298.00018544 -16.01646423 296.79801941 C-16.02084649 295.5616676 -16.02522874 294.32531579 -16.02974379 293.05149877 C-16.04081471 289.61324161 -16.04735815 286.17502999 -16.05192494 282.73676157 C-16.05788009 279.03115321 -16.06948995 275.32556164 -16.08021545 271.6199646 C-16.10473825 262.66895319 -16.11936477 253.71793622 -16.13227552 244.76690155 C-16.13598701 242.23967726 -16.13996026 239.71245352 -16.14402819 237.18522978 C-16.16926007 221.49748309 -16.19131696 205.80973554 -16.20375633 190.12197304 C-16.2066861 186.48830283 -16.20964776 182.85463266 -16.21266174 179.22096252 C-16.21378082 177.8662402 -16.21378082 177.8662402 -16.2149225 176.48414974 C-16.22758403 161.84420982 -16.26081826 147.20439113 -16.30246358 132.56450792 C-16.34485106 117.54087311 -16.36844751 102.51730043 -16.3736769 87.49360597 C-16.37709423 79.05549059 -16.38888747 70.61756482 -16.42177963 62.17950821 C-16.44973735 54.99551593 -16.46079831 47.81175211 -16.44958417 40.62770964 C-16.4443868 36.96115431 -16.44735328 33.29507775 -16.47204971 29.62859154 C-16.49858317 25.65630683 -16.48651868 21.68467981 -16.4705658 17.71232605 C-16.48444788 16.54997928 -16.49832997 15.38763252 -16.51263273 14.19006312 C-16.46622841 9.52162744 -16.36561314 6.49840206 -14.00347424 2.41219234 C-9.351332 -0.23017452 -5.26911354 -0.06012972 0 0 Z M33.13743591 25.62818909 C33.13743591 27.93818909 33.13743591 30.24818909 33.13743591 32.62818909 C35.90361154 34.0112769 38.14761591 33.74029105 41.23899841 33.72584534 C43.05657654 33.72101135 43.05657654 33.72101135 44.91087341 33.71607971 C46.18188904 33.70770081 47.45290466 33.6993219 48.76243591 33.69068909 C50.68056091 33.68392151 50.68056091 33.68392151 52.63743591 33.67701721 C55.80414884 33.66520112 58.97076947 33.64872723 62.13743591 33.62818909 C62.26271667 34.27030334 62.38799744 34.9124176 62.51707458 35.57398987 C67.08590641 58.90922071 72.35479298 81.87475838 78.65965271 104.79908752 C79.0834238 106.34233043 79.50701296 107.88562331 79.93040466 109.42897034 C80.13229401 110.16374603 80.33418335 110.89852173 80.54219055 111.65556335 C81.57055677 115.43017232 82.52393837 119.20291383 83.33274841 123.03053284 C84.79079398 129.54927056 88.13849428 132.98971923 93.45384216 136.64772034 C97.66726338 139.10147608 101.93285668 138.78290936 106.64451599 138.7893219 C107.51313766 138.7942868 108.38175934 138.79925171 109.27670288 138.80436707 C112.15346567 138.81898505 115.03017331 138.82579025 117.90696716 138.83131409 C119.90612795 138.83706603 121.90528871 138.84282376 123.90444946 138.84858704 C128.09840655 138.85909612 132.29234447 138.86493933 136.48631287 138.86842346 C141.85647154 138.87390663 147.22637646 138.89793135 152.59645557 138.92639542 C156.72718034 138.94503319 160.85784414 138.95022802 164.98860741 138.95175934 C166.96812514 138.95478404 168.94764185 138.9628064 170.9271183 138.97594452 C173.69899841 138.99302798 176.47026062 138.99111908 179.24217224 138.9846344 C180.05745392 138.99384918 180.8727356 139.00306396 181.71272278 139.01255798 C187.48823758 138.97030194 191.54328525 137.75580278 196.11399841 134.00709534 C203.77197982 125.56879829 205.35236508 115.11357024 207.48875427 104.27394104 C208.95337097 97.01947795 210.96800693 89.97324909 213.20726013 82.92140198 C215.22179786 76.31026771 216.30140898 70.12010829 214.07493591 63.44068909 C210.45131322 58.18059163 206.18894994 54.71029829 200.13743591 52.62818909 C197.53877589 52.33703015 197.53877589 52.33703015 194.79067993 52.38768005 C193.20271606 52.38355606 193.20271606 52.38355606 191.58267212 52.37934875 C189.85637321 52.39013458 189.85637321 52.39013458 188.09519958 52.40113831 C186.87527313 52.40084625 185.65534668 52.4005542 184.39845276 52.4002533 C181.06198079 52.40140627 177.72575762 52.41142306 174.38932967 52.42540121 C170.89931076 52.43792047 167.40928839 52.43908001 163.91925049 52.44145203 C157.31430725 52.44766329 150.70943037 52.46406929 144.10451633 52.48415101 C136.58339201 52.50652104 129.06226448 52.51750621 121.54111516 52.52754188 C106.07318367 52.54843585 90.60531836 52.58360492 75.13743591 52.62818909 C75.0410508 51.6176371 75.0410508 51.6176371 74.94271851 50.58666992 C74.8127523 49.25068504 74.8127523 49.25068504 74.68016052 47.88771057 C74.59527878 47.00775925 74.51039703 46.12780792 74.42294312 45.22119141 C74.03069314 41.65874155 73.40024278 38.20673756 72.69993591 34.69068909 C72.45372498 33.42354065 72.20751404 32.15639221 71.95384216 30.85084534 C71.29720974 27.50668536 71.29720974 27.50668536 69.13743591 24.62818909 C64.15387436 22.9670019 58.95914732 23.44225557 53.7407074 23.44288635 C51.71062737 23.4407006 49.68109168 23.42253312 47.65110779 23.40357971 C46.36913513 23.40164612 45.08716248 23.39971252 43.76634216 23.39772034 C42.00399231 23.39155701 42.00399231 23.39155701 40.20603943 23.38526917 C37.26694703 23.6179366 35.61203734 24.09008809 33.13743591 25.62818909 Z M99.13743591 168.62818909 C94.98621284 172.99789758 93.80812563 176.45593522 93.93040466 182.50318909 C94.27929804 186.08428335 95.30083937 188.54744649 97.13743591 191.62818909 C101.63872244 195.13919258 105.22393251 196.30845928 110.93040466 196.00709534 C115.35277172 195.2478571 118.57119545 193.50026349 121.45774841 190.05006409 C124.11018436 185.93229639 124.90144528 182.55180498 124.13743591 177.62818909 C122.14737116 173.01761921 120.3630023 169.44523334 116.13743591 166.62818909 C109.70713743 165.13303227 104.81886738 165.21933021 99.13743591 168.62818909 Z M161.63352966 170.09693909 C158.04744694 174.26537712 156.7634794 176.9294353 156.86399841 182.46803284 C157.41756761 186.84122948 159.35116255 190.05941533 162.64524841 192.95240784 C167.22554331 195.98818469 171.76533622 196.54097063 177.13743591 195.62818909 C181.62884569 194.21635104 184.29085901 191.9466569 186.63743591 187.87818909 C188.48884135 183.58484373 188.58826797 180.06332759 187.13743591 175.62818909 C185.20271022 172.21017369 183.16277611 169.14930592 180.13743591 166.62818909 C173.48975776 164.79194232 166.80749833 165.04392034 161.63352966 170.09693909 Z M16.13743591 233.62818909 C15.06988757 235.56219825 15.06988757 235.56219825 15.13743591 237.62818909 C16.12743591 239.11318909 16.12743591 239.11318909 17.13743591 240.62818909 C19.99231453 240.92679935 22.63103604 241.02794004 25.48875427 241.00241089 C26.80002116 241.0083725 26.80002116 241.0083725 28.13777828 241.01445454 C31.08444124 241.02412472 34.03062972 241.01223104 36.97727966 241.00050354 C39.08267904 241.00292995 41.18807726 241.0066478 43.29347229 241.01156616 C49.02477143 241.02099944 54.75590053 241.01152927 60.48718643 240.99823403 C66.47338651 240.98694873 72.45957787 240.99102477 78.44578552 240.99298096 C88.50025727 240.99386486 98.55466172 240.98276343 108.6091156 240.96437073 C120.24822818 240.94320166 131.88724212 240.93969266 143.52637005 240.94593269 C154.70379634 240.95161932 165.88118775 240.94598896 177.05860901 240.93475914 C181.82413882 240.93010386 186.58964736 240.92924331 191.35517883 240.93134499 C196.96279336 240.933223 202.57030691 240.92516158 208.17789841 240.90928459 C210.24112912 240.90502724 212.30437006 240.90420086 214.3676033 240.90697479 C217.17388706 240.9101764 219.97986524 240.90116612 222.78611755 240.8888855 C223.61159057 240.89266482 224.43706358 240.89644415 225.28755093 240.90033799 C229.68111525 241.04217751 229.68111525 241.04217751 233.13743591 238.62818909 C233.13087481 235.58822376 233.13087481 235.58822376 232.13743591 232.62818909 C228.51672623 229.86660814 224.17431221 230.34672664 219.83154297 230.36749268 C218.98635776 230.36366713 218.14117255 230.35984158 217.27037567 230.35590011 C214.43376312 230.3455681 211.5973529 230.34956264 208.76072693 230.35353088 C206.72886467 230.34918453 204.69700405 230.34400164 202.66514587 230.33804321 C197.14247746 230.32463397 191.61987739 230.32407667 186.09719586 230.32660651 C181.48966225 230.32767488 176.88214254 230.32279631 172.27461189 230.31800109 C161.40652902 230.30689932 150.5384807 230.30647232 139.6703949 230.31251526 C128.45162668 230.31855718 117.23298381 230.30623999 106.01423699 230.28494519 C96.38782276 230.26734349 86.76144849 230.26132556 77.13501877 230.26458293 C71.38310492 230.26639816 65.63128049 230.26373572 59.87938118 230.24986839 C54.47115436 230.23731791 49.06312332 230.23920783 43.6548996 230.25227928 C41.66871259 230.25465065 39.68251192 230.25189041 37.69634056 230.24365616 C34.98743567 230.23323441 32.27919325 230.24125249 29.5703125 230.25396729 C28.78217889 230.246593 27.99404528 230.23921872 27.18202883 230.23162097 C22.66798152 230.27627215 19.71659689 230.80647403 16.13743591 233.62818909 Z M15.13743591 277.62818909 C16.38720347 281.2813558 16.80842345 282.40884744 20.13743591 284.62818909 C22.9264961 284.82629464 25.61602456 284.90639153 28.4057312 284.89561462 C29.25893466 284.90014574 30.11213811 284.90467685 30.99119622 284.90934527 C33.86087941 284.92204359 36.73037415 284.92036542 39.6000824 284.91871643 C41.65312445 284.92469824 43.70616424 284.93150298 45.75920105 284.93907166 C51.34383659 284.95677303 56.92841089 284.96142874 62.51307178 284.96270323 C67.17035703 284.96459969 71.82762794 284.9719542 76.48490769 284.97904742 C87.46943293 284.9953443 98.45392537 285.00021514 109.4384613 284.99879456 C120.78165918 284.99759241 132.12466701 285.01870583 143.46781677 285.05028188 C153.19695542 285.07640306 162.92603184 285.08716362 172.65520531 285.08588374 C178.47029263 285.08537293 184.28521109 285.09112175 190.1002636 285.11223984 C195.56761019 285.13155251 201.03462561 285.13179455 206.50198364 285.11720657 C208.51116988 285.11510877 210.52037647 285.11987678 212.52952766 285.13192749 C215.26746448 285.14728871 218.0042463 285.13813273 220.74215698 285.12266541 C221.54166745 285.13295253 222.34117792 285.14323966 223.16491598 285.15383852 C226.73133302 285.10915728 228.76113611 284.90457132 231.6738596 282.76525307 C233.42118984 280.68838466 233.42118984 280.68838466 232.94993591 277.94068909 C232.34816693 275.69467641 232.34816693 275.69467641 231.13743591 274.62818909 C228.41539453 274.52366756 225.71849769 274.48486744 222.99575806 274.48774719 C222.13201279 274.48477607 221.26826753 274.48180495 220.37834817 274.47874379 C217.46103905 274.47001712 214.54377076 274.46854521 211.62644958 274.46705627 C209.54414786 274.46243088 207.46184699 274.45740661 205.37954712 274.45201111 C199.7059653 274.43885776 194.03239534 274.43243639 188.35880065 274.42800045 C184.81777456 274.42507431 181.27675175 274.42097038 177.73572731 274.41649628 C166.66722986 274.40281332 155.59873984 274.3931507 144.53023452 274.38929439 C131.73385321 274.38481219 118.93757865 274.36726009 106.14122981 274.33829379 C96.26351964 274.31670703 86.38583957 274.30659171 76.50810605 274.30525327 C70.60247122 274.30420303 64.69693661 274.29824907 58.79132652 274.28043365 C53.23705726 274.26400499 47.68296411 274.26177209 42.12867928 274.27057266 C40.0872437 274.27134585 38.04579886 274.26696349 36.0043869 274.25711441 C33.2227339 274.24447854 30.44171255 274.25022601 27.6600647 274.26069641 C26.84751714 274.25264001 26.03496959 274.2445836 25.19779938 274.23628306 C20.91501614 274.27412409 18.22793849 274.51726478 15.13743591 277.62818909 Z " fill="#00A8FF" transform="translate(939.8625640869141,737.3718109130859)"/>
<path d="M0 0 C0.7871421 -0.00696761 1.5742842 -0.01393521 2.38527909 -0.02111396 C5.02734423 -0.03838226 7.66794756 -0.01998057 10.30998898 -0.0017767 C12.22139319 -0.00682098 14.13279268 -0.01404889 16.04418129 -0.02327484 C21.30005927 -0.04224055 26.5554733 -0.02993891 31.81133974 -0.0125519 C37.47807475 0.00079587 43.14474072 -0.01460565 48.81146908 -0.02637386 C59.91366479 -0.04477378 71.01568477 -0.03622254 82.11787505 -0.01828564 C91.13848835 -0.00427304 100.15905387 -0.00036396 109.17967701 -0.00372791 C111.10378056 -0.00444408 111.10378056 -0.00444408 113.06675489 -0.00517471 C115.67240804 -0.00620101 118.27806118 -0.00725637 120.88371431 -0.00834047 C144.63183274 -0.01717129 168.37984724 0.00149951 192.12794193 0.03218976 C213.81275737 0.06005405 235.49746069 0.06501265 257.18228817 0.04999638 C262.735506 0.04617402 268.28872383 0.04237925 273.84194183 0.03882599 C274.5255835 0.03838817 275.20922516 0.03795036 275.91358324 0.03749928 C294.02777963 0.02626324 312.14196379 0.03367833 330.25615829 0.04670674 C332.85204311 0.04855117 335.44792793 0.0503859 338.04381275 0.05221081 C339.9597771 0.05357894 339.9597771 0.05357894 341.9144478 0.05497472 C350.92759715 0.06058728 359.94071818 0.05726626 368.953866 0.05066586 C379.93296655 0.04294513 390.91194645 0.04963985 401.89102263 0.0748409 C407.4956565 0.08736481 413.10010228 0.09344741 418.70474339 0.08229923 C423.83119448 0.07229452 428.95726963 0.08063582 434.08367478 0.10388041 C435.94224678 0.10906065 437.80085218 0.10744045 439.65940983 0.09848576 C442.17856647 0.08735414 444.69643778 0.10065384 447.21551514 0.12025452 C447.94347692 0.1111757 448.67143871 0.10209688 449.42145994 0.09274295 C454.22483097 0.16600425 456.67122785 1.219936 460.044837 4.62641239 C462.77208103 10.08090045 460.5388763 15.93724321 458.75894833 21.35566044 C458.44079159 22.29063358 458.12263485 23.22560673 457.794837 24.18891239 C457.14564944 26.14396132 456.4985129 28.09969251 455.85343075 30.05609989 C455.38332577 31.47874149 455.38332577 31.47874149 454.90372372 32.93012333 C453.42186632 37.58209408 452.22812016 42.30338196 451.06436825 47.04438114 C449.82138666 50.19231535 448.97754015 50.96311996 446.044837 52.62641239 C443.47934483 52.91412969 441.15924679 53.02950515 438.59567833 53.00393581 C437.83894708 53.00829614 437.08221583 53.01265646 436.30255333 53.01714891 C433.75222963 53.02814744 431.20244181 53.01766197 428.65212154 53.00736332 C426.81114361 53.01081806 424.97016774 53.01558139 423.12919623 53.02154505 C418.0588676 53.03410978 412.9887076 53.02785987 407.91837823 53.0185864 C402.45479727 53.01181864 396.99124599 53.02226578 391.52767086 53.03052616 C380.82028589 53.04388977 370.11296388 53.04097415 359.4055764 53.03228824 C350.70670184 53.02552278 342.00784498 53.02459004 333.30896854 53.02785969 C331.45436407 53.02854924 331.45436407 53.02854924 329.56229283 53.02925272 C327.05085416 53.03021186 324.53941548 53.03118449 322.02797682 53.03217049 C299.13211699 53.04048776 276.23628474 53.0318517 253.34043139 53.0161427 C232.42799804 53.00190368 211.51561948 53.00318079 190.60318661 53.01752567 C167.11982464 53.03358015 143.6364868 53.0399097 120.15311915 53.03068888 C117.65104266 53.0297332 115.14896618 53.02879008 112.64688969 53.02785969 C111.41569859 53.02739686 110.1845075 53.02693403 108.91600759 53.02645718 C100.22304683 53.02386253 91.53010547 53.02824847 82.83714771 53.03529835 C72.24992748 53.04369543 61.662774 53.04147099 51.07556146 53.02545612 C45.66968829 53.01754946 40.2639266 53.01452243 34.85805416 53.02440357 C29.91549884 53.0333015 24.97315898 53.02849913 20.03062338 53.01247092 C18.23662555 53.00910223 16.44260975 53.01086358 14.64862334 53.01809828 C12.2215367 53.02714007 9.79520104 53.01794749 7.36815453 53.00393581 C6.66164089 53.01095931 5.95512725 53.01798281 5.22720411 53.02521914 C2.41767538 52.99250529 0.5085769 52.95247636 -1.82847399 51.30925333 C-3.69393375 48.52297245 -4.63200966 45.4121284 -5.65438175 42.24750614 C-5.8942934 41.52080219 -6.13420506 40.79409824 -6.38138676 40.04537296 C-6.88603423 38.50613378 -7.38585736 36.96530571 -7.88118839 35.42304325 C-8.63396743 33.09085222 -9.41164124 30.76802827 -10.19149113 28.44477177 C-15.94923203 10.94960013 -15.94923203 10.94960013 -13.955163 5.62641239 C-9.49994716 1.10365594 -6.3908866 -0.10561642 0 0 Z " fill="#00A9FF" transform="translate(839.9551630020142,1063.3735876083374)"/>
<path d="M0 0 C1.39644783 -0.00576172 1.39644783 -0.00576172 2.82110673 -0.01163983 C3.85075365 -0.01077335 4.88040056 -0.00990687 5.94124889 -0.00901413 C7.02973839 -0.01198525 8.1182279 -0.01495637 9.23970193 -0.01801753 C12.91164348 -0.02673582 16.58355255 -0.02821541 20.25550365 -0.02970505 C22.87819521 -0.034331 25.50088608 -0.03935535 28.12357616 -0.04475021 C35.26612594 -0.05834486 42.40867011 -0.06436006 49.55123067 -0.06876087 C54.00938521 -0.07152148 58.46753758 -0.07575851 62.92569065 -0.08026505 C75.26401445 -0.09245938 87.6023365 -0.10275824 99.9406662 -0.10614014 C100.73069035 -0.1063597 101.5207145 -0.10657927 102.33467878 -0.10680549 C103.1266164 -0.10702377 103.91855401 -0.10724204 104.73448974 -0.10746694 C106.33931339 -0.10791041 107.94413704 -0.10835697 109.54896069 -0.10880661 C110.34501227 -0.10902804 111.14106386 -0.10924947 111.96123823 -0.10947761 C124.86171289 -0.11342607 137.76213108 -0.13088082 150.66258392 -0.15416613 C163.90076892 -0.17786856 177.13892556 -0.19034149 190.37713212 -0.19150805 C197.81251994 -0.19242546 205.2478342 -0.19819418 212.68320179 -0.21632767 C219.67547562 -0.23332015 226.6676075 -0.23498956 233.6598959 -0.22618866 C236.22983009 -0.22541546 238.79977164 -0.22979803 241.36968708 -0.23964691 C244.87124873 -0.25228177 248.37230853 -0.24653541 251.87386608 -0.23606491 C253.4082982 -0.24814952 253.4082982 -0.24814952 254.97372895 -0.26047826 C261.15846877 -0.21706435 264.77584102 0.45454673 269.38563061 4.82698441 C271.13342228 8.14905561 271.02698732 11.33783997 270.99647045 15.00252151 C270.99934063 15.76186493 271.00221081 16.52120834 271.00516796 17.30356216 C271.00720552 18.90642926 271.00169717 20.5093214 270.98914623 22.11214066 C270.97310927 24.55729076 270.98899266 27.00078252 271.0081892 29.44588089 C271.00620628 31.00643139 271.00236159 32.56698087 270.99647045 34.12752151 C271.00254314 34.85474915 271.00861584 35.58197678 271.01487255 36.33124161 C270.93711507 41.98381293 269.55419458 45.17526613 265.59803295 49.13142776 C263.61016667 49.3855781 263.61016667 49.3855781 261.11518574 49.39148998 C259.69168739 49.40208837 259.69168739 49.40208837 258.2394315 49.41290087 C256.66475584 49.40927824 256.66475584 49.40927824 255.05826855 49.40558243 C253.3938493 49.41343745 253.3938493 49.41343745 251.69580543 49.42145115 C247.9524041 49.43653434 244.20913845 49.43715813 240.46570873 49.43782425 C237.79212901 49.44544013 235.11856096 49.4538171 232.4449873 49.46304703 C225.16407826 49.4859254 217.88319831 49.49382063 210.60225821 49.49887347 C206.05834327 49.5021271 201.51443683 49.50864753 196.9705267 49.51587486 C184.39629736 49.53544423 171.82207594 49.55184655 159.24783039 49.5547514 C158.44271662 49.55493897 157.63760285 49.55512654 156.80809169 49.55531979 C155.17584125 49.55568605 153.54359081 49.55604975 151.91134037 49.5564109 C151.10105927 49.55659371 150.29077818 49.55677652 149.45594311 49.55696487 C148.23904265 49.5572357 148.23904265 49.5572357 146.99755834 49.55751199 C133.84739947 49.56105484 120.69740424 49.58808253 107.54730214 49.62546276 C94.05486265 49.66351004 80.56250442 49.68290861 67.07001007 49.68321091 C59.49096283 49.68379628 51.91211079 49.69233921 44.33311367 49.72120857 C37.88027454 49.74567473 31.42770178 49.75303788 24.97482885 49.73796105 C21.68101106 49.73077231 18.38783145 49.73443301 15.09405041 49.75437164 C11.52615571 49.77465834 7.95963955 49.76438143 4.39176464 49.7461586 C2.82378114 49.76595855 2.82378114 49.76595855 1.22412121 49.7861585 C-5.77395496 49.70410257 -5.77395496 49.70410257 -9.04482937 46.72144127 C-10.35306509 44.22475414 -10.90633814 42.82633878 -10.91954517 40.04719925 C-10.93215382 39.27967834 -10.94476246 38.51215744 -10.95775318 37.72137833 C-10.94965626 36.90665558 -10.94155933 36.09193283 -10.93321705 35.25252151 C-10.93704395 34.40343719 -10.94087086 33.55435287 -10.94481373 32.67953873 C-10.94752817 30.89013351 -10.94019971 29.1006883 -10.92345142 27.31135941 C-10.90200718 24.5740509 -10.92328115 21.83935885 -10.94884205 19.10213089 C-10.94619921 17.36058865 -10.94107513 15.61904803 -10.93321705 13.87752151 C-10.94131397 13.06077454 -10.9494109 12.24402756 -10.95775318 11.40253067 C-10.89739838 7.74366555 -10.75730663 5.59401479 -8.49376392 2.64729691 C-5.41839306 0.41865805 -3.74643138 0.00578237 0 0 Z M89.59803295 26.13142776 C90.34953318 29.4091628 90.34953318 29.4091628 93.59803295 31.13142776 C97.88294207 31.5176876 102.17677647 31.46061467 106.4769392 31.44710159 C108.59074345 31.44393867 110.70315142 31.4674179 112.81678295 31.49275589 C114.16053119 31.49502871 115.50428318 31.49573246 116.84803295 31.49470901 C118.68107983 31.49918045 118.68107983 31.49918045 120.55115795 31.50374222 C123.57117204 31.3782962 123.57117204 31.3782962 125.5316267 29.76887894 C126.85549519 28.09740523 126.85549519 28.09740523 126.41053295 25.56892776 C125.75176262 22.98701504 125.75176262 22.98701504 123.59803295 21.13142776 C119.51881655 20.68660922 115.43323397 20.71725779 111.33167553 20.70589066 C109.30268379 20.69402804 107.27676969 20.64489751 105.24842358 20.59431839 C103.96516186 20.58722855 102.68190014 20.5801387 101.3597517 20.57283401 C100.18372387 20.55937943 99.00769604 20.54592484 97.796031 20.53206253 C93.71429067 21.29705776 92.22786729 23.01079816 89.59803295 26.13142776 Z M143.12122631 23.48103714 C142.6185725 24.35566605 142.11591869 25.23029495 141.59803295 26.13142776 C142.34953318 29.4091628 142.34953318 29.4091628 145.59803295 31.13142776 C149.88294207 31.5176876 154.17677647 31.46061467 158.4769392 31.44710159 C160.59074345 31.44393867 162.70315142 31.4674179 164.81678295 31.49275589 C166.16053119 31.49502871 167.50428318 31.49573246 168.84803295 31.49470901 C170.68107983 31.49918045 170.68107983 31.49918045 172.55115795 31.50374222 C175.57789523 31.38336111 175.57789523 31.38336111 177.52772045 29.73372269 C178.80358034 28.17422935 178.80358034 28.17422935 178.47303295 26.13142776 C177.43336177 23.75503648 176.67429177 22.70635072 174.59803295 21.13142776 C170.47881358 20.54291897 166.35928842 20.61637849 162.20130444 20.6304512 C160.16999415 20.63142324 158.14246905 20.58981397 156.11170483 20.54549026 C154.82973217 20.54291214 153.54775951 20.54033401 152.2269392 20.53767776 C151.0520393 20.53058792 149.8771394 20.52349808 148.66663647 20.51619339 C145.41856368 20.88429148 145.41856368 20.88429148 143.12122631 23.48103714 Z M193.59803295 24.13142776 C193.0145279 26.67433401 193.0145279 26.67433401 193.59803295 29.13142776 C198.47250117 32.38107324 204.19947713 31.46443528 209.9041853 31.44710159 C212.09040064 31.44393881 214.27526587 31.46741682 216.4613142 31.49275589 C217.85063541 31.49502871 219.23996026 31.49573246 220.62928295 31.49470901 C221.89320873 31.49768997 223.15713451 31.50067093 224.45936108 31.50374222 C227.56656255 31.39201173 227.56656255 31.39201173 229.54139233 29.73372269 C230.80185345 28.17187774 230.80185345 28.17187774 230.47303295 26.13142776 C229.43311398 23.75447012 228.6772702 22.70367442 226.59803295 21.13142776 C223.56523082 20.66704891 223.56523082 20.66704891 220.1019392 20.73299026 C218.82125561 20.72912308 217.54057201 20.72525589 216.22107983 20.72127151 C215.55455395 20.72755569 214.88802807 20.73383987 214.20130444 20.74031448 C212.17075101 20.75634709 210.14219573 20.74047587 208.11170483 20.72127151 C206.18874584 20.7270723 206.18874584 20.7270723 204.2269392 20.73299026 C202.46458935 20.73806595 202.46458935 20.73806595 200.66663647 20.74324417 C197.34127757 21.16390776 195.93398403 21.763303 193.59803295 24.13142776 Z " fill="#00A9FF" transform="translate(934.401967048645,678.8685722351074)"/>
<path d="M0 0 C0.84755859 0.00322266 1.69511719 0.00644531 2.56835938 0.00976562 C3.44943359 0.01814453 4.33050781 0.02652344 5.23828125 0.03515625 C6.57729492 0.04192383 6.57729492 0.04192383 7.94335938 0.04882812 C10.14590112 0.06060642 12.34830724 0.07705461 14.55078125 0.09765625 C14.6422881 35.06292049 14.71279519 70.02816054 14.75504257 104.99351926 C14.76004554 109.11921486 14.76522282 113.24491022 14.77050781 117.37060547 C14.77155705 118.19197529 14.7726063 119.01334511 14.77368733 119.85960492 C14.79110413 133.168284 14.82264881 146.47689413 14.85939243 159.78553227 C14.89676644 173.43609708 14.91900959 187.08662572 14.92713523 200.7372396 C14.93263037 209.16399021 14.95000128 217.59054597 14.98244712 226.01723662 C15.00355134 231.79162729 15.00999062 237.56591687 15.00478676 243.34034333 C15.00221849 246.67463744 15.00839126 250.00831482 15.02760315 253.34259605 C15.04739901 256.95419793 15.04275767 260.56495475 15.03179932 264.17657471 C15.04345068 265.23493412 15.05510205 266.29329354 15.06710649 267.38372445 C15.00884154 274.45010154 15.00884154 274.45010154 12.67609787 277.74787521 C10.04608597 279.41818643 8.41133861 279.61351727 5.3046875 279.62890625 C4.30244141 279.6340625 3.30019531 279.63921875 2.26757812 279.64453125 C1.22666016 279.6290625 0.18574219 279.61359375 -0.88671875 279.59765625 C-1.92376953 279.613125 -2.96082031 279.62859375 -4.02929688 279.64453125 C-5.03283203 279.639375 -6.03636719 279.63421875 -7.0703125 279.62890625 C-7.98224365 279.62439453 -8.8941748 279.61988281 -9.83374023 279.61523438 C-13.51295443 278.88715316 -14.90828004 277.89690203 -17.44921875 275.09765625 C-18.21199739 271.64598258 -18.1146108 268.23296638 -18.07067871 264.71047974 C-18.07706753 263.64140471 -18.08345635 262.57232969 -18.09003878 261.47085845 C-18.1053411 257.87619151 -18.08479138 254.28261746 -18.06445312 250.68798828 C-18.06795276 248.11588169 -18.07360955 245.54377726 -18.08126831 242.97167969 C-18.09580559 236.70289994 -18.08354968 230.43444373 -18.06215507 224.16569461 C-18.0381551 216.86575366 -18.03985889 209.56588702 -18.04246098 202.26591538 C-18.04615259 189.23954694 -18.02531493 176.21333097 -17.99121094 163.18701172 C-17.9581323 150.54764958 -17.94395019 137.90844752 -17.95019531 125.26904297 C-17.95696117 111.50804969 -17.95449252 97.74712351 -17.93483591 83.98614013 C-17.93379643 83.25823167 -17.93275694 82.5303232 -17.93168595 81.78035691 C-17.92959505 80.31838771 -17.92748408 78.85641853 -17.92535278 77.39444939 C-17.91845947 72.30666304 -17.91778752 67.21889737 -17.91923523 62.13110733 C-17.92082631 55.28075892 -17.90591521 48.43060564 -17.8800087 41.58030701 C-17.87283885 39.0640188 -17.87076719 36.54771021 -17.87412643 34.03141403 C-17.87783354 30.60033389 -17.86311941 27.16981547 -17.84362793 23.73880005 C-17.84895586 22.73957712 -17.85428378 21.7403542 -17.85977316 20.71085179 C-17.79892547 14.51546 -17.09996176 9.97130265 -12.73046875 5.234375 C-12.14265625 4.75613281 -11.55484375 4.27789063 -10.94921875 3.78515625 C-10.36140625 3.29402344 -9.77359375 2.80289063 -9.16796875 2.296875 C-6.16219787 0.19966668 -3.54686221 -0.02380444 0 0 Z " fill="#00A8FF" transform="translate(898.44921875,774.90234375)"/>
<path d="M0 0 C3.04221065 -0.08132642 6.0822238 -0.14065374 9.125 -0.1875 C9.9809375 -0.21263672 10.836875 -0.23777344 11.71875 -0.26367188 C18.43642314 -0.34118349 22.55638547 0.88960564 27.75 5.375 C32.58627508 11.01732093 32.28941424 16.4061928 32.26742554 23.52088928 C32.27195665 24.59222986 32.27648776 25.66357044 32.28115618 26.76737589 C32.29383358 30.36327144 32.29217766 33.95901619 32.29052734 37.55493164 C32.29651036 40.13042903 32.30331538 42.70592462 32.31088257 45.28141785 C32.32748603 51.55395615 32.33299175 57.82645686 32.33410732 64.0990153 C32.33505779 69.19612162 32.339168 74.29321553 32.34550858 79.39031792 C32.36311661 93.83895326 32.37234774 108.2875589 32.37084763 122.73620505 C32.37076772 123.51491998 32.3706878 124.29363491 32.37060547 125.09594727 C32.37052371 125.87561159 32.37044195 126.65527591 32.37035771 127.45856642 C32.36954418 140.10412315 32.38869963 152.74956095 32.4168822 165.39508326 C32.44558623 178.37685182 32.45942398 191.35856232 32.45769465 204.34036344 C32.45703005 211.62981818 32.46255331 218.91914811 32.48405075 226.2085743 C32.50412639 233.05975401 32.50361443 239.91066547 32.48901749 246.76185799 C32.48691821 249.28061304 32.49169625 251.79938428 32.5037384 254.31811142 C32.51907787 257.74775431 32.50995712 261.17647267 32.49447632 264.60609436 C32.50476344 265.61046085 32.51505057 266.61482734 32.52564943 267.64962918 C32.45837933 274.36033751 32.45837933 274.36033751 30.12447548 277.61727047 C27.4939553 279.32936269 25.88193898 279.5157551 22.75390625 279.53125 C21.75166016 279.53640625 20.74941406 279.5415625 19.71679688 279.546875 C18.67587891 279.53140625 17.63496094 279.5159375 16.5625 279.5 C15.52544922 279.51546875 14.48839844 279.5309375 13.41992188 279.546875 C12.41638672 279.54171875 11.41285156 279.5365625 10.37890625 279.53125 C9.4669751 279.52673828 8.55504395 279.52222656 7.61547852 279.51757812 C3.91132323 278.7845613 2.54413986 277.84002075 0 275 C-0.76215266 271.37045488 -0.65213901 267.77530663 -0.60127258 264.07891846 C-0.60554471 262.95252386 -0.60981683 261.82612926 -0.61421841 260.66560149 C-0.62247849 256.8772538 -0.59491146 253.09000414 -0.56762695 249.30175781 C-0.56343543 246.59183549 -0.56678678 243.88193489 -0.56983948 241.17201233 C-0.57246228 235.33062546 -0.55676429 229.48951766 -0.52865028 223.64820099 C-0.48802875 215.20266929 -0.47499448 206.75727263 -0.46871033 198.31165382 C-0.457765 184.60954817 -0.42448441 170.90759128 -0.37719727 157.20556641 C-0.3313078 143.89470159 -0.29591291 130.58387716 -0.2746582 117.27294922 C-0.27334459 116.45257633 -0.27203097 115.63220344 -0.27067754 114.78697076 C-0.26415239 110.67143396 -0.25783385 106.55589687 -0.25161803 102.44035959 C-0.19977761 68.293466 -0.11170592 34.14674903 0 0 Z " fill="#00A8FF" transform="translate(1214,775)"/>
<path d="M0 0 C15.54233173 -0.11687398 31.08463053 -0.20500801 46.62729836 -0.25906086 C53.84429247 -0.28482732 61.06101333 -0.31994744 68.27783203 -0.37719727 C74.56906137 -0.4270807 80.86009279 -0.45930237 87.15151441 -0.47044247 C90.48199463 -0.47695317 93.81177761 -0.49485423 97.14210892 -0.52865028 C100.86282268 -0.56490872 104.58236086 -0.56994635 108.30322266 -0.56762695 C109.95399811 -0.59459152 109.95399811 -0.59459152 111.63812256 -0.62210083 C119.97708451 -0.56579496 119.97708451 -0.56579496 123.69848633 2.33352661 C126 5 126 5 126.52099609 8.23120117 C125.90076786 12.71782873 124.89431437 16.94689298 123.6640625 21.30078125 C123.42464935 22.17719772 123.18523621 23.0536142 122.93856812 23.95658875 C122.17570796 26.7442628 121.40106171 29.52847514 120.625 32.3125 C119.85798244 35.08628892 119.09358856 37.86075715 118.33285522 40.63627625 C117.8605525 42.35713705 117.38444172 44.07695931 116.90371704 45.79548645 C115.53302174 50.76252419 114.48023303 55.6607155 113.73666382 60.76286316 C112.71005738 63.88051198 111.69943404 65.09822975 109 67 C105.99339411 67.39452813 103.35360646 67.54722719 100.34765625 67.51757812 C99.47567596 67.5245874 98.60369568 67.53159668 97.70529175 67.53881836 C94.82403686 67.55641806 91.94376481 67.54476865 89.0625 67.53125 C87.0599753 67.53394435 85.05745186 67.53782629 83.05493164 67.54284668 C78.85843447 67.54874441 74.66227789 67.54016984 70.46582031 67.52148438 C65.08523956 67.49869479 59.70545687 67.51181638 54.3249054 67.53577423 C50.18992087 67.55022472 46.05512571 67.54562963 41.9201355 67.53526306 C39.93618679 67.53259371 37.95222091 67.53587285 35.96829224 67.54518127 C33.19584579 67.55533445 30.42469372 67.53986323 27.65234375 67.51757812 C26.83144257 67.52567505 26.01054138 67.53377197 25.1647644 67.54211426 C21.53827842 67.48807905 19.44286514 67.33926838 16.51983643 65.1000061 C14.92796781 62.90047085 14.10958962 61.15750635 13.359375 58.5546875 C13.09713135 57.65854736 12.8348877 56.76240723 12.56469727 55.83911133 C12.29584717 54.86095459 12.02699707 53.88279785 11.75 52.875 C11.45988037 51.84979248 11.16976074 50.82458496 10.87084961 49.76831055 C8.21250352 40.17220931 5.86449491 30.49922222 3.5625 20.8125 C3.38319946 20.06280945 3.20389893 19.3131189 3.01916504 18.54071045 C2.5072002 16.38936132 2.00391547 14.23618696 1.50390625 12.08203125 C1.21330322 10.83655518 0.9227002 9.5910791 0.62329102 8.30786133 C0.0774017 5.41077774 -0.04972685 2.92733969 0 0 Z " fill="#00A8FF" transform="translate(1019,799)"/>
<path d="M0 0 C3.0625 0.3125 3.0625 0.3125 5 1.4375 C6.0625 3.3125 6.0625 3.3125 5.9375 6.375 C5.0625 9.3125 5.0625 9.3125 2.0625 11.3125 C-3.49305556 10.75694444 -3.49305556 10.75694444 -4.9375 9.3125 C-5.125 5.875 -5.125 5.875 -4.9375 2.3125 C-2.9375 0.3125 -2.9375 0.3125 0 0 Z " fill="#00A9FF" transform="translate(1112.9375,912.6875)"/>
<path d="M0 0 C0.33 2.31 0.66 4.62 1 7 C-0.75 8.5625 -0.75 8.5625 -3 10 C-6.00388632 9.73495121 -6.83304275 9.16695725 -9 7 C-8.75 3.4375 -8.75 3.4375 -8 0 C-5.13822943 -1.43088528 -3.06624227 -0.59991697 0 0 Z " fill="#00AAFF" transform="translate(1053,914)"/>
</svg>
