<?xml version="1.0" encoding="UTF-8"?>
<svg version="1.1" xmlns="http://www.w3.org/2000/svg" width="36" height="37" viewBox="0 0 36 37" fill="none">
<path d="M0 0 C0.88600891 -0.00100708 1.77201782 -0.00201416 2.68487549 -0.00305176 C22.23861231 0.01195325 40.73009451 2.16247876 59.73291016 6.78125 C62.64586018 7.47983407 65.57438383 8.10685379 68.5 8.75 C77.47597186 10.84401613 86.18893086 13.37949816 94.54296875 17.30078125 C98.15909407 18.90136131 101.91601591 20.07308298 105.6875 21.25 C105.6875 21.91 105.6875 22.57 105.6875 23.25 C107.0075 23.25 108.3275 23.25 109.6875 23.25 C109.6875 23.91 109.6875 24.57 109.6875 25.25 C110.23921875 25.37246094 110.7909375 25.49492188 111.359375 25.62109375 C113.98341255 26.32993611 116.4211953 27.28611256 118.9375 28.3125 C119.82953125 28.67472656 120.7215625 29.03695312 121.640625 29.41015625 C122.65382813 29.82587891 122.65382813 29.82587891 123.6875 30.25 C123.6875 30.91 123.6875 31.57 123.6875 32.25 C125.0075 32.25 126.3275 32.25 127.6875 32.25 C127.6875 32.91 127.6875 33.57 127.6875 34.25 C128.6775 34.25 129.6675 34.25 130.6875 34.25 C130.6875 34.91 130.6875 35.57 130.6875 36.25 C132.0075 36.25 133.3275 36.25 134.6875 36.25 C134.6875 36.91 134.6875 37.57 134.6875 38.25 C136.3375 38.58 137.9875 38.91 139.6875 39.25 C139.6875 39.91 139.6875 40.57 139.6875 41.25 C141.6675 41.91 143.6475 42.57 145.6875 43.25 C145.6875 43.91 145.6875 44.57 145.6875 45.25 C146.3475 45.25 147.0075 45.25 147.6875 45.25 C147.6875 45.91 147.6875 46.57 147.6875 47.25 C149.3375 47.58 150.9875 47.91 152.6875 48.25 C152.6875 48.91 152.6875 49.57 152.6875 50.25 C153.326875 50.353125 153.96625 50.45625 154.625 50.5625 C155.305625 50.789375 155.98625 51.01625 156.6875 51.25 C157.0175 52.24 157.3475 53.23 157.6875 54.25 C158.595 54.53875 159.5025 54.8275 160.4375 55.125 C164.27673777 56.45396692 166.07817891 58.18021048 168.6875 61.25 C168.6875 61.91 168.6875 62.57 168.6875 63.25 C169.43 63.518125 170.1725 63.78625 170.9375 64.0625 C173.57811949 65.20276751 175.54302844 66.34380306 177.6875 68.25 C177.6875 68.91 177.6875 69.57 177.6875 70.25 C178.3475 70.25 179.0075 70.25 179.6875 70.25 C179.6875 70.91 179.6875 71.57 179.6875 72.25 C180.3475 72.25 181.0075 72.25 181.6875 72.25 C181.6875 72.91 181.6875 73.57 181.6875 74.25 C182.3475 74.25 183.0075 74.25 183.6875 74.25 C183.6875 74.91 183.6875 75.57 183.6875 76.25 C184.6775 76.58 185.6675 76.91 186.6875 77.25 C186.6875 77.91 186.6875 78.57 186.6875 79.25 C187.3475 79.25 188.0075 79.25 188.6875 79.25 C188.6875 79.91 188.6875 80.57 188.6875 81.25 C189.3475 81.25 190.0075 81.25 190.6875 81.25 C190.6875 81.91 190.6875 82.57 190.6875 83.25 C191.3475 83.25 192.0075 83.25 192.6875 83.25 C192.6875 83.91 192.6875 84.57 192.6875 85.25 C193.3475 85.25 194.0075 85.25 194.6875 85.25 C196.98398649 87.8114657 197.6875 88.72967572 197.6875 92.25 C198.3475 92.25 199.0075 92.25 199.6875 92.25 C199.6875 92.91 199.6875 93.57 199.6875 94.25 C200.285625 94.4975 200.88375 94.745 201.5 95 C204.02336869 96.44192497 205.18780076 97.77549626 206.6875 100.25 C206.6875 101.24 206.6875 102.23 206.6875 103.25 C207.3475 103.25 208.0075 103.25 208.6875 103.25 C208.6875 103.91 208.6875 104.57 208.6875 105.25 C209.3475 105.25 210.0075 105.25 210.6875 105.25 C210.6875 105.91 210.6875 106.57 210.6875 107.25 C211.3475 107.25 212.0075 107.25 212.6875 107.25 C212.6875 108.24 212.6875 109.23 212.6875 110.25 C213.3475 110.25 214.0075 110.25 214.6875 110.25 C215.0175 111.9 215.3475 113.55 215.6875 115.25 C216.3475 115.25 217.0075 115.25 217.6875 115.25 C217.6875 115.91 217.6875 116.57 217.6875 117.25 C218.3475 117.25 219.0075 117.25 219.6875 117.25 C219.6875 118.57 219.6875 119.89 219.6875 121.25 C220.3475 121.25 221.0075 121.25 221.6875 121.25 C221.6875 121.91 221.6875 122.57 221.6875 123.25 C222.3475 123.25 223.0075 123.25 223.6875 123.25 C224.6775 126.22 225.6675 129.19 226.6875 132.25 C227.3475 132.25 228.0075 132.25 228.6875 132.25 C228.6875 133.24 228.6875 134.23 228.6875 135.25 C229.3475 135.25 230.0075 135.25 230.6875 135.25 C230.6875 136.57 230.6875 137.89 230.6875 139.25 C231.3475 139.25 232.0075 139.25 232.6875 139.25 C232.6875 140.57 232.6875 141.89 232.6875 143.25 C233.3475 143.25 234.0075 143.25 234.6875 143.25 C235.0175 145.56 235.3475 147.87 235.6875 150.25 C236.3475 150.25 237.0075 150.25 237.6875 150.25 C242.27975513 158.511959 242.27975513 158.511959 241.6875 163.25 C242.3475 163.25 243.0075 163.25 243.6875 163.25 C244.0175 166.22 244.3475 169.19 244.6875 172.25 C245.3475 172.25 246.0075 172.25 246.6875 172.25 C251.27975513 182.62357631 251.27975513 182.62357631 250.6875 188.25 C251.3475 188.25 252.0075 188.25 252.6875 188.25 C254.62960433 195.72941368 256.08113688 202.50847464 255.6875 210.25 C256.3475 210.25 257.0075 210.25 257.6875 210.25 C257.6875 213.22 257.6875 216.19 257.6875 219.25 C258.3475 219.25 259.0075 219.25 259.6875 219.25 C259.6875 223.54 259.6875 227.83 259.6875 232.25 C260.3475 232.25 261.0075 232.25 261.6875 232.25 C261.71062737 240.31652174 261.72841709 248.38302972 261.73931217 256.44957638 C261.74454014 260.19483037 261.75163622 263.94006176 261.76293945 267.68530273 C261.77377141 271.29681687 261.77977749 274.90830921 261.78237724 278.51983833 C261.78423094 279.90060329 261.78785049 281.281367 261.79323006 282.66212273 C261.80044447 284.58975952 261.80090809 286.51741807 261.80102539 288.44506836 C261.803246 289.54427109 261.80546661 290.64347382 261.80775452 291.77598572 C261.6875 294.25 261.6875 294.25 260.6875 295.25 C260.45322222 297.26594582 260.27413876 299.288474 260.125 301.3125 C260.04121094 302.41722656 259.95742187 303.52195312 259.87109375 304.66015625 C259.81050781 305.51480469 259.74992187 306.36945313 259.6875 307.25 C259.0275 307.25 258.3675 307.25 257.6875 307.25 C257.6875 310.22 257.6875 313.19 257.6875 316.25 C257.0275 316.25 256.3675 316.25 255.6875 316.25 C255.749375 317.466875 255.81125 318.68375 255.875 319.9375 C255.90524505 326.24863441 254.26448636 332.17672515 252.6875 338.25 C252.0275 338.25 251.3675 338.25 250.6875 338.25 C250.75710938 339.57837891 250.75710938 339.57837891 250.828125 340.93359375 C250.68004864 344.42572795 250.01608538 346.23616043 248.4375 349.3125 C245.92166565 354.52234395 244.18491633 359.75256641 242.58203125 365.3046875 C241.75457188 368.0291607 240.78680575 370.62522592 239.6875 373.25 C239.0275 373.25 238.3675 373.25 237.6875 373.25 C237.6875 374.24 237.6875 375.23 237.6875 376.25 C237.0275 376.25 236.3675 376.25 235.6875 376.25 C235.3575 378.56 235.0275 380.87 234.6875 383.25 C234.0275 383.25 233.3675 383.25 232.6875 383.25 C232.6875 384.57 232.6875 385.89 232.6875 387.25 C232.0275 387.25 231.3675 387.25 230.6875 387.25 C230.6875 388.57 230.6875 389.89 230.6875 391.25 C230.0275 391.25 229.3675 391.25 228.6875 391.25 C228.6875 392.24 228.6875 393.23 228.6875 394.25 C228.0275 394.25 227.3675 394.25 226.6875 394.25 C225.6975 397.22 224.7075 400.19 223.6875 403.25 C223.0275 403.25 222.3675 403.25 221.6875 403.25 C221.6875 403.91 221.6875 404.57 221.6875 405.25 C221.0275 405.25 220.3675 405.25 219.6875 405.25 C219.6875 406.57 219.6875 407.89 219.6875 409.25 C219.0275 409.25 218.3675 409.25 217.6875 409.25 C217.6875 409.91 217.6875 410.57 217.6875 411.25 C217.0275 411.25 216.3675 411.25 215.6875 411.25 C215.3575 412.9 215.0275 414.55 214.6875 416.25 C214.0275 416.25 213.3675 416.25 212.6875 416.25 C212.584375 416.848125 212.48125 417.44625 212.375 418.0625 C211.58925967 420.56258286 210.71831147 421.62535082 208.6875 423.25 C208.0275 423.25 207.3675 423.25 206.6875 423.25 C206.605 423.9925 206.5225 424.735 206.4375 425.5 C205.53940201 428.79302595 204.30333926 430.10976788 201.6875 432.25 C201.0275 432.25 200.3675 432.25 199.6875 432.25 C199.6875 432.91 199.6875 433.57 199.6875 434.25 C199.0275 434.25 198.3675 434.25 197.6875 434.25 C197.56375 434.848125 197.44 435.44625 197.3125 436.0625 C196.6875 438.25 196.6875 438.25 194.6875 441.25 C194.0275 441.25 193.3675 441.25 192.6875 441.25 C192.6875 441.91 192.6875 442.57 192.6875 443.25 C192.0275 443.25 191.3675 443.25 190.6875 443.25 C190.6875 443.91 190.6875 444.57 190.6875 445.25 C190.0275 445.25 189.3675 445.25 188.6875 445.25 C188.6875 445.91 188.6875 446.57 188.6875 447.25 C188.0275 447.25 187.3675 447.25 186.6875 447.25 C186.419375 447.889375 186.15125 448.52875 185.875 449.1875 C184.6875 451.25 184.6875 451.25 181.6875 452.25 C181.6875 452.91 181.6875 453.57 181.6875 454.25 C181.0275 454.25 180.3675 454.25 179.6875 454.25 C179.6875 454.91 179.6875 455.57 179.6875 456.25 C179.0275 456.25 178.3675 456.25 177.6875 456.25 C177.6875 456.91 177.6875 457.57 177.6875 458.25 C175.1260343 460.54648649 174.20782428 461.25 170.6875 461.25 C170.6875 461.91 170.6875 462.57 170.6875 463.25 C170.0275 463.25 169.3675 463.25 168.6875 463.25 C168.44 463.848125 168.1925 464.44625 167.9375 465.0625 C166.49557503 467.58586869 165.16200374 468.75030076 162.6875 470.25 C161.6975 470.25 160.7075 470.25 159.6875 470.25 C159.6875 470.91 159.6875 471.57 159.6875 472.25 C159.0275 472.25 158.3675 472.25 157.6875 472.25 C157.6875 472.91 157.6875 473.57 157.6875 474.25 C156.0375 474.91 154.3875 475.57 152.6875 476.25 C152.6875 476.91 152.6875 477.57 152.6875 478.25 C148.30288462 481.25 148.30288462 481.25 145.6875 481.25 C145.6875 481.91 145.6875 482.57 145.6875 483.25 C144.3675 483.25 143.0475 483.25 141.6875 483.25 C141.6875 483.91 141.6875 484.57 141.6875 485.25 C141.0275 485.25 140.3675 485.25 139.6875 485.25 C139.6875 485.91 139.6875 486.57 139.6875 487.25 C136.7175 488.24 133.7475 489.23 130.6875 490.25 C130.6875 490.91 130.6875 491.57 130.6875 492.25 C129.6975 492.25 128.7075 492.25 127.6875 492.25 C127.6875 492.91 127.6875 493.57 127.6875 494.25 C126.3675 494.25 125.0475 494.25 123.6875 494.25 C123.6875 494.91 123.6875 495.57 123.6875 496.25 C122.3675 496.25 121.0475 496.25 119.6875 496.25 C119.6875 496.91 119.6875 497.57 119.6875 498.25 C117.3775 498.58 115.0675 498.91 112.6875 499.25 C112.6875 499.91 112.6875 500.57 112.6875 501.25 C94.86820273 510.87242052 94.86820273 510.87242052 85.6875 510.25 C85.6875 510.91 85.6875 511.57 85.6875 512.25 C84.3675 512.25 83.0475 512.25 81.6875 512.25 C81.2853125 513.0853125 81.2853125 513.0853125 80.875 513.9375 C79.57850504 516.46225334 78.26273677 518.88714484 76.6875 521.25 C76.0275 521.25 75.3675 521.25 74.6875 521.25 C74.6875 522.57 74.6875 523.89 74.6875 525.25 C74.0275 525.25 73.3675 525.25 72.6875 525.25 C72.3575 526.9 72.0275 528.55 71.6875 530.25 C71.0275 530.25 70.3675 530.25 69.6875 530.25 C69.6875 531.57 69.6875 532.89 69.6875 534.25 C69.0275 534.25 68.3675 534.25 67.6875 534.25 C67.6875 535.24 67.6875 536.23 67.6875 537.25 C67.0275 537.25 66.3675 537.25 65.6875 537.25 C65.6875 538.57 65.6875 539.89 65.6875 541.25 C65.0275 541.25 64.3675 541.25 63.6875 541.25 C63.6875 542.57 63.6875 543.89 63.6875 545.25 C63.0275 545.25 62.3675 545.25 61.6875 545.25 C61.3575 546.9 61.0275 548.55 60.6875 550.25 C60.0275 550.25 59.3675 550.25 58.6875 550.25 C58.6875 551.57 58.6875 552.89 58.6875 554.25 C58.0275 554.25 57.3675 554.25 56.6875 554.25 C56.6875 555.24 56.6875 556.23 56.6875 557.25 C56.0275 557.25 55.3675 557.25 54.6875 557.25 C54.6875 558.57 54.6875 559.89 54.6875 561.25 C54.0275 561.25 53.3675 561.25 52.6875 561.25 C52.56375 561.9925 52.44 562.735 52.3125 563.5 C51.73263299 566.05141485 50.95041261 567.9767573 49.6875 570.25 C49.0275 570.25 48.3675 570.25 47.6875 570.25 C47.6875 571.57 47.6875 572.89 47.6875 574.25 C47.0275 574.25 46.3675 574.25 45.6875 574.25 C45.6875 575.24 45.6875 576.23 45.6875 577.25 C45.0275 577.25 44.3675 577.25 43.6875 577.25 C43.605 578.095625 43.5225 578.94125 43.4375 579.8125 C42.53016147 583.97113491 40.92208727 586.64582699 38.6875 590.25 C38.0275 590.25 37.3675 590.25 36.6875 590.25 C36.6875 591.57 36.6875 592.89 36.6875 594.25 C36.0275 594.25 35.3675 594.25 34.6875 594.25 C34.56375 594.78625 34.44 595.3225 34.3125 595.875 C33.56543984 598.7138286 32.63446636 601.47223202 31.6875 604.25 C31.0275 604.25 30.3675 604.25 29.6875 604.25 C29.584375 604.78625 29.48125 605.3225 29.375 605.875 C28.50657303 608.87502044 27.13129704 611.4879535 25.6875 614.25 C25.0275 614.25 24.3675 614.25 23.6875 614.25 C23.56375 615.1575 23.44 616.065 23.3125 617 C22.76640323 619.83970323 22.11486197 621.77590591 20.6875 624.25 C20.0275 624.25 19.3675 624.25 18.6875 624.25 C18.57535156 624.81203125 18.46320313 625.3740625 18.34765625 625.953125 C17.59692661 628.56513108 16.47582624 630.64471322 15.125 633 C14.66996094 633.79921875 14.21492188 634.5984375 13.74609375 635.421875 C13.39675781 636.02515625 13.04742188 636.6284375 12.6875 637.25 C12.0275 637.25 11.3675 637.25 10.6875 637.25 C10.6875 637.91 10.6875 638.57 10.6875 639.25 C9.6975 639.25 8.7075 639.25 7.6875 639.25 C7.6875 639.91 7.6875 640.57 7.6875 641.25 C2.4075 641.25 -2.8725 641.25 -8.3125 641.25 C-8.3125 640.59 -8.3125 639.93 -8.3125 639.25 C-9.3025 639.25 -10.2925 639.25 -11.3125 639.25 C-11.3125 638.59 -11.3125 637.93 -11.3125 637.25 C-11.9725 637.25 -12.6325 637.25 -13.3125 637.25 C-15.3125 634.25 -15.3125 634.25 -15.3125 630.25 C-15.9725 630.25 -16.6325 630.25 -17.3125 630.25 C-19.3125 627.25 -19.3125 627.25 -19.3125 624.25 C-19.9725 624.25 -20.6325 624.25 -21.3125 624.25 C-24.3125 617.625 -24.3125 617.625 -24.3125 614.25 C-24.9725 614.25 -25.6325 614.25 -26.3125 614.25 C-26.3125 612.93 -26.3125 611.61 -26.3125 610.25 C-26.9725 610.25 -27.6325 610.25 -28.3125 610.25 C-30.3125 607.25 -30.3125 607.25 -30.3125 604.25 C-30.9725 604.25 -31.6325 604.25 -32.3125 604.25 C-32.6425 601.94 -32.9725 599.63 -33.3125 597.25 C-33.9725 597.25 -34.6325 597.25 -35.3125 597.25 C-35.3125 596.26 -35.3125 595.27 -35.3125 594.25 C-35.9725 594.25 -36.6325 594.25 -37.3125 594.25 C-37.3125 592.93 -37.3125 591.61 -37.3125 590.25 C-37.9725 590.25 -38.6325 590.25 -39.3125 590.25 C-40.15634675 588.83957044 -40.98719496 587.42135868 -41.8125 586 C-42.2765625 585.21109375 -42.740625 584.4221875 -43.21875 583.609375 C-44.3125 581.25 -44.3125 581.25 -44.3125 577.25 C-44.9725 577.25 -45.6325 577.25 -46.3125 577.25 C-46.3125 576.26 -46.3125 575.27 -46.3125 574.25 C-46.9725 574.25 -47.6325 574.25 -48.3125 574.25 C-48.3125 572.93 -48.3125 571.61 -48.3125 570.25 C-48.9725 570.25 -49.6325 570.25 -50.3125 570.25 C-53.3125 564.625 -53.3125 564.625 -53.3125 561.25 C-53.9725 561.25 -54.6325 561.25 -55.3125 561.25 C-55.3125 559.93 -55.3125 558.61 -55.3125 557.25 C-55.9725 557.25 -56.6325 557.25 -57.3125 557.25 C-57.3125 556.26 -57.3125 555.27 -57.3125 554.25 C-57.9725 554.25 -58.6325 554.25 -59.3125 554.25 C-59.3125 552.93 -59.3125 551.61 -59.3125 550.25 C-59.9725 550.25 -60.6325 550.25 -61.3125 550.25 C-61.6425 548.6 -61.9725 546.95 -62.3125 545.25 C-62.9725 545.25 -63.6325 545.25 -64.3125 545.25 C-64.3125 543.93 -64.3125 542.61 -64.3125 541.25 C-64.9725 541.25 -65.6325 541.25 -66.3125 541.25 C-66.3125 539.93 -66.3125 538.61 -66.3125 537.25 C-66.9725 537.25 -67.6325 537.25 -68.3125 537.25 C-68.3125 536.26 -68.3125 535.27 -68.3125 534.25 C-68.9725 534.25 -69.6325 534.25 -70.3125 534.25 C-70.3125 532.93 -70.3125 531.61 -70.3125 530.25 C-70.9725 530.25 -71.6325 530.25 -72.3125 530.25 C-72.6425 528.6 -72.9725 526.95 -73.3125 525.25 C-73.9725 525.25 -74.6325 525.25 -75.3125 525.25 C-75.3125 523.93 -75.3125 522.61 -75.3125 521.25 C-75.9725 521.25 -76.6325 521.25 -77.3125 521.25 C-79.23097864 518.37228205 -80.81329488 515.36373372 -82.3125 512.25 C-83.6325 512.25 -84.9525 512.25 -86.3125 512.25 C-86.3125 511.59 -86.3125 510.93 -86.3125 510.25 C-87.50875 510.20875 -88.705 510.1675 -89.9375 510.125 C-98.20166979 509.24471482 -105.99612696 504.98947956 -113.3125 501.25 C-113.3125 500.59 -113.3125 499.93 -113.3125 499.25 C-115.6225 498.92 -117.9325 498.59 -120.3125 498.25 C-120.3125 497.59 -120.3125 496.93 -120.3125 496.25 C-121.6325 496.25 -122.9525 496.25 -124.3125 496.25 C-124.3125 495.59 -124.3125 494.93 -124.3125 494.25 C-125.6325 494.25 -126.9525 494.25 -128.3125 494.25 C-128.3125 493.59 -128.3125 492.93 -128.3125 492.25 C-129.3025 492.25 -130.2925 492.25 -131.3125 492.25 C-131.3125 491.59 -131.3125 490.93 -131.3125 490.25 C-132.055 490.12625 -132.7975 490.0025 -133.5625 489.875 C-136.11391485 489.29513299 -138.0392573 488.51291261 -140.3125 487.25 C-140.3125 486.59 -140.3125 485.93 -140.3125 485.25 C-142.2925 484.59 -144.2725 483.93 -146.3125 483.25 C-146.3125 482.59 -146.3125 481.93 -146.3125 481.25 C-146.910625 481.12625 -147.50875 481.0025 -148.125 480.875 C-150.3125 480.25 -150.3125 480.25 -153.3125 478.25 C-153.3125 477.59 -153.3125 476.93 -153.3125 476.25 C-153.951875 476.146875 -154.59125 476.04375 -155.25 475.9375 C-156.2709375 475.5971875 -156.2709375 475.5971875 -157.3125 475.25 C-157.8075 473.765 -157.8075 473.765 -158.3125 472.25 C-161.24164165 471.07917122 -161.24164165 471.07917122 -164.3125 470.25 C-164.9725 469.92 -165.6325 469.59 -166.3125 469.25 C-166.3125 468.59 -166.3125 467.93 -166.3125 467.25 C-166.9725 467.25 -167.6325 467.25 -168.3125 467.25 C-169.3025 465.765 -169.3025 465.765 -170.3125 464.25 C-171.3025 463.92 -172.2925 463.59 -173.3125 463.25 C-173.3125 462.59 -173.3125 461.93 -173.3125 461.25 C-173.951875 460.981875 -174.59125 460.71375 -175.25 460.4375 C-177.3125 459.25 -177.3125 459.25 -178.3125 456.25 C-178.9725 456.25 -179.6325 456.25 -180.3125 456.25 C-180.3125 455.59 -180.3125 454.93 -180.3125 454.25 C-180.9725 454.25 -181.6325 454.25 -182.3125 454.25 C-182.3125 453.59 -182.3125 452.93 -182.3125 452.25 C-182.951875 451.981875 -183.59125 451.71375 -184.25 451.4375 C-186.3125 450.25 -186.3125 450.25 -187.3125 447.25 C-187.9725 447.25 -188.6325 447.25 -189.3125 447.25 C-189.3125 446.59 -189.3125 445.93 -189.3125 445.25 C-189.9725 445.25 -190.6325 445.25 -191.3125 445.25 C-191.3125 444.59 -191.3125 443.93 -191.3125 443.25 C-191.9725 443.25 -192.6325 443.25 -193.3125 443.25 C-193.3125 442.59 -193.3125 441.93 -193.3125 441.25 C-193.951875 440.981875 -194.59125 440.71375 -195.25 440.4375 C-197.3125 439.25 -197.3125 439.25 -198.3125 436.25 C-198.9725 436.25 -199.6325 436.25 -200.3125 436.25 C-200.3125 435.59 -200.3125 434.93 -200.3125 434.25 C-200.9725 434.25 -201.6325 434.25 -202.3125 434.25 C-202.3125 433.26 -202.3125 432.27 -202.3125 431.25 C-202.9725 431.25 -203.6325 431.25 -204.3125 431.25 C-204.3125 430.59 -204.3125 429.93 -204.3125 429.25 C-204.9725 429.25 -205.6325 429.25 -206.3125 429.25 C-206.6425 427.93 -206.9725 426.61 -207.3125 425.25 C-207.9725 425.25 -208.6325 425.25 -209.3125 425.25 C-209.3125 424.26 -209.3125 423.27 -209.3125 422.25 C-209.9725 422.25 -210.6325 422.25 -211.3125 422.25 C-211.3125 421.59 -211.3125 420.93 -211.3125 420.25 C-211.9725 420.25 -212.6325 420.25 -213.3125 420.25 C-216.3125 414.5 -216.3125 414.5 -216.3125 412.25 C-216.9725 412.25 -217.6325 412.25 -218.3125 412.25 C-218.3125 411.26 -218.3125 410.27 -218.3125 409.25 C-218.9725 409.25 -219.6325 409.25 -220.3125 409.25 C-220.3125 408.59 -220.3125 407.93 -220.3125 407.25 C-220.9725 407.25 -221.6325 407.25 -222.3125 407.25 C-222.3125 405.93 -222.3125 404.61 -222.3125 403.25 C-222.9725 403.25 -223.6325 403.25 -224.3125 403.25 C-226.74410605 399.88316085 -227.3125 398.51649636 -227.3125 394.25 C-227.9725 394.25 -228.6325 394.25 -229.3125 394.25 C-231.0390625 391.765625 -231.0390625 391.765625 -232.9375 388.5 C-233.56914063 387.43265625 -234.20078125 386.3653125 -234.8515625 385.265625 C-236.3125 382.25 -236.3125 382.25 -236.3125 378.25 C-236.9725 378.25 -237.6325 378.25 -238.3125 378.25 C-238.3125 376.93 -238.3125 375.61 -238.3125 374.25 C-238.9725 374.25 -239.6325 374.25 -240.3125 374.25 C-240.3125 372.6 -240.3125 370.95 -240.3125 369.25 C-240.9725 369.25 -241.6325 369.25 -242.3125 369.25 C-242.3125 367.93 -242.3125 366.61 -242.3125 365.25 C-242.9725 365.25 -243.6325 365.25 -244.3125 365.25 C-244.6425 362.28 -244.9725 359.31 -245.3125 356.25 C-245.9725 356.25 -246.6325 356.25 -247.3125 356.25 C-247.3125 354.6 -247.3125 352.95 -247.3125 351.25 C-247.9725 351.25 -248.6325 351.25 -249.3125 351.25 C-249.3125 349.27 -249.3125 347.29 -249.3125 345.25 C-249.9725 345.25 -250.6325 345.25 -251.3125 345.25 C-252.16266724 342.25451712 -252.98944586 339.25303537 -253.8125 336.25 C-254.17021484 334.99123047 -254.17021484 334.99123047 -254.53515625 333.70703125 C-255.98114627 328.37752518 -256.5680952 323.77085633 -256.3125 318.25 C-256.9725 318.25 -257.6325 318.25 -258.3125 318.25 C-258.37308594 317.61191406 -258.43367187 316.97382812 -258.49609375 316.31640625 C-258.57988281 315.49011719 -258.66367187 314.66382813 -258.75 313.8125 C-258.83121094 312.98878906 -258.91242187 312.16507813 -258.99609375 311.31640625 C-259.10180815 309.26337975 -259.10180815 309.26337975 -260.3125 308.25 C-260.63696337 305.14957227 -260.82584441 302.0479275 -261.03125 298.9375 C-261.01857799 296.33403248 -261.01857799 296.33403248 -262.3125 295.25 C-262.48540563 292.99707394 -262.58832787 290.73875049 -262.6640625 288.48046875 C-262.68766846 287.78003952 -262.71127441 287.07961029 -262.7355957 286.35795593 C-262.80979855 284.05128879 -262.8746804 281.74450387 -262.9375 279.4375 C-262.95995789 278.65610657 -262.98241577 277.87471313 -263.0055542 277.06964111 C-263.31111012 266.07159923 -263.33651757 255.12119862 -262.9375 244.125 C-262.87296631 242.34065552 -262.87296631 242.34065552 -262.80712891 240.52026367 C-262.45228723 232.38978723 -262.45228723 232.38978723 -261.3125 231.25 C-261.10318103 229.08703727 -260.94452931 226.9190529 -260.8125 224.75 C-260.42361111 218.36111111 -260.42361111 218.36111111 -259.3125 217.25 C-259.08057135 215.73530552 -258.90034762 214.21245438 -258.75 212.6875 C-258.62431641 211.44806641 -258.62431641 211.44806641 -258.49609375 210.18359375 C-258.40521484 209.22646484 -258.40521484 209.22646484 -258.3125 208.25 C-257.6525 208.25 -256.9925 208.25 -256.3125 208.25 C-256.34085938 207.24066406 -256.36921875 206.23132813 -256.3984375 205.19140625 C-256.31402171 201.31979123 -255.78131663 197.95961099 -254.9375 194.1875 C-254.55464844 192.43759766 -254.55464844 192.43759766 -254.1640625 190.65234375 C-253.3625915 187.45013622 -252.40274333 184.36430376 -251.3125 181.25 C-250.6525 181.25 -249.9925 181.25 -249.3125 181.25 C-249.3125 179.27 -249.3125 177.29 -249.3125 175.25 C-248.6525 175.25 -247.9925 175.25 -247.3125 175.25 C-247.19003906 174.56550781 -247.06757812 173.88101563 -246.94140625 173.17578125 C-246.22825403 169.85807311 -245.26396135 166.67563463 -244.25 163.4375 C-243.88777344 162.27605469 -243.52554688 161.11460937 -243.15234375 159.91796875 C-242.87519531 159.03753906 -242.59804688 158.15710938 -242.3125 157.25 C-241.6525 157.25 -240.9925 157.25 -240.3125 157.25 C-240.168125 156.651875 -240.02375 156.05375 -239.875 155.4375 C-239.4252561 153.68849596 -238.88357659 151.96322977 -238.3125 150.25 C-237.6525 150.25 -236.9925 150.25 -236.3125 150.25 C-235.9825 147.94 -235.6525 145.63 -235.3125 143.25 C-234.6525 143.25 -233.9925 143.25 -233.3125 143.25 C-233.3125 141.93 -233.3125 140.61 -233.3125 139.25 C-232.6525 139.25 -231.9925 139.25 -231.3125 139.25 C-231.3125 137.93 -231.3125 136.61 -231.3125 135.25 C-230.6525 135.25 -229.9925 135.25 -229.3125 135.25 C-229.3125 134.26 -229.3125 133.27 -229.3125 132.25 C-228.6525 132.25 -227.9925 132.25 -227.3125 132.25 C-226.3225 129.28 -225.3325 126.31 -224.3125 123.25 C-223.6525 123.25 -222.9925 123.25 -222.3125 123.25 C-222.3125 122.59 -222.3125 121.93 -222.3125 121.25 C-221.6525 121.25 -220.9925 121.25 -220.3125 121.25 C-220.3125 119.93 -220.3125 118.61 -220.3125 117.25 C-219.6525 117.25 -218.9925 117.25 -218.3125 117.25 C-218.3125 116.59 -218.3125 115.93 -218.3125 115.25 C-217.6525 115.25 -216.9925 115.25 -216.3125 115.25 C-215.9825 113.6 -215.6525 111.95 -215.3125 110.25 C-214.6525 110.25 -213.9925 110.25 -213.3125 110.25 C-212.6525 108.6 -211.9925 106.95 -211.3125 105.25 C-210.6525 105.25 -209.9925 105.25 -209.3125 105.25 C-209.3125 104.59 -209.3125 103.93 -209.3125 103.25 C-208.6525 103.25 -207.9925 103.25 -207.3125 103.25 C-207.044375 102.280625 -206.77625 101.31125 -206.5 100.3125 C-206.108125 99.301875 -205.71625 98.29125 -205.3125 97.25 C-204.3225 96.92 -203.3325 96.59 -202.3125 96.25 C-202.3125 95.59 -202.3125 94.93 -202.3125 94.25 C-201.6525 94.25 -200.9925 94.25 -200.3125 94.25 C-200.3125 93.59 -200.3125 92.93 -200.3125 92.25 C-199.6525 92.25 -198.9925 92.25 -198.3125 92.25 C-197.8484375 91.074375 -197.8484375 91.074375 -197.375 89.875 C-196.3125 87.25 -196.3125 87.25 -195.3125 85.25 C-194.6525 85.25 -193.9925 85.25 -193.3125 85.25 C-193.3125 84.59 -193.3125 83.93 -193.3125 83.25 C-192.6525 83.25 -191.9925 83.25 -191.3125 83.25 C-191.3125 82.59 -191.3125 81.93 -191.3125 81.25 C-190.6525 81.25 -189.9925 81.25 -189.3125 81.25 C-189.3125 80.59 -189.3125 79.93 -189.3125 79.25 C-188.6525 79.25 -187.9925 79.25 -187.3125 79.25 C-186.8175 77.765 -186.8175 77.765 -186.3125 76.25 C-185.6525 76.25 -184.9925 76.25 -184.3125 76.25 C-184.3125 75.59 -184.3125 74.93 -184.3125 74.25 C-183.6525 74.25 -182.9925 74.25 -182.3125 74.25 C-182.3125 73.59 -182.3125 72.93 -182.3125 72.25 C-181.6525 72.25 -180.9925 72.25 -180.3125 72.25 C-180.3125 71.59 -180.3125 70.93 -180.3125 70.25 C-179.6525 70.25 -178.9925 70.25 -178.3125 70.25 C-178.3125 69.59 -178.3125 68.93 -178.3125 68.25 C-173.92788462 65.25 -173.92788462 65.25 -171.3125 65.25 C-171.3125 64.59 -171.3125 63.93 -171.3125 63.25 C-170.6525 63.25 -169.9925 63.25 -169.3125 63.25 C-169.085625 62.651875 -168.85875 62.05375 -168.625 61.4375 C-166.95640958 58.65651597 -165.1841168 57.6858084 -162.3125 56.25 C-161.6525 56.25 -160.9925 56.25 -160.3125 56.25 C-160.3125 55.59 -160.3125 54.93 -160.3125 54.25 C-159.6525 54.25 -158.9925 54.25 -158.3125 54.25 C-158.3125 53.59 -158.3125 52.93 -158.3125 52.25 C-156.6625 51.59 -155.0125 50.93 -153.3125 50.25 C-153.3125 49.59 -153.3125 48.93 -153.3125 48.25 C-151.6625 47.92 -150.0125 47.59 -148.3125 47.25 C-148.3125 46.59 -148.3125 45.93 -148.3125 45.25 C-147.6525 45.25 -146.9925 45.25 -146.3125 45.25 C-146.3125 44.59 -146.3125 43.93 -146.3125 43.25 C-144.87955502 42.40885829 -143.44095595 41.57734313 -142 40.75 C-141.19949219 40.2859375 -140.39898438 39.821875 -139.57421875 39.34375 C-137.3125 38.25 -137.3125 38.25 -134.3125 38.25 C-134.3125 37.59 -134.3125 36.93 -134.3125 36.25 C-133.3225 36.25 -132.3325 36.25 -131.3125 36.25 C-131.3125 35.59 -131.3125 34.93 -131.3125 34.25 C-130.3225 34.25 -129.3325 34.25 -128.3125 34.25 C-128.3125 33.59 -128.3125 32.93 -128.3125 32.25 C-126.9925 32.25 -125.6725 32.25 -124.3125 32.25 C-124.3125 31.59 -124.3125 30.93 -124.3125 30.25 C-122.54494474 29.40973604 -120.77332737 28.57801278 -119 27.75 C-118.01386719 27.2859375 -117.02773438 26.821875 -116.01171875 26.34375 C-113.3125 25.25 -113.3125 25.25 -110.3125 25.25 C-110.3125 24.59 -110.3125 23.93 -110.3125 23.25 C-108.9925 23.25 -107.6725 23.25 -106.3125 23.25 C-106.3125 22.59 -106.3125 21.93 -106.3125 21.25 C-105.34828125 20.99605469 -104.3840625 20.74210938 -103.390625 20.48046875 C-102.12734375 20.13628906 -100.8640625 19.79210937 -99.5625 19.4375 C-98.30953125 19.10105469 -97.0565625 18.76460937 -95.765625 18.41796875 C-92.41053767 17.48993681 -92.41053767 17.48993681 -90.3828125 15.76953125 C-87.21797182 13.44665762 -83.70128152 12.73495528 -79.9375 11.75 C-79.14110107 11.53496826 -78.34470215 11.31993652 -77.52416992 11.09838867 C-71.52921197 9.50480743 -65.51005909 8.13669369 -59.42578125 6.92578125 C-56.25300526 6.27613085 -56.25300526 6.27613085 -52.9609375 5.265625 C-48.87024135 4.12688731 -44.81099249 3.37129653 -40.625 2.6875 C-39.89861328 2.56181641 -39.17222656 2.43613281 -38.42382812 2.30664062 C-25.66667862 0.18968532 -12.89740324 0.01019486 0 0 Z M-1.3125 148.25 C-1.3125 148.91 -1.3125 149.57 -1.3125 150.25 C-2.60027344 150.23839844 -3.88804687 150.22679687 -5.21484375 150.21484375 C-6.89322772 150.2054673 -8.57161326 150.19636695 -10.25 150.1875 C-11.10013672 150.17912109 -11.95027344 150.17074219 -12.82617188 150.16210938 C-13.63505859 150.15888672 -14.44394531 150.15566406 -15.27734375 150.15234375 C-16.0262085 150.14710693 -16.77507324 150.14187012 -17.54663086 150.13647461 C-19.33917739 150.05658248 -19.33917739 150.05658248 -20.3125 151.25 C-22.65973966 151.647493 -25.01578548 151.99368723 -27.375 152.3125 C-29.31052734 152.57740234 -29.31052734 152.57740234 -31.28515625 152.84765625 C-32.28417969 152.98042969 -33.28320312 153.11320313 -34.3125 153.25 C-34.3125 153.91 -34.3125 154.57 -34.3125 155.25 C-35.9625 155.25 -37.6125 155.25 -39.3125 155.25 C-39.3125 155.91 -39.3125 156.57 -39.3125 157.25 C-40.055 157.394375 -40.7975 157.53875 -41.5625 157.6875 C-43.83277739 158.15187492 -46.07009479 158.66863569 -48.3125 159.25 C-48.3125 159.91 -48.3125 160.57 -48.3125 161.25 C-49.240625 161.37375 -50.16875 161.4975 -51.125 161.625 C-54.45175235 162.06533082 -54.45175235 162.06533082 -57.3125 164.25 C-57.3125 164.91 -57.3125 165.57 -57.3125 166.25 C-58.6325 166.25 -59.9525 166.25 -61.3125 166.25 C-61.3125 166.91 -61.3125 167.57 -61.3125 168.25 C-61.993125 168.476875 -62.67375 168.70375 -63.375 168.9375 C-67.0113709 170.56226146 -70.34079263 172.57803257 -73.3125 175.25 C-73.3125 175.91 -73.3125 176.57 -73.3125 177.25 C-73.9725 177.25 -74.6325 177.25 -75.3125 177.25 C-75.3125 177.91 -75.3125 178.57 -75.3125 179.25 C-75.9725 179.25 -76.6325 179.25 -77.3125 179.25 C-77.3125 179.91 -77.3125 180.57 -77.3125 181.25 C-79.2925 181.745 -79.2925 181.745 -81.3125 182.25 C-81.6425 183.57 -81.9725 184.89 -82.3125 186.25 C-82.9725 186.25 -83.6325 186.25 -84.3125 186.25 C-84.3125 186.91 -84.3125 187.57 -84.3125 188.25 C-84.9725 188.25 -85.6325 188.25 -86.3125 188.25 C-86.3125 188.91 -86.3125 189.57 -86.3125 190.25 C-86.9725 190.25 -87.6325 190.25 -88.3125 190.25 C-90.133542 192.42458278 -90.133542 192.42458278 -91.9375 195.125 C-92.56914063 196.02992188 -93.20078125 196.93484375 -93.8515625 197.8671875 C-95.48673105 200.06833706 -95.48673105 200.06833706 -95.3125 202.25 C-95.9725 202.25 -96.6325 202.25 -97.3125 202.25 C-97.3125 203.57 -97.3125 204.89 -97.3125 206.25 C-97.9725 206.25 -98.6325 206.25 -99.3125 206.25 C-99.3125 206.91 -99.3125 207.57 -99.3125 208.25 C-99.9725 208.25 -100.6325 208.25 -101.3125 208.25 C-101.6425 210.56 -101.9725 212.87 -102.3125 215.25 C-102.9725 215.25 -103.6325 215.25 -104.3125 215.25 C-105.81071059 218.62097383 -106.3125 220.45442119 -106.3125 224.25 C-106.9725 224.25 -107.6325 224.25 -108.3125 224.25 C-108.3125 225.9 -108.3125 227.55 -108.3125 229.25 C-108.9725 229.25 -109.6325 229.25 -110.3125 229.25 C-110.44527344 230.24902344 -110.57804688 231.24804688 -110.71484375 232.27734375 C-110.89144531 233.56769531 -111.06804687 234.85804688 -111.25 236.1875 C-111.42402344 237.47527344 -111.59804688 238.76304687 -111.77734375 240.08984375 C-112.3125 243.25 -112.3125 243.25 -113.3125 244.25 C-113.58589525 247.23608368 -113.79022752 250.19433843 -113.9375 253.1875 C-113.98181152 254.07671143 -114.02612305 254.96592285 -114.07177734 255.88208008 C-114.33224027 262.09087879 -114.28542934 268.23360365 -113.9375 274.4375 C-113.89447754 275.20892334 -113.85145508 275.98034668 -113.80712891 276.77514648 C-113.85924164 280.31216811 -113.85924164 280.31216811 -112.3125 283.25 C-111.915007 285.59723966 -111.56881277 287.95328548 -111.25 290.3125 C-110.98509766 292.24802734 -110.98509766 292.24802734 -110.71484375 294.22265625 C-110.58207031 295.22167969 -110.44929687 296.22070312 -110.3125 297.25 C-109.6525 297.25 -108.9925 297.25 -108.3125 297.25 C-108.3125 298.9 -108.3125 300.55 -108.3125 302.25 C-107.6525 302.25 -106.9925 302.25 -106.3125 302.25 C-106.0959375 303.36375 -106.0959375 303.36375 -105.875 304.5 C-105.41062508 306.77027739 -104.89386431 309.00759479 -104.3125 311.25 C-103.6525 311.25 -102.9925 311.25 -102.3125 311.25 C-102.126875 312.6421875 -102.126875 312.6421875 -101.9375 314.0625 C-101.49716918 317.38925235 -101.49716918 317.38925235 -99.3125 320.25 C-98.6525 320.25 -97.9925 320.25 -97.3125 320.25 C-97.3125 321.57 -97.3125 322.89 -97.3125 324.25 C-96.6525 324.25 -95.9925 324.25 -95.3125 324.25 C-95.085625 324.930625 -94.85875 325.61125 -94.625 326.3125 C-93.00023854 329.9488709 -90.98446743 333.27829263 -88.3125 336.25 C-87.6525 336.25 -86.9925 336.25 -86.3125 336.25 C-86.3125 336.91 -86.3125 337.57 -86.3125 338.25 C-85.6525 338.25 -84.9925 338.25 -84.3125 338.25 C-84.3125 338.91 -84.3125 339.57 -84.3125 340.25 C-83.6525 340.25 -82.9925 340.25 -82.3125 340.25 C-81.9825 341.57 -81.6525 342.89 -81.3125 344.25 C-80.6525 344.25 -79.9925 344.25 -79.3125 344.25 C-79.3125 344.91 -79.3125 345.57 -79.3125 346.25 C-77.9925 346.58 -76.6725 346.91 -75.3125 347.25 C-75.3125 347.91 -75.3125 348.57 -75.3125 349.25 C-74.6525 349.25 -73.9925 349.25 -73.3125 349.25 C-73.3125 349.91 -73.3125 350.57 -73.3125 351.25 C-71.6625 351.91 -70.0125 352.57 -68.3125 353.25 C-68.3125 353.91 -68.3125 354.57 -68.3125 355.25 C-65.09135843 357.56592022 -65.09135843 357.56592022 -61.3125 358.25 C-61.3125 358.91 -61.3125 359.57 -61.3125 360.25 C-59.9925 360.25 -58.6725 360.25 -57.3125 360.25 C-57.3125 360.91 -57.3125 361.57 -57.3125 362.25 C-53.94566085 364.68160605 -52.57899636 365.25 -48.3125 365.25 C-48.3125 365.91 -48.3125 366.57 -48.3125 367.25 C-44.94152617 368.74821059 -43.10807881 369.25 -39.3125 369.25 C-39.3125 369.91 -39.3125 370.57 -39.3125 371.25 C-37.6625 371.25 -36.0125 371.25 -34.3125 371.25 C-34.3125 371.91 -34.3125 372.57 -34.3125 373.25 C-11.76487108 378.46844687 11.13987108 378.46844687 33.6875 373.25 C33.6875 372.59 33.6875 371.93 33.6875 371.25 C35.3375 371.25 36.9875 371.25 38.6875 371.25 C38.6875 370.59 38.6875 369.93 38.6875 369.25 C39.80125 369.0334375 39.80125 369.0334375 40.9375 368.8125 C43.20777739 368.34812508 45.44509479 367.83136431 47.6875 367.25 C47.6875 366.59 47.6875 365.93 47.6875 365.25 C49.9975 364.92 52.3075 364.59 54.6875 364.25 C54.6875 363.59 54.6875 362.93 54.6875 362.25 C55.3475 362.25 56.0075 362.25 56.6875 362.25 C56.6875 361.59 56.6875 360.93 56.6875 360.25 C58.0075 360.25 59.3275 360.25 60.6875 360.25 C60.6875 359.59 60.6875 358.93 60.6875 358.25 C61.47125 357.940625 62.255 357.63125 63.0625 357.3125 C65.61080128 356.32124962 65.61080128 356.32124962 67.6875 355.25 C67.6875 354.59 67.6875 353.93 67.6875 353.25 C70.1625 352.26 70.1625 352.26 72.6875 351.25 C72.6875 350.59 72.6875 349.93 72.6875 349.25 C73.3475 349.25 74.0075 349.25 74.6875 349.25 C74.6875 348.59 74.6875 347.93 74.6875 347.25 C76.0075 346.92 77.3275 346.59 78.6875 346.25 C78.6875 345.59 78.6875 344.93 78.6875 344.25 C79.3475 344.25 80.0075 344.25 80.6875 344.25 C81.0175 342.93 81.3475 341.61 81.6875 340.25 C82.3475 340.25 83.0075 340.25 83.6875 340.25 C83.6875 339.59 83.6875 338.93 83.6875 338.25 C84.3475 338.25 85.0075 338.25 85.6875 338.25 C85.6875 337.59 85.6875 336.93 85.6875 336.25 C86.3475 336.25 87.0075 336.25 87.6875 336.25 C88.3475 334.6 89.0075 332.95 89.6875 331.25 C90.3475 331.25 91.0075 331.25 91.6875 331.25 C94.00342022 328.02885843 94.00342022 328.02885843 94.6875 324.25 C95.3475 324.25 96.0075 324.25 96.6875 324.25 C96.6875 322.93 96.6875 321.61 96.6875 320.25 C97.3475 320.25 98.0075 320.25 98.6875 320.25 C101.11910605 316.88316085 101.6875 315.51649636 101.6875 311.25 C102.3475 311.25 103.0075 311.25 103.6875 311.25 C105.18571059 307.87902617 105.6875 306.04557881 105.6875 302.25 C106.3475 302.25 107.0075 302.25 107.6875 302.25 C107.6875 300.6 107.6875 298.95 107.6875 297.25 C108.3475 297.25 109.0075 297.25 109.6875 297.25 C109.82027344 296.25097656 109.95304687 295.25195312 110.08984375 294.22265625 C110.26644531 292.93230469 110.44304687 291.64195312 110.625 290.3125 C110.79902344 289.02472656 110.97304687 287.73695313 111.15234375 286.41015625 C111.6875 283.25 111.6875 283.25 112.6875 282.25 C112.96089525 279.26391632 113.16522752 276.30566157 113.3125 273.3125 C113.35681152 272.42328857 113.40112305 271.53407715 113.44677734 270.61791992 C113.70724027 264.40912121 113.66042934 258.26639635 113.3125 252.0625 C113.24796631 250.90536499 113.24796631 250.90536499 113.18212891 249.72485352 C113.23424164 246.18783189 113.23424164 246.18783189 111.6875 243.25 C111.290007 240.90276034 110.94381277 238.54671452 110.625 236.1875 C110.44839844 234.89714844 110.27179688 233.60679687 110.08984375 232.27734375 C109.95707031 231.27832031 109.82429688 230.27929688 109.6875 229.25 C109.0275 229.25 108.3675 229.25 107.6875 229.25 C107.6875 227.6 107.6875 225.95 107.6875 224.25 C107.0275 224.25 106.3675 224.25 105.6875 224.25 C105.543125 223.5075 105.39875 222.765 105.25 222 C104.78562508 219.72972261 104.26886431 217.49240521 103.6875 215.25 C103.0275 215.25 102.3675 215.25 101.6875 215.25 C101.3575 212.94 101.0275 210.63 100.6875 208.25 C100.0275 208.25 99.3675 208.25 98.6875 208.25 C98.6875 207.59 98.6875 206.93 98.6875 206.25 C98.0275 206.25 97.3675 206.25 96.6875 206.25 C96.6875 204.93 96.6875 203.61 96.6875 202.25 C96.0275 202.25 95.3675 202.25 94.6875 202.25 C94.378125 201.46625 94.06875 200.6825 93.75 199.875 C92.75874962 197.32669872 92.75874962 197.32669872 91.6875 195.25 C91.0275 195.25 90.3675 195.25 89.6875 195.25 C88.6975 192.775 88.6975 192.775 87.6875 190.25 C87.0275 190.25 86.3675 190.25 85.6875 190.25 C85.6875 189.59 85.6875 188.93 85.6875 188.25 C85.0275 188.25 84.3675 188.25 83.6875 188.25 C83.6875 187.59 83.6875 186.93 83.6875 186.25 C83.0275 186.25 82.3675 186.25 81.6875 186.25 C81.3575 184.93 81.0275 183.61 80.6875 182.25 C79.3675 181.92 78.0475 181.59 76.6875 181.25 C76.6875 180.59 76.6875 179.93 76.6875 179.25 C76.0275 179.25 75.3675 179.25 74.6875 179.25 C74.6875 178.59 74.6875 177.93 74.6875 177.25 C74.0275 177.25 73.3675 177.25 72.6875 177.25 C72.6875 176.59 72.6875 175.93 72.6875 175.25 C71.20113242 173.8893991 71.20113242 173.8893991 69.3125 172.625 C68.68601562 172.17898438 68.05953125 171.73296875 67.4140625 171.2734375 C65.73527357 170.08003031 65.73527357 170.08003031 63.6875 170.25 C63.6875 169.59 63.6875 168.93 63.6875 168.25 C62.6975 168.25 61.7075 168.25 60.6875 168.25 C60.6875 167.59 60.6875 166.93 60.6875 166.25 C59.3675 166.25 58.0475 166.25 56.6875 166.25 C56.6875 165.59 56.6875 164.93 56.6875 164.25 C53.32066085 161.81839395 51.95399636 161.25 47.6875 161.25 C47.6875 160.59 47.6875 159.93 47.6875 159.25 C44.31652617 157.75178941 42.48307881 157.25 38.6875 157.25 C38.6875 156.59 38.6875 155.93 38.6875 155.25 C37.0375 155.25 35.3875 155.25 33.6875 155.25 C33.6875 154.59 33.6875 153.93 33.6875 153.25 C32.18896484 153.05083984 32.18896484 153.05083984 30.66015625 152.84765625 C29.36980469 152.67105469 28.07945312 152.49445313 26.75 152.3125 C24.81833984 152.05146484 24.81833984 152.05146484 22.84765625 151.78515625 C19.6875 151.25 19.6875 151.25 18.6875 150.25 C17.34482587 150.16368126 15.99775678 150.14293527 14.65234375 150.15234375 C13.84345703 150.15556641 13.03457031 150.15878906 12.20117188 150.16210938 C11.35103516 150.17048828 10.50089844 150.17886719 9.625 150.1875 C8.77099609 150.19201172 7.91699219 150.19652344 7.03710938 150.20117188 C4.92054337 150.21299627 2.80401315 150.23093231 0.6875 150.25 C0.6875 149.59 0.6875 148.93 0.6875 148.25 C0.0275 148.25 -0.6325 148.25 -1.3125 148.25 Z " fill="#00B2FF" transform="translate(1000.3125,697.75)"/>
</svg>
