<?xml version="1.0" encoding="UTF-8"?>
<svg version="1.1" xmlns="http://www.w3.org/2000/svg" width="2000" height="2000">
<path d="M0 0 C1.226548 0.00303635 1.226548 0.00303635 2.47787476 0.00613403 C3.76315567 0.00350555 3.76315567 0.00350555 5.07440186 0.00082397 C7.9211527 -0.00359561 10.76784197 -0.00065618 13.61459351 0.00271606 C15.58375053 0.00204306 17.55290747 0.00107306 19.52206421 -0.00018311 C23.65480335 -0.00166022 27.78752093 0.00049492 31.92025757 0.00515747 C37.23033871 0.01085476 42.54036932 0.00757583 47.85044861 0.00158501 C51.91834904 -0.00202023 55.9862374 -0.00088219 60.05413818 0.0017128 C62.01265468 0.00238217 63.97117226 0.00155329 65.9296875 -0.00076675 C68.6619255 -0.00329267 71.39408047 0.00054645 74.12631226 0.00613403 C74.94401093 0.0041098 75.76170959 0.00208557 76.60418701 0 C82.18783105 0.02126611 82.18783105 0.02126611 83.30209351 1.13552856 C85.29825856 1.36434394 87.30163543 1.53084544 89.30599976 1.67068481 C90.52094116 1.75769653 91.73588257 1.84470825 92.98764038 1.93435669 C94.26703491 2.02136841 95.54642944 2.10838013 96.86459351 2.19802856 C98.78948608 2.33434692 98.78948608 2.33434692 100.75326538 2.47341919 C103.93594365 2.69821803 107.11886209 2.91872674 110.30209351 3.13552856 C110.14740601 3.90235962 109.99271851 4.66919067 109.83334351 5.45925903 C104.7916597 30.857668 102.86249852 62.31319037 111.30209351 87.13552856 C111.62793183 88.59093976 111.93940503 90.04961131 112.23959351 91.51052856 C112.89646798 94.62674106 113.7530289 97.48806287 114.92709351 100.44802856 C116.30209351 104.13552856 116.30209351 104.13552856 116.30209351 108.13552856 C116.96209351 108.13552856 117.62209351 108.13552856 118.30209351 108.13552856 C118.96209351 111.10552856 119.62209351 114.07552856 120.30209351 117.13552856 C120.96209351 117.13552856 121.62209351 117.13552856 122.30209351 117.13552856 C122.63209351 119.11552856 122.96209351 121.09552856 123.30209351 123.13552856 C123.96209351 123.13552856 124.62209351 123.13552856 125.30209351 123.13552856 C127.69751934 127.71707118 129.81039085 132.16318637 131.30209351 137.13552856 C131.96209351 137.13552856 132.62209351 137.13552856 133.30209351 137.13552856 C133.96209351 139.11552856 134.62209351 141.09552856 135.30209351 143.13552856 C135.96209351 143.13552856 136.62209351 143.13552856 137.30209351 143.13552856 C138.69932007 145.11091784 140.00511488 147.09614149 141.30209351 149.13552856 C144.29796571 153.59996557 147.43978375 157.36742149 151.30209351 161.13552856 C152.26706047 162.29671444 153.22502103 163.46374706 154.17709351 164.63552856 C157.16313143 168.18922474 160.43664145 170.58433021 164.30209351 173.13552856 C164.05209351 176.01052856 164.05209351 176.01052856 163.30209351 179.13552856 C160.75494436 181.00343794 159.49340351 181.13552856 156.30209351 181.13552856 C156.30209351 181.79552856 156.30209351 182.45552856 156.30209351 183.13552856 C125.33536693 196.43435792 125.33536693 196.43435792 108.30209351 196.13552856 C108.30209351 196.79552856 108.30209351 197.45552856 108.30209351 198.13552856 C90.19601735 198.15885671 72.08994508 198.17650732 53.98385715 198.18734074 C45.57747967 198.19250387 37.1711115 198.19954691 28.76473999 198.21096802 C21.44041419 198.22091432 14.11609514 198.22738186 6.79176277 198.22961706 C2.91118563 198.23092426 -0.96937219 198.23401069 -4.84994316 198.24125862 C-8.49830206 198.24801799 -12.1466336 198.2501457 -15.79499817 198.24863625 C-17.78079069 198.24904494 -19.76658019 198.25444057 -21.75236511 198.25994873 C-22.92330719 198.25857407 -24.09424927 198.2571994 -25.30067444 198.25578308 C-26.32478644 198.25670487 -27.34889845 198.25762667 -28.40404415 198.25857639 C-30.69790649 198.13552856 -30.69790649 198.13552856 -31.69790649 197.13552856 C-35.52649885 196.50502625 -39.35797712 195.94448143 -43.20181274 195.41677856 C-48.9680474 194.56853747 -54.23266151 193.14648702 -59.69790649 191.13552856 C-61.32405884 190.55738403 -61.32405884 190.55738403 -62.98306274 189.96755981 C-63.89958618 189.6311145 -64.81610962 189.29466919 -65.76040649 188.94802856 C-67.16999634 188.43175903 -67.16999634 188.43175903 -68.60806274 187.90505981 C-69.29771118 187.6511145 -69.98735962 187.39716919 -70.69790649 187.13552856 C-70.69790649 186.47552856 -70.69790649 185.81552856 -70.69790649 185.13552856 C-71.64665649 184.99115356 -72.59540649 184.84677856 -73.57290649 184.69802856 C-76.69790649 184.13552856 -76.69790649 184.13552856 -78.69790649 183.13552856 C-78.69790649 182.47552856 -78.69790649 181.81552856 -78.69790649 181.13552856 C-80.67790649 180.80552856 -82.65790649 180.47552856 -84.69790649 180.13552856 C-85.02790649 179.14552856 -85.35790649 178.15552856 -85.69790649 177.13552856 C-87.67790649 176.80552856 -89.65790649 176.47552856 -91.69790649 176.13552856 C-92.02790649 175.14552856 -92.35790649 174.15552856 -92.69790649 173.13552856 C-94.71299008 172.4022906 -94.71299008 172.4022906 -96.69790649 172.13552856 C-96.69790649 171.47552856 -96.69790649 170.81552856 -96.69790649 170.13552856 C-97.59509399 169.98084106 -97.59509399 169.98084106 -98.51040649 169.82302856 C-101.03181671 169.03058535 -101.89256417 168.01609348 -103.69790649 166.13552856 C-104.33728149 165.82615356 -104.97665649 165.51677856 -105.63540649 165.19802856 C-108.18182139 163.88623907 -109.81862976 162.2832734 -111.69790649 160.13552856 C-111.69790649 159.47552856 -111.69790649 158.81552856 -111.69790649 158.13552856 C-112.68790649 157.80552856 -113.67790649 157.47552856 -114.69790649 157.13552856 C-115.91608373 155.68688536 -117.13008052 154.23403788 -118.30337524 152.74880981 C-119.70133104 151.13156684 -121.14160969 149.88719356 -122.82290649 148.57302856 C-125.60134822 146.21739318 -126.98806862 144.29872863 -128.69790649 141.13552856 C-129.35790649 140.47552856 -130.01790649 139.81552856 -130.69790649 139.13552856 C-130.69790649 138.14552856 -130.69790649 137.15552856 -130.69790649 136.13552856 C-131.68790649 135.80552856 -132.67790649 135.47552856 -133.69790649 135.13552856 C-135.08462524 133.13943481 -135.08462524 133.13943481 -136.38540649 130.69802856 C-136.82239868 129.89494263 -137.25939087 129.09185669 -137.70962524 128.26443481 C-138.69790649 126.13552856 -138.69790649 126.13552856 -138.69790649 124.13552856 C-139.35790649 124.13552856 -140.01790649 124.13552856 -140.69790649 124.13552856 C-141.95455627 121.22952595 -142.69790649 119.33948272 -142.69790649 116.13552856 C-143.35790649 116.13552856 -144.01790649 116.13552856 -144.69790649 116.13552856 C-154.18069093 91.12430102 -154.18069093 91.12430102 -153.69790649 86.13552856 C-154.35790649 86.13552856 -155.01790649 86.13552856 -155.69790649 86.13552856 C-157.69521332 75.97066345 -157.92073055 65.83893324 -157.94790649 55.51052856 C-157.95290161 54.84092102 -157.95789673 54.17131348 -157.96304321 53.48141479 C-157.97490798 51.54063481 -157.96947653 49.59977321 -157.96353149 47.65896606 C-157.96127563 46.5237854 -157.95901978 45.38860474 -157.95669556 44.21902466 C-157.69778985 41.13413874 -157.00759475 38.92203013 -155.69790649 36.13552856 C-155.03790649 36.13552856 -154.37790649 36.13552856 -153.69790649 36.13552856 C-153.47103149 35.53740356 -153.24415649 34.93927856 -153.01040649 34.32302856 C-150.26474349 29.74692356 -144.96340358 28.37327215 -140.13540649 26.69802856 C-138.90306274 26.26877075 -137.67071899 25.83951294 -136.40103149 25.39724731 C-132.07758044 23.92417274 -127.75212398 22.45951591 -123.41275024 21.03396606 C-121.77481499 20.49191555 -120.14060585 19.93813048 -118.51431274 19.36209106 C-113.60042798 17.63433574 -108.61195128 16.25555594 -103.57290649 14.94802856 C-102.90356079 14.76884888 -102.23421509 14.58966919 -101.54458618 14.40505981 C-97.17480414 13.30129642 -93.19523343 12.96614872 -88.69790649 13.13552856 C-88.69790649 12.47552856 -88.69790649 11.81552856 -88.69790649 11.13552856 C-88.09728394 11.04988647 -87.49666138 10.96424438 -86.87783813 10.87600708 C-84.17138991 10.48764841 -81.46590813 10.09292527 -78.76040649 9.69802856 C-77.34211548 9.49596802 -77.34211548 9.49596802 -75.89517212 9.28982544 C-74.54649048 9.09163208 -74.54649048 9.09163208 -73.17056274 8.88943481 C-71.92158203 8.70876465 -71.92158203 8.70876465 -70.64736938 8.52444458 C-68.70103291 8.32368863 -68.70103291 8.32368863 -67.69790649 7.13552856 C-64.92626168 6.7789602 -62.16560289 6.47042028 -59.38540649 6.19802856 C-54.24556134 5.69239795 -49.18688848 5.06228592 -44.10415649 4.13552856 C-36.61338699 2.84908983 -29.08698822 2.4787748 -21.51040649 2.07302856 C-19.3898953 1.95729432 -17.26957055 1.8396209 -15.14949036 1.7162323 C-13.25550753 1.60621423 -11.36111253 1.50336065 -9.46670532 1.40090942 C-6.08856497 1.07712505 -3.6812098 0.01402041 0 0 Z " fill="#00B2FF" transform="translate(871.6979064941406,956.8644714355469)"/>
<path d="M0 0 C12.87 0 25.74 0 39 0 C39 0.66 39 1.32 39 2 C40.11375 1.95875 41.2275 1.9175 42.375 1.875 C53.16775484 1.89403484 63.25180116 5.71079251 73 10 C73.99 10.33 74.98 10.66 76 11 C76 11.66 76 12.32 76 13 C76.763125 13.144375 77.52625 13.28875 78.3125 13.4375 C81 14 81 14 84 15 C84 15.66 84 16.32 84 17 C84.598125 17.144375 85.19625 17.28875 85.8125 17.4375 C87.56150404 17.8872439 89.28677023 18.42892341 91 19 C91.33 19.66 91.66 20.32 92 21 C94.01669827 22.13350534 94.01669827 22.13350534 96 23 C96 23.66 96 24.32 96 25 C96.763125 25.103125 97.52625 25.20625 98.3125 25.3125 C101.34610838 26.08853935 101.96226777 26.7177399 104 29 C104.969375 29.804375 105.93875 30.60875 106.9375 31.4375 C109.44508699 33.53568504 111.81890333 35.56723833 114 38 C114 38.66 114 39.32 114 40 C114.99 40.33 115.98 40.66 117 41 C122 46.46511628 122 46.46511628 122 49 C122.66 49 123.32 49 124 49 C126 52 126 52 126 55 C126.99 55.33 127.98 55.66 129 56 C129 56.99 129 57.98 129 59 C129.99 59.33 130.98 59.66 132 60 C133.5 62.51171875 133.5 62.51171875 135 65.6875 C135.7425 67.24017578 135.7425 67.24017578 136.5 68.82421875 C136.995 69.87222656 137.49 70.92023438 138 72 C138.556875 73.03769531 139.11375 74.07539062 139.6875 75.14453125 C141 78 141 78 141 82 C141.66 82 142.32 82 143 82 C144.19287411 85.87684087 145 88.91621923 145 93 C145.66 93 146.32 93 147 93 C147.13277344 93.78246094 147.26554687 94.56492187 147.40234375 95.37109375 C147.57894531 96.38300781 147.75554687 97.39492188 147.9375 98.4375 C148.11152344 99.44683594 148.28554687 100.45617187 148.46484375 101.49609375 C148.74751097 103.9287438 148.74751097 103.9287438 150 105 C150.98715269 110.34714957 151.14662989 115.54215733 151.1328125 120.96875 C151.13424759 122.22745911 151.13424759 122.22745911 151.13571167 123.51159668 C151.13638872 125.27644934 151.13456773 127.04130455 151.13037109 128.80615234 C151.12501611 131.49191943 151.13033227 134.1775193 151.13671875 136.86328125 C151.13605788 138.58593787 151.13477655 140.30859438 151.1328125 142.03125 C151.13483673 142.82623901 151.13686096 143.62122803 151.13894653 144.44030762 C151.10905656 151.62497891 150.0449656 158.09824109 148 165 C147.64628502 166.66246041 147.30404678 168.32774271 147 170 C146.34 170 145.68 170 145 170 C144.855625 171.258125 144.71125 172.51625 144.5625 173.8125 C144.26251314 176.42667123 143.84186703 178.47439892 143 181 C142.34 181 141.68 181 141 181 C140.7834375 182.6396875 140.7834375 182.6396875 140.5625 184.3125 C140 188 140 188 139 191 C138.34 191 137.68 191 137 191 C136.62875 192.546875 136.62875 192.546875 136.25 194.125 C135.1642896 197.93274148 133.44759325 200.86402115 131 204 C130.34 204 129.68 204 129 204 C128.67 205.32 128.34 206.64 128 208 C127.34 208 126.68 208 126 208 C125.67 209.65 125.34 211.3 125 213 C124.01 213.33 123.02 213.66 122 214 C120.78130071 216.50447516 120.78130071 216.50447516 120 219 C119.34 219 118.68 219 118 219 C117.34 220.32 116.68 221.64 116 223 C115.34 223 114.68 223 114 223 C113.67 223.99 113.34 224.98 113 226 C112.34 226 111.68 226 111 226 C110.34 227.32 109.68 228.64 109 230 C108.34 230 107.68 230 107 230 C106.67 230.99 106.34 231.98 106 233 C104.66666667 233.33333333 103.33333333 233.66666667 102 234 C101.67 234.99 101.34 235.98 101 237 C98.96875 238.31640625 98.96875 238.31640625 96.5 239.5625 C93.09741461 241.11619318 93.09741461 241.11619318 91 244 C89.38901347 244.93761121 87.73588285 245.80391401 86.0625 246.625 C85.16660156 247.07101562 84.27070312 247.51703125 83.34765625 247.9765625 C81 249 81 249 79 249 C79 249.66 79 250.32 79 251 C75.38026598 252.31626692 72.90432869 253 69 253 C69 253.66 69 254.32 69 255 C65.12315913 256.19287411 62.08378077 257 58 257 C58 257.66 58 258.32 58 259 C57.21753906 259.13277344 56.43507813 259.26554687 55.62890625 259.40234375 C54.61699219 259.57894531 53.60507813 259.75554687 52.5625 259.9375 C51.55316406 260.11152344 50.54382812 260.28554687 49.50390625 260.46484375 C47.0712562 260.74751097 47.0712562 260.74751097 46 262 C40.65285043 262.98715269 35.45784267 263.14662989 30.03125 263.1328125 C29.1921106 263.13376923 28.35297119 263.13472595 27.48840332 263.13571167 C25.72355066 263.13638872 23.95869545 263.13456773 22.19384766 263.13037109 C19.50808057 263.12501611 16.8224807 263.13033227 14.13671875 263.13671875 C12.41406213 263.13605788 10.69140562 263.13477655 8.96875 263.1328125 C8.17376099 263.13483673 7.37877197 263.13686096 6.55969238 263.13894653 C-3.67109935 263.09638396 -12.76536925 260.41911068 -22.4375 257.375 C-23.16904297 257.14554688 -23.90058594 256.91609375 -24.65429688 256.6796875 C-26.43644602 256.12058189 -28.2182586 255.56040366 -30 255 C-30 254.34 -30 253.68 -30 253 C-30.969375 252.938125 -31.93875 252.87625 -32.9375 252.8125 C-37.12303783 252.22788034 -40.24945422 250.40384938 -43.84765625 248.26953125 C-46.18264468 246.85186826 -46.18264468 246.85186826 -49.5 245.3125 C-52 244 -52 244 -53 242 C-55.01669827 240.86649466 -55.01669827 240.86649466 -57 240 C-57 239.34 -57 238.68 -57 238 C-57.61875 237.855625 -58.2375 237.71125 -58.875 237.5625 C-61 237 -61 237 -63 236 C-63 235.34 -63 234.68 -63 234 C-64.11375 233.62875 -64.11375 233.62875 -65.25 233.25 C-68.23023087 231.89534961 -69.89919252 230.4898459 -72 228 C-72 227.34 -72 226.68 -72 226 C-72.99 225.67 -73.98 225.34 -75 225 C-76.29273589 223.51335373 -77.58190694 222.0220662 -78.80859375 220.48046875 C-80.00694012 218.93703931 -80.00694012 218.93703931 -81.5625 217.4375 C-83.58290934 215.41709066 -85.32299437 213.31311121 -87 211 C-87 210.01 -87 209.02 -87 208 C-87.99 207.67 -88.98 207.34 -90 207 C-90.33 206.01 -90.66 205.02 -91 204 C-91.66 203.67 -92.32 203.34 -93 203 C-94.57548683 200.37418862 -95 199.12900213 -95 196 C-95.66 196 -96.32 196 -97 196 C-98.25664978 193.09399739 -99 191.20395416 -99 188 C-99.66 188 -100.32 188 -101 188 C-101.99 183.05 -101.99 183.05 -103 178 C-103.66 178 -104.32 178 -105 178 C-105.65077296 175.95990245 -106.29539824 173.91784331 -106.9375 171.875 C-107.29714844 170.73804688 -107.65679688 169.60109375 -108.02734375 168.4296875 C-109.71369607 162.48343314 -110.10567724 157.12928015 -110 151 C-110.66 151 -111.32 151 -112 151 C-112 138.13 -112 125.26 -112 112 C-111.34 112 -110.68 112 -110 112 C-110.04125 110.88625 -110.0825 109.7725 -110.125 108.625 C-110.11047666 100.3902642 -107.78382998 92.68337073 -105 85 C-104.34 85 -103.68 85 -103 85 C-102.34 81.7 -101.68 78.4 -101 75 C-100.34 75 -99.68 75 -99 75 C-98.855625 74.236875 -98.71125 73.47375 -98.5625 72.6875 C-98 70 -98 70 -97 67 C-96.34 67 -95.68 67 -95 67 C-94.62875 65.700625 -94.62875 65.700625 -94.25 64.375 C-92.92199976 60.78939936 -91.31369152 58.03672013 -89 55 C-88.34 55 -87.68 55 -87 55 C-86.67 53.68 -86.34 52.36 -86 51 C-85.34 51 -84.68 51 -84 51 C-83.7525 50.278125 -83.505 49.55625 -83.25 48.8125 C-80.74111641 43.16751193 -76.71316028 39.84747778 -72 36 C-71.13375 35.13375 -70.2675 34.2675 -69.375 33.375 C-67.33481806 31.33481806 -65.40952682 29.5786555 -63 28 C-62.34 28 -61.68 28 -61 28 C-60.505 26.515 -60.505 26.515 -60 25 C-59.01 25 -58.02 25 -57 25 C-56.505 23.515 -56.505 23.515 -56 22 C-54.00390625 20.61328125 -54.00390625 20.61328125 -51.5625 19.3125 C-50.35787109 18.65701172 -50.35787109 18.65701172 -49.12890625 17.98828125 C-47 17 -47 17 -45 17 C-45 16.34 -45 15.68 -45 15 C-42.09399739 13.74335022 -40.20395416 13 -37 13 C-37 12.34 -37 11.68 -37 11 C-36.46632813 10.82984375 -35.93265625 10.6596875 -35.3828125 10.484375 C-31.19594008 9.1225549 -27.11805446 7.6535587 -23.0625 5.9375 C-15.45895171 2.86071534 -8.17202933 1.69733225 0 2 C0 1.34 0 0.68 0 0 Z M-6 49 C-6 49.66 -6 50.32 -6 51 C-7.6396875 51.2165625 -7.6396875 51.2165625 -9.3125 51.4375 C-12.93122987 51.88288104 -12.93122987 51.88288104 -16 53 C-16 53.66 -16 54.32 -16 55 C-16.804375 55.020625 -17.60875 55.04125 -18.4375 55.0625 C-22.90264236 56.23753746 -25.45953287 58.46502943 -28.94921875 61.40625 C-31 63 -31 63 -34 64 C-36.2085766 65.87508162 -36.2085766 65.87508162 -38 68 C-38 68.66 -38 69.32 -38 70 C-39.98 70.99 -39.98 70.99 -42 72 C-42 72.66 -42 73.32 -42 74 C-42.59039063 74.2371875 -43.18078125 74.474375 -43.7890625 74.71875 C-51.22253151 79.02648469 -57.19359221 91.56608996 -60.375 99.375 C-61.15441368 102.19880762 -61.15441368 102.19880762 -61 106 C-61.66 106 -62.32 106 -63 106 C-63.33 108.97 -63.66 111.94 -64 115 C-50.14 115 -36.28 115 -22 115 C-22 114.01 -22 113.02 -22 112 C-21.34 112 -20.68 112 -20 112 C-19.731875 110.865625 -19.46375 109.73125 -19.1875 108.5625 C-18.5996875 106.7990625 -18.5996875 106.7990625 -18 105 C-17.01 104.67 -16.02 104.34 -15 104 C-14.26676204 101.98491642 -14.26676204 101.98491642 -14 100 C-13.34 100 -12.68 100 -12 100 C-12 99.34 -12 98.68 -12 98 C-10.35 97.34 -8.7 96.68 -7 96 C-7 95.34 -7 94.68 -7 94 C-2 92.33333333 3 90.66666667 8 89 C8 88.34 8 87.68 8 87 C15.59 87 23.18 87 31 87 C31 87.66 31 88.32 31 89 C31.58007812 89.19335938 32.16015625 89.38671875 32.7578125 89.5859375 C39.37890625 91.79296875 39.37890625 91.79296875 46 94 C46 94.66 46 95.32 46 96 C47.65 96.66 49.3 97.32 51 98 C51 98.66 51 99.32 51 100 C51.66 100 52.32 100 53 100 C53.103125 100.598125 53.20625 101.19625 53.3125 101.8125 C54.09701691 104.30869017 55.09889308 105.25731865 57 107 C57.33 107.66 57.66 108.32 58 109 C58.66 109 59.32 109 60 109 C60.33 110.98 60.66 112.96 61 115 C74.86 115 88.72 115 103 115 C102.29015544 106.78118773 102.29015544 106.78118773 101 102 C100.34 102 99.68 102 99 102 C98.01 97.545 98.01 97.545 97 93 C96.34 93 95.68 93 95 93 C94.9175 92.484375 94.835 91.96875 94.75 91.4375 C93.67859775 87.95544268 91.86476395 85.12799115 90 82 C89.34 82 88.68 82 88 82 C87.7525 81.278125 87.505 80.55625 87.25 79.8125 C84.6759156 74.02081011 80.10786373 69.66105504 75 66 C74.34 66 73.68 66 73 66 C73 65.34 73 64.68 73 64 C71.28198718 62.63362347 71.28198718 62.63362347 69.125 61.375 C68.04605469 60.70597656 68.04605469 60.70597656 66.9453125 60.0234375 C65.07135238 58.84480002 65.07135238 58.84480002 63 59 C63 58.34 63 57.68 63 57 C60.69 56.34 58.38 55.68 56 55 C56 54.34 56 53.68 56 53 C52.12315913 51.80712589 49.08378077 51 45 51 C45 50.34 45 49.68 45 49 C28.01740866 45.29405316 10.98536013 45.25573224 -6 49 Z M-64 149 C-63.67 151.64 -63.34 154.28 -63 157 C-62.34 157 -61.68 157 -61 157 C-60.855625 158.0725 -60.71125 159.145 -60.5625 160.25 C-60.16250558 162.91662949 -59.72408076 165.41399729 -59 168 C-58.34 168 -57.68 168 -57 168 C-56.34 170.31 -55.68 172.62 -55 175 C-54.34 175 -53.68 175 -53 175 C-52.62294922 176.0828125 -52.62294922 176.0828125 -52.23828125 177.1875 C-48.22080854 186.31235915 -39.76644463 193.95943196 -32 200 C-31.34 200 -30.68 200 -30 200 C-30 200.66 -30 201.32 -30 202 C-28.31792068 203.36819481 -28.31792068 203.36819481 -26.1875 204.625 C-25.12595703 205.29402344 -25.12595703 205.29402344 -24.04296875 205.9765625 C-21.93378793 207.22394864 -21.93378793 207.22394864 -19 207 C-19 207.66 -19 208.32 -19 209 C-16.03 209.66 -13.06 210.32 -10 211 C-10 211.66 -10 212.32 -10 213 C-8.58461283 213.33872513 -7.16762037 213.67074624 -5.75 214 C-4.96109375 214.185625 -4.1721875 214.37125 -3.359375 214.5625 C-0.74443998 215.12154828 -0.74443998 215.12154828 3 215 C3 201.14 3 187.28 3 173 C1.02 172.67 -0.96 172.34 -3 172 C-3.495 170.515 -3.495 170.515 -4 169 C-4.99 168.67 -5.98 168.34 -7 168 C-8 167 -9 166 -10 165 C-10.66 165 -11.32 165 -12 165 C-12 164.34 -12 163.68 -12 163 C-12.66 163 -13.32 163 -14 163 C-14.66 161.35 -15.32 159.7 -16 158 C-16.66 158 -17.32 158 -18 158 C-18.144375 157.401875 -18.28875 156.80375 -18.4375 156.1875 C-18.8872439 154.43849596 -19.42892341 152.71322977 -20 151 C-20.66 151 -21.32 151 -22 151 C-22 150.34 -22 149.68 -22 149 C-35.86 149 -49.72 149 -64 149 Z M61 149 C60.67 150.65 60.34 152.3 60 154 C59.34 154 58.68 154 58 154 C56.6559907 155.99284138 55.32458708 157.99419671 54 160 C50.46299296 163.80908451 46.69175531 167.65412234 42 170 C42 170.66 42 171.32 42 172 C40.35 172.33 38.7 172.66 37 173 C37 186.86 37 200.72 37 215 C43.14428641 214.31788362 43.14428641 214.31788362 49 213 C49 212.34 49 211.68 49 211 C51.97 210.34 54.94 209.68 58 209 C58 208.34 58 207.68 58 207 C58.70125 206.9175 59.4025 206.835 60.125 206.75 C63.6903452 205.81990995 66.09015572 204.23313631 69 202 C69 201.34 69 200.68 69 200 C69.886875 199.79375 70.77375 199.5875 71.6875 199.375 C75.12857976 197.94662727 76.50575887 196.51637245 78.70703125 193.57421875 C80.06577 191.91992354 81.47747093 190.77941642 83.1875 189.5 C86.2716366 186.75854525 87.07858842 184.96206979 88 181 C88.66 181 89.32 181 90 181 C91.36819481 179.31792068 91.36819481 179.31792068 92.625 177.1875 C93.29402344 176.12595703 93.29402344 176.12595703 93.9765625 175.04296875 C95.22394864 172.93378793 95.22394864 172.93378793 95 170 C95.66 170 96.32 170 97 170 C97.66 167.03 98.32 164.06 99 161 C99.66 161 100.32 161 101 161 C101.33 159.7625 101.66 158.525 102 157.25 C102.2784375 156.20585938 102.2784375 156.20585938 102.5625 155.140625 C103.13349349 152.71098139 103.13349349 152.71098139 103 149 C89.14 149 75.28 149 61 149 Z " fill="#00B3FF" transform="translate(1130,870)"/>
<path d="M0 0 C11.88 0 23.76 0 36 0 C36 0.66 36 1.32 36 2 C36.89203125 2.06058594 37.7840625 2.12117187 38.703125 2.18359375 C39.87359375 2.26738281 41.0440625 2.35117187 42.25 2.4375 C43.41015625 2.51871094 44.5703125 2.59992187 45.765625 2.68359375 C48.30977376 2.93247787 50.55953248 3.28114942 53 4 C53 4.66 53 5.32 53 6 C54.258125 6.144375 55.51625 6.28875 56.8125 6.4375 C59.42667123 6.73748686 61.47439892 7.15813297 64 8 C64 8.66 64 9.32 64 10 C66.64 10.66 69.28 11.32 72 12 C72 12.66 72 13.32 72 14 C72.515625 14.0825 73.03125 14.165 73.5625 14.25 C77.08521334 15.3339118 79.86669392 17.04907357 83 19 C83.33 19.66 83.66 20.32 84 21 C86.01669827 22.13350534 86.01669827 22.13350534 88 23 C88 23.66 88 24.32 88 25 C89.98 25.99 89.98 25.99 92 27 C92 27.66 92 28.32 92 29 C92.5775 29.226875 93.155 29.45375 93.75 29.6875 C96.56913681 31.33199647 98.01254869 33.4355467 100 36 C100.99 36.66 101.98 37.32 103 38 C103 38.66 103 39.32 103 40 C103.99 40.33 104.98 40.66 106 41 C106.33 41.99 106.66 42.98 107 44 C107.99580718 45.00417531 108.99634373 46.00366969 110 47 C110.94505127 48.46948816 111.83965975 49.9723599 112.6875 51.5 C113.12449219 52.2734375 113.56148437 53.046875 114.01171875 53.84375 C115 56 115 56 115 59 C115.66 59 116.32 59 117 59 C120.08467498 64.39459439 121.55643705 68.79011871 122 75 C122.66 75 123.32 75 124 75 C124.20496094 76.14339844 124.40992188 77.28679687 124.62109375 78.46484375 C124.8930231 79.95576676 125.16516974 81.44665016 125.4375 82.9375 C125.57220703 83.69224609 125.70691406 84.44699219 125.84570312 85.22460938 C126.24272034 88.91953174 126.24272034 88.91953174 128 92 C128.10091475 94.58189446 128.13971499 97.136465 128.1328125 99.71875 C128.13376923 100.49182495 128.13472595 101.2648999 128.13571167 102.06140137 C128.13639341 103.69897544 128.13453957 105.33655219 128.13037109 106.97412109 C128.12502271 109.48931921 128.13031626 112.00433873 128.13671875 114.51953125 C128.13605797 116.10677123 128.1347768 117.6940111 128.1328125 119.28125 C128.13483673 120.03853394 128.13686096 120.79581787 128.13894653 121.5760498 C128.11495132 126.88504868 128.11495132 126.88504868 127 128 C126.43725235 130.68544346 125.91938977 133.36253387 125.4375 136.0625 C125.29892578 136.82111328 125.16035156 137.57972656 125.01757812 138.36132812 C124.67488173 140.24024975 124.3369927 142.12004701 124 144 C123.34 144 122.68 144 122 144 C121.9175 145.134375 121.835 146.26875 121.75 147.4375 C121.15436286 152.4070696 119.21237727 156.5546652 117 161 C116.34 161 115.68 161 115 161 C114.7525 161.845625 114.505 162.69125 114.25 163.5625 C112.86026373 167.38427474 111.08879162 170.51868063 109 174 C108.34 174 107.68 174 107 174 C106.731875 174.763125 106.46375 175.52625 106.1875 176.3125 C105.04865495 178.88988618 104.18583329 180.26954864 102 182 C101.34 182 100.68 182 100 182 C99.814375 182.70125 99.62875 183.4025 99.4375 184.125 C97.72504937 187.54990127 95.68941167 189.20787901 92.7421875 191.57421875 C90.83607987 193.07294912 90.83607987 193.07294912 88.75 195.375 C87 197 87 197 84 197 C83.67 197.99 83.34 198.98 83 200 C80.70703125 201.7890625 80.70703125 201.7890625 77.8125 203.625 C76.87019531 204.23601562 75.92789063 204.84703125 74.95703125 205.4765625 C71.89747738 207.05281879 69.40217998 207.62702027 66 208 C66 208.66 66 209.32 66 210 C62.62902617 211.49821059 60.79557881 212 57 212 C57 212.66 57 213.32 57 214 C54.81426438 214.65177969 52.6263177 215.29614674 50.4375 215.9375 C49.21933594 216.29714844 48.00117187 216.65679688 46.74609375 217.02734375 C40.4188529 218.67018314 34.27432517 219.15793999 27.7578125 219.16796875 C26.99000458 219.17129715 26.22219666 219.17462555 25.43112183 219.17805481 C23.81590366 219.1830891 22.20067522 219.18546422 20.58544922 219.18530273 C18.13881995 219.18748766 15.69264342 219.20567628 13.24609375 219.22460938 C5.58508029 219.25257445 -1.58308268 219.13993788 -9 217 C-10.15628906 216.71898437 -11.31257812 216.43796875 -12.50390625 216.1484375 C-13.51324219 215.89320313 -14.52257812 215.63796875 -15.5625 215.375 C-16.59503906 215.11460937 -17.62757813 214.85421875 -18.69140625 214.5859375 C-19.45324219 214.39257812 -20.21507812 214.19921875 -21 214 C-21 213.34 -21 212.68 -21 212 C-22.3921875 211.7834375 -22.3921875 211.7834375 -23.8125 211.5625 C-27 211 -27 211 -30 210 C-30 209.34 -30 208.68 -30 208 C-31.423125 207.7834375 -31.423125 207.7834375 -32.875 207.5625 C-36 207 -36 207 -38 206 C-38 205.34 -38 204.68 -38 204 C-38.9075 203.731875 -39.815 203.46375 -40.75 203.1875 C-43.72991834 202.09868368 -45.68590359 201.13608899 -48 199 C-48 198.34 -48 197.68 -48 197 C-49.65 196.34 -51.3 195.68 -53 195 C-53 194.34 -53 193.68 -53 193 C-54.32 192.34 -55.64 191.68 -57 191 C-57 190.34 -57 189.68 -57 189 C-57.86625 188.6596875 -57.86625 188.6596875 -58.75 188.3125 C-61.59591381 186.65238361 -62.99841921 184.60812043 -65 182 C-66.175625 180.88625 -66.175625 180.88625 -67.375 179.75 C-76 170.71428571 -76 170.71428571 -76 166 C-76.66 166 -77.32 166 -78 166 C-79.25664978 163.09399739 -80 161.20395416 -80 158 C-80.66 158 -81.32 158 -82 158 C-82.84124316 155.75267898 -83.67314832 153.50261215 -84.5 151.25 C-84.85771484 150.29867187 -84.85771484 150.29867187 -85.22265625 149.328125 C-86.44801758 145.96713393 -87 143.63128413 -87 140 C-87.66 140 -88.32 140 -89 140 C-91.03739615 130.61591112 -91.31057507 121.49646454 -91.26074219 111.94580078 C-91.25001748 109.50397925 -91.26069682 107.06289313 -91.2734375 104.62109375 C-91.28007863 95.88933792 -90.86181608 87.57538065 -89 79 C-88.34 79 -87.68 79 -87 79 C-86.9175 77.88625 -86.835 76.7725 -86.75 75.625 C-86.12080974 70.3848781 -84.11369129 65.79758766 -82 61 C-81.34 61 -80.68 61 -80 61 C-79.34 58.36 -78.68 55.72 -78 53 C-77.34 53 -76.68 53 -76 53 C-75.60941406 51.91912109 -75.60941406 51.91912109 -75.2109375 50.81640625 C-73.95342975 47.89168661 -72.46230708 45.53299712 -70.625 42.9375 C-70.03976562 42.10089844 -69.45453125 41.26429688 -68.8515625 40.40234375 C-67.03789993 38.04917396 -65.21834412 35.97642594 -63 34 C-62.34 34 -61.68 34 -61 34 C-60.79375 33.443125 -60.5875 32.88625 -60.375 32.3125 C-58.48105476 29.12722845 -55.88323975 27.29482348 -53 25 C-52.46375 24.4225 -51.9275 23.845 -51.375 23.25 C-50 22 -50 22 -47.875 21.5 C-47.25625 21.335 -46.6375 21.17 -46 21 C-45.505 19.515 -45.505 19.515 -45 18 C-43.14453125 16.71875 -43.14453125 16.71875 -40.8125 15.5 C-40.00167969 15.07332031 -39.19085937 14.64664063 -38.35546875 14.20703125 C-37.18951172 13.60955078 -37.18951172 13.60955078 -36 13 C-34.88625 12.401875 -33.7725 11.80375 -32.625 11.1875 C-30 10 -30 10 -27 10 C-27 9.34 -27 8.68 -27 8 C-26.00419922 7.70996094 -26.00419922 7.70996094 -24.98828125 7.4140625 C-19.53043679 5.81351037 -19.53043679 5.81351037 -14.1875 3.875 C-9.45725943 1.98290377 -5.06243799 1.90073651 0 2 C0 1.34 0 0.68 0 0 Z " fill="#00B2FF" transform="translate(892,696)"/>
</svg>
