<svg width="129" height="129" viewBox="0 0 129 129" fill="none" xmlns="http://www.w3.org/2000/svg">
<rect width="129" height="129" rx="5" fill="white"/>
<path d="M2.03516 126.9H127" stroke="#7DCDCB" stroke-miterlimit="10"/>
<path d="M2.03516 2.63867H127" stroke="#7DCDCB" stroke-miterlimit="10"/>
<path d="M2.03516 83.4275H127" stroke="#7DCDCB" stroke-miterlimit="10"/>
<path d="M2.03516 74.6538H127" stroke="#7DCDCB" stroke-miterlimit="10"/>
<path d="M2.03516 52.3904H127" stroke="#7DCDCB" stroke-miterlimit="10"/>
<path d="M2.03516 44.2852H127" stroke="#7DCDCB" stroke-miterlimit="10"/>
<path d="M2.03516 21.6262H127" stroke="#7DCDCB" stroke-miterlimit="10"/>
<path d="M2.03516 17.3806H127" stroke="#7DCDCB" stroke-miterlimit="10"/>
<path d="M2.03516 111.433H127" stroke="#7DCDCB" stroke-miterlimit="10"/>
<path d="M2.03516 105.013H127" stroke="#7DCDCB" stroke-miterlimit="10"/>
<path d="M2.03516 97.849L127 92.2102" stroke="#7DCDCB" stroke-miterlimit="10"/>
<path d="M2.03516 86.6658L127 97.8493" stroke="#7DCDCB" stroke-miterlimit="10"/>
<path d="M2.03516 35.5678L127 28.6675" stroke="#7DCDCB" stroke-miterlimit="10"/>
<path d="M2.03516 26.314L127 39.0131" stroke="#7DCDCB" stroke-miterlimit="10"/>
<path d="M2.03516 4.6814L127 12.4854" stroke="#7DCDCB" stroke-miterlimit="10"/>
<path d="M2.03516 56.73L127 64.2516" stroke="#7DCDCB" stroke-miterlimit="10"/>
<path d="M2.03516 64.2515L127 71.773" stroke="#7DCDCB" stroke-miterlimit="10"/>
<path d="M2.03516 120.687L127 117.854" stroke="#7DCDCB" stroke-miterlimit="10"/>
<path d="M2.03516 115.886L127 121.261" stroke="#7DCDCB" stroke-miterlimit="10"/>
<path d="M22 103.38L23.8353 94.763L47.8604 91.9489L66.8514 70.6418L73.9218 35.0893L58.9072 31.1128L59.7811 52.3325" stroke="#253B7A" stroke-width="3" stroke-linecap="round" stroke-linejoin="round"/>
<path d="M71.1164 109L64.6229 104.351L93.6819 79.8449L69.1762 79.941L95.4211 37.624L93.9791 53.9758L108.312 53.6873" stroke="#253B7A" stroke-width="3" stroke-linecap="round" stroke-linejoin="round"/>
<path d="M42.739 59.3769C44.2642 59.3769 45.5007 58.1405 45.5007 56.6152C45.5007 55.09 44.2642 53.8535 42.739 53.8535C41.2137 53.8535 39.9773 55.09 39.9773 56.6152C39.9773 58.1405 41.2137 59.3769 42.739 59.3769Z" stroke="#007C89" stroke-width="2" stroke-linecap="round" stroke-linejoin="round"/>
<path d="M44.2072 58.9484C44.2072 58.9484 46.0076 62.4529 51.6795 62.4529C63.0148 62.4529 83.2469 51.0478 84.3743 38.4104" stroke="#007C89" stroke-width="2" stroke-linecap="round" stroke-linejoin="round"/>
<path d="M76.5611 23.0201C76.5611 23.0201 74.6996 22.251 74.7433 25.6944C74.7869 29.1378 79.4189 37.7463 83.7974 38.3843C87.9924 38.996 96.8107 31.9869 97.0204 27.4336C97.1428 24.7855 94.652 25.1001 94.652 25.1001" stroke="#007C89" stroke-width="2" stroke-linecap="round" stroke-linejoin="round"/>
<path d="M85.4492 31.987C89.0355 31.987 91.9427 29.0798 91.9427 25.4935C91.9427 21.9072 89.0355 19 85.4492 19C81.863 19 78.9557 21.9072 78.9557 25.4935C78.9557 29.0798 81.863 31.987 85.4492 31.987Z" stroke="#253B7A" stroke-width="4" stroke-linecap="round" stroke-linejoin="round"/>
<rect x="1" y="1" width="127" height="127" rx="4" stroke="#007C89" stroke-width="2"/>
</svg>
