<?xml version="1.0" encoding="UTF-8"?>
<svg version="1.1" xmlns="http://www.w3.org/2000/svg" width="2000" height="2000">
<path d="M0 0 C3.11154806 1.57053469 5.59347378 3.80702092 8.18359375 6.1015625 C9.35191931 7.11437269 10.52119803 8.12608438 11.69140625 9.13671875 C12.26536133 9.63445801 12.83931641 10.13219727 13.43066406 10.64501953 C15.59634088 12.49955082 17.81984068 14.27375065 20.05859375 16.0390625 C23.93615348 19.11220141 27.72735484 22.27206204 31.49609375 25.4765625 C38.72235193 31.61297251 45.98324743 37.68552085 53.5 43.46484375 C54.29188721 44.07481201 55.08377441 44.68478027 55.8996582 45.31323242 C57.46354071 46.5147925 59.03089964 47.71184637 60.60229492 48.90356445 C64.87890636 52.18679532 68.76042651 55.61453155 72.51708984 59.48095703 C74.4735898 61.45852794 76.55929161 63.19667862 78.74609375 64.9140625 C79.596875 65.58308594 80.44765625 66.25210938 81.32421875 66.94140625 C84.19665425 69.14497462 87.09265654 71.31402831 89.99609375 73.4765625 C103.80274881 83.77817755 103.80274881 83.77817755 109.58203125 89.56640625 C111.87182961 91.85259294 114.2036146 93.85540118 116.74609375 95.8515625 C117.61878906 96.54121094 118.49148438 97.23085938 119.390625 97.94140625 C120.27105469 98.63363281 121.15148438 99.32585937 122.05859375 100.0390625 C125.40404443 102.69087907 128.73648443 105.35806199 132.05859375 108.0390625 C132.85426758 108.67908203 132.85426758 108.67908203 133.66601562 109.33203125 C135.34404253 110.68609226 137.0145603 112.04893819 138.68359375 113.4140625 C139.70710938 114.24679687 140.730625 115.07953125 141.78515625 115.9375 C142.91050781 116.97777344 142.91050781 116.97777344 144.05859375 118.0390625 C144.05859375 118.6990625 144.05859375 119.3590625 144.05859375 120.0390625 C144.59613281 120.27753906 145.13367187 120.51601563 145.6875 120.76171875 C154.35772049 125.43249651 162.05095581 132.78670179 169.50439453 139.19287109 C173.13121952 142.2991847 176.84496247 145.19371458 180.765625 147.91796875 C181.19230469 148.28792969 181.61898438 148.65789062 182.05859375 149.0390625 C182.05859375 149.6990625 182.05859375 150.3590625 182.05859375 151.0390625 C182.65671875 151.3278125 183.25484375 151.6165625 183.87109375 151.9140625 C186.05859375 153.0390625 186.05859375 153.0390625 189.05859375 155.0390625 C189.43891048 157.87091255 189.43891048 157.87091255 189.4462738 161.56570435 C189.45435211 162.5827307 189.45435211 162.5827307 189.46259362 163.62030303 C189.47695715 165.90346347 189.46974906 168.18605093 189.46264648 170.46923828 C189.46834598 172.10185719 189.4753086 173.7344721 189.48344421 175.36708069 C189.50144488 179.8116296 189.50019343 184.25598181 189.49450183 188.70055628 C189.49141756 192.41051217 189.49749446 196.12042986 189.50354058 199.83038032 C189.51760907 208.58714763 189.51600741 217.34381745 189.50463867 226.10058594 C189.49317612 235.12896457 189.50719638 244.15704551 189.53403515 253.18538487 C189.55621344 260.93667508 189.56282411 268.68787202 189.55695873 276.4391917 C189.5535905 281.06841135 189.55599438 285.69744052 189.57320976 290.32663345 C189.58870896 294.68515658 189.58469049 299.04324078 189.56590462 303.40174675 C189.56222584 304.99804413 189.56530644 306.59437421 189.57579041 308.1906414 C189.66739198 323.29641222 189.66739198 323.29641222 185.05859375 330.0390625 C182.33203125 332.31640625 182.33203125 332.31640625 179.43359375 333.9765625 C178.47195313 334.54246094 177.5103125 335.10835937 176.51953125 335.69140625 C172.87631869 337.68649884 170.97559838 338.16327218 166.80685425 338.15931702 C165.13672775 338.16137901 165.13672775 338.16137901 163.43286133 338.16348267 C162.20575439 338.15988739 160.97864746 338.15629211 159.71435547 338.15258789 C157.78271042 338.15280693 157.78271042 338.15280693 155.81204224 338.1530304 C152.27506952 338.15331799 148.73813053 338.14742733 145.20116568 338.14045644 C141.50692508 338.13421665 137.81268377 338.1336186 134.11843872 338.13243103 C127.12030271 338.12931956 120.12218227 338.12110865 113.12405312 338.11108154 C103.66928608 338.09782777 94.21451481 338.09241901 84.75974083 338.08657932 C69.8593468 338.07716865 54.95898563 338.05724849 40.05859375 338.0390625 C40.05859375 296.1290625 40.05859375 254.2190625 40.05859375 211.0390625 C12.99859375 211.0390625 -14.06140625 211.0390625 -41.94140625 211.0390625 C-41.94140625 252.9490625 -41.94140625 294.8590625 -41.94140625 338.0390625 C-74.64060135 338.28088071 -74.64060135 338.28088071 -88.375 338.33203125 C-97.84704141 338.36759157 -107.31876187 338.4093266 -116.79052734 338.49169922 C-123.68974453 338.55167048 -130.5887006 338.59025148 -137.48817122 338.60359347 C-141.13852446 338.61138762 -144.78813096 338.62958804 -148.43824387 338.67344284 C-152.52214847 338.72210743 -156.6047709 338.7229911 -160.68896484 338.72021484 C-161.88730957 338.7417865 -163.0856543 338.76335815 -164.3203125 338.7855835 C-172.32114446 338.72689453 -177.61022445 336.99089458 -183.94140625 332.0390625 C-189.05014745 326.79932794 -191.30480154 321.42078973 -191.38291931 314.1275177 C-191.39394938 313.45636624 -191.40497944 312.78521477 -191.41634375 312.09372538 C-191.44923062 309.8577409 -191.46094601 307.62217559 -191.47241211 305.38598633 C-191.4912231 303.77734066 -191.51116501 302.16870788 -191.53215027 300.56008911 C-191.59507319 295.2888485 -191.62633685 290.01760724 -191.65625 284.74609375 C-191.66839984 282.92675837 -191.68075082 281.10742433 -191.69330025 279.28809166 C-191.75041031 270.73926623 -191.79311369 262.19051779 -191.81813616 253.64153844 C-191.84744463 243.79263779 -191.92638889 233.94576156 -192.04763883 224.09757406 C-192.13828517 216.47184969 -192.18255748 208.84670395 -192.19247919 201.22045153 C-192.19951287 196.67139497 -192.22613925 192.12450451 -192.30186272 187.57602882 C-192.37202147 183.29287812 -192.38429384 179.01330259 -192.35357857 174.72972488 C-192.35209939 173.16520046 -192.37086271 171.60049389 -192.4122467 170.03651619 C-192.72123461 157.65864883 -192.72123461 157.65864883 -188.30296516 152.7005825 C-185.38748649 149.85067689 -182.22757045 147.44565433 -178.94140625 145.0390625 C-177.71995448 143.98621128 -176.50750157 142.92262322 -175.3125 141.83984375 C-169.49793592 136.90791656 -163.61927025 132.24209395 -157.390625 127.83203125 C-155.11120291 126.1633634 -152.9936414 124.40962204 -150.87890625 122.5390625 C-147.94140625 120.0390625 -147.94140625 120.0390625 -145.94140625 120.0390625 C-145.67585937 119.43545898 -145.4103125 118.83185547 -145.13671875 118.20996094 C-143.89412419 115.95318993 -142.83190723 114.87138797 -140.81640625 113.3046875 C-140.19733398 112.81718018 -139.57826172 112.32967285 -138.94042969 111.82739258 C-138.28075195 111.31974365 -137.62107422 110.81209473 -136.94140625 110.2890625 C-136.26368164 109.75756592 -135.58595703 109.22606934 -134.88769531 108.6784668 C-133.52954425 107.61339893 -132.16922689 106.55108704 -130.80664062 105.49169922 C-128.41856158 103.63187326 -126.05310753 101.74473272 -123.69140625 99.8515625 C-122.91410156 99.22894531 -122.13679687 98.60632813 -121.3359375 97.96484375 C-112.18480121 90.60702125 -112.18480121 90.60702125 -103.31640625 82.9140625 C-99.89867124 79.84409702 -96.37302162 77.00986686 -92.7265625 74.21875 C-88.89391185 71.21928427 -85.13653626 68.13171866 -81.37890625 65.0390625 C-80.67056641 64.45753418 -79.96222656 63.87600586 -79.23242188 63.27685547 C-74.98990163 59.77844732 -70.82686679 56.20350776 -66.69897461 52.57080078 C-64.67967809 50.81096381 -62.61124333 49.12976645 -60.50390625 47.4765625 C-57.19311579 44.86196629 -53.92957846 42.20112851 -50.69921875 39.48828125 C-49.94697021 38.85929932 -49.19472168 38.23031738 -48.41967773 37.58227539 C-46.91490844 36.32223358 -45.41427272 35.05723564 -43.91821289 33.78686523 C-40.31019823 30.77430379 -37.32715568 28.77390608 -32.94140625 27.0390625 C-32.63984619 26.42651611 -32.33828613 25.81396973 -32.02758789 25.18286133 C-30.79919561 22.75838108 -29.54900468 21.6090623 -27.44921875 19.90234375 C-26.74949951 19.3287915 -26.04978027 18.75523926 -25.32885742 18.16430664 C-24.58224854 17.56610107 -23.83563965 16.96789551 -23.06640625 16.3515625 C-22.30497314 15.73595459 -21.54354004 15.12034668 -20.7590332 14.48608398 C-18.49311495 12.66195903 -16.21763729 10.85028988 -13.94140625 9.0390625 C-13.31121582 8.52923828 -12.68102539 8.01941406 -12.03173828 7.49414062 C-10.40821902 6.18222425 -8.77230035 4.88844059 -7.12890625 3.6015625 C-5.75798828 2.52068359 -5.75798828 2.52068359 -4.359375 1.41796875 C-1.94140625 0.0390625 -1.94140625 0.0390625 0 0 Z " fill="#00B6FF" transform="translate(1011.94140625,751.9609375)"/>
<path d="M0 0 C6.37965201 4.14575143 12.33036261 8.59266842 17.53515625 14.16455078 C22.7741415 19.45000153 28.92010171 23.89213456 34.796875 28.44189453 C42.17307534 34.15419178 49.35651981 40.00348719 56.171875 46.37939453 C61.29409921 51.165061 66.68124901 55.45048558 72.2890625 59.65283203 C75.37368298 62.0003484 78.32658268 64.45229547 81.296875 66.94189453 C81.30274124 66.1659494 81.30860748 65.39000427 81.31465149 64.59054565 C81.37265218 57.26356004 81.44477062 49.93691163 81.53258991 42.61022758 C81.5772408 38.84385205 81.6165082 35.07758335 81.64331055 31.31103516 C81.66939677 27.67334213 81.70983581 24.03606142 81.76006126 20.39862442 C81.77669423 19.01367462 81.78823072 17.62865355 81.79448891 16.24361801 C81.80416802 14.2977128 81.83395656 12.35193954 81.86450195 10.40625 C81.87560501 9.30038544 81.88670807 8.19452087 81.89814758 7.05514526 C82.36067471 3.4437485 83.40552535 1.04119754 85.296875 -2.05810547 C88.99206999 -4.52156879 90.84793425 -4.31682384 95.25927734 -4.33276367 C95.96369461 -4.3378746 96.66811188 -4.34298553 97.39387512 -4.34825134 C99.72360725 -4.36215641 102.05304379 -4.3611897 104.3828125 -4.35888672 C106.00322581 -4.36277364 107.6236381 -4.3671083 109.24404907 -4.37187195 C112.64189962 -4.37933647 116.03964628 -4.37904158 119.4375 -4.3737793 C123.78769908 -4.36798946 128.13747173 -4.38490253 132.48760033 -4.40812397 C135.83509805 -4.42287179 139.18249339 -4.42373151 142.53001785 -4.42061424 C144.13355986 -4.4211271 145.73710765 -4.42635818 147.34061813 -4.43642616 C149.58591969 -4.44879158 151.83039482 -4.4419986 154.07568359 -4.43041992 C155.35236908 -4.43104935 156.62905457 -4.43167877 157.94442749 -4.43232727 C161.57182599 -4.02741367 163.41852617 -3.26185455 166.296875 -1.05810547 C168.57753578 2.3628857 168.54463015 3.56166158 168.53738403 7.57963562 C168.54150803 9.34017273 168.54150803 9.34017273 168.54571533 11.13627625 C168.53852478 12.42524307 168.53133423 13.7142099 168.52392578 15.04223633 C168.52336169 16.41211946 168.52367819 17.7820032 168.52481079 19.15188599 C168.52538537 22.87271688 168.51361404 26.59341921 168.49966288 30.31422019 C168.48717309 34.20197129 168.4859864 38.08972522 168.48361206 41.97749329 C168.47739213 49.34040145 168.46097439 56.70325033 168.44091308 64.06613237 C168.41857002 72.44813811 168.40756466 80.83014667 168.39752221 89.21217477 C168.3766086 106.455449 168.34142268 123.6986655 168.296875 140.94189453 C168.89508057 141.22097656 169.49328613 141.50005859 170.10961914 141.78759766 C173.38087541 143.51396216 175.98123775 146.00449798 178.734375 148.44189453 C183.34705375 152.46997821 188.02042676 156.33351317 192.921875 160.00439453 C197.24628337 163.25616727 201.29228625 166.67388339 205.234375 170.37939453 C211.08564191 175.87857391 217.31556039 180.79451696 223.67333984 185.69140625 C242.77767115 200.40605061 242.77767115 200.40605061 243.60546875 206.04345703 C243.97965015 213.36834148 242.07944351 216.60524796 237.296875 221.94189453 C235.72879174 223.85399606 234.16653567 225.7708875 232.609375 227.69189453 C231.48982422 229.04541016 231.48982422 229.04541016 230.34765625 230.42626953 C229.06447557 232.0003045 227.82401685 233.61130892 226.65234375 235.27001953 C226.20503906 235.82173828 225.75773437 236.37345703 225.296875 236.94189453 C224.636875 236.94189453 223.976875 236.94189453 223.296875 236.94189453 C223.049375 237.54001953 222.801875 238.13814453 222.546875 238.75439453 C220.53249374 242.27956174 218.38695552 243.59505073 214.546875 244.81689453 C207.74808565 245.07838643 203.86157515 242.65928979 198.96362305 238.20068359 C197.40038877 236.73423865 195.84914913 235.25604943 194.30078125 233.77392578 C191.01022553 230.62957057 187.4965223 227.83199385 183.9140625 225.02783203 C180.87754003 222.6076783 177.9328096 220.09287469 174.984375 217.56689453 C170.66998248 213.87646864 166.27112392 210.35448125 161.734375 206.94189453 C156.78461929 203.208233 152.201669 199.21026266 147.67333984 194.97924805 C141.19478421 188.94149035 134.30983388 183.4549787 127.25512695 178.11181641 C122.57145322 174.56140831 118.15470581 170.99160362 114.09765625 166.72314453 C109.003137 161.68388037 103.1936884 157.3011847 97.421875 153.06689453 C88.39596468 146.38513679 80.01451009 138.80990767 71.83203125 131.13330078 C69.32449817 128.87342437 69.32449817 128.87342437 66.41015625 127.02001953 C62.8312103 124.63106189 59.65926926 121.9540444 56.421875 119.12939453 C55.50160522 118.3337207 55.50160522 118.3337207 54.56274414 117.52197266 C50.70493887 114.18251696 46.8604614 110.82738455 43.04296875 107.44189453 C40.83993892 105.54935884 38.56970288 103.74990347 36.296875 101.94189453 C29.83964654 96.71609266 23.46175224 91.40673225 17.13256836 86.02734375 C13.73867861 83.14752774 10.31486975 80.31039834 6.859375 77.50439453 C3.17134456 74.50652183 -0.45576066 71.44991886 -4.05126953 68.3425293 C-6.40855609 66.3072029 -8.77702795 64.28527262 -11.14941406 62.26757812 C-12.50490797 61.11102063 -13.85094559 59.94339856 -15.1953125 58.77392578 C-15.87851562 58.21060547 -16.56171875 57.64728516 -17.265625 57.06689453 C-17.82378906 56.59509766 -18.38195312 56.12330078 -18.95703125 55.63720703 C-20.75257303 54.73573597 -20.75257303 54.73573597 -22.953125 55.41455078 C-26.79857341 57.55030409 -29.87830202 60.32383321 -33.140625 63.25439453 C-34.4305463 64.39682232 -35.72090537 65.53875603 -37.01171875 66.68017578 C-37.94153564 67.50316162 -37.94153564 67.50316162 -38.89013672 68.34277344 C-46.37182729 74.94189453 -46.37182729 74.94189453 -48.703125 74.94189453 C-48.96480469 75.54904297 -49.22648438 76.15619141 -49.49609375 76.78173828 C-50.80350413 79.12153744 -51.82490455 80.00794951 -54.015625 81.50439453 C-57.83846867 84.24686934 -61.44169924 87.19867227 -65.015625 90.25439453 C-69.02286127 93.67419461 -73.04899775 97.06022789 -77.140625 100.37939453 C-81.38705633 103.83464215 -85.5559305 107.36904777 -89.703125 110.94189453 C-97.12331549 117.32999115 -104.62997172 123.59410506 -112.390625 129.56689453 C-116.65109462 132.86145803 -120.67307072 136.37186252 -124.703125 139.94189453 C-139.50542178 152.96155836 -139.50542178 152.96155836 -145.765625 157.50830078 C-152.4845491 162.47976277 -158.77604528 167.94170539 -164.890625 173.62939453 C-168.66040676 177.13498673 -172.4783208 180.41416334 -176.65234375 183.43017578 C-182.97865323 188.09356962 -188.95741663 193.21591595 -194.765625 198.50439453 C-198.77036731 202.14908903 -202.89974392 205.56708658 -207.1484375 208.92236328 C-217.48750654 217.09560287 -227.57368705 225.60332324 -237.515625 234.25439453 C-238.57575537 235.15303084 -239.63826384 236.04886916 -240.703125 236.94189453 C-241.32316406 237.47685547 -241.94320312 238.01181641 -242.58203125 238.56298828 C-247.2568419 242.37785333 -251.56770731 244.72400119 -257.703125 244.94189453 C-264.18473347 243.35456185 -268.11305168 237.25410962 -271.703125 231.94189453 C-271.703125 231.28189453 -271.703125 230.62189453 -271.703125 229.94189453 C-272.25613281 229.73564453 -272.80914063 229.52939453 -273.37890625 229.31689453 C-276.56245784 227.43351611 -278.60623091 224.78648511 -280.890625 221.94189453 C-281.34115234 221.39533203 -281.79167969 220.84876953 -282.25585938 220.28564453 C-286.15881843 215.51081007 -287.25698978 212.72996278 -287.16015625 206.59423828 C-285.83824326 198.9226236 -277.44116607 193.90725986 -271.73046875 189.36376953 C-268.47908713 186.76266424 -265.30711894 184.08237438 -262.140625 181.37939453 C-258.39515636 178.1921106 -254.62503065 175.05395769 -250.765625 172.00439453 C-246.67896938 168.76691411 -242.71359021 165.40795948 -238.765625 162.00439453 C-231.32619374 155.59303043 -223.79994538 149.30789878 -216.015625 143.31689453 C-211.75515538 140.02233103 -207.73317928 136.51192654 -203.703125 132.94189453 C-188.55049124 119.61408463 -188.55049124 119.61408463 -180.703125 113.94189453 C-179.13469232 112.76224143 -177.57241165 111.57437479 -176.015625 110.37939453 C-175.31050781 109.84185547 -174.60539063 109.30431641 -173.87890625 108.75048828 C-171.61173962 106.9222029 -171.61173962 106.9222029 -169.359375 104.59814453 C-166.32932758 101.56809712 -163.14961108 98.78311827 -159.890625 96.00439453 C-159.26679932 95.47080322 -158.64297363 94.93721191 -158.00024414 94.38745117 C-154.36568212 91.29800247 -150.67328071 88.35927235 -146.81640625 85.55126953 C-139.76555421 80.18167426 -133.09570382 74.25305784 -126.578125 68.25439453 C-123.35678265 65.32261105 -120.07425303 62.7023258 -116.515625 60.19189453 C-109.14007878 54.96405708 -102.46325961 48.92840079 -95.703125 42.94189453 C-90.72784971 38.53755247 -85.6758813 34.30133089 -80.46875 30.17236328 C-77.35874712 27.66415475 -74.3085785 25.09314247 -71.265625 22.50439453 C-66.32864495 18.30666077 -61.36052142 14.15345433 -56.32421875 10.07470703 C-54.57280204 8.6495602 -52.83571562 7.20662443 -51.11328125 5.74658203 C-36.94299176 -6.08746559 -16.43176416 -10.20861036 0 0 Z " fill="#00B6FF" transform="translate(1032.703125,672.05810546875)"/>
</svg>
