<svg width="25" height="25" viewBox="0 0 25 25" fill="none" xmlns="http://www.w3.org/2000/svg">
<path d="M10.2922 13.9987L11.0712 11.4187L9.02119 9.91368H11.5822L12.3672 7.30668L13.1522 9.91368H15.7132L13.6572 11.4177L14.4372 13.9977L12.3672 12.3977L10.2922 13.9987ZM7.36719 22.1837V15.5937C6.73385 14.9703 6.24219 14.2403 5.89219 13.4037C5.54219 12.569 5.36719 11.675 5.36719 10.7217C5.36719 8.77035 6.04619 7.11601 7.40419 5.75868C8.76152 4.40068 10.4159 3.72168 12.3672 3.72168C14.3185 3.72168 15.9729 4.40068 17.3302 5.75868C18.6882 7.11601 19.3672 8.77035 19.3672 10.7217C19.3672 11.6743 19.1922 12.5687 18.8422 13.4047C18.4922 14.2407 18.0005 14.9697 17.3672 15.5917V22.1817L12.3672 20.6817L7.36719 22.1837ZM12.3672 16.7217C14.0339 16.7217 15.4505 16.1383 16.6172 14.9717C17.7839 13.805 18.3672 12.3883 18.3672 10.7217C18.3672 9.05501 17.7839 7.63835 16.6172 6.47168C15.4505 5.30501 14.0339 4.72168 12.3672 4.72168C10.7005 4.72168 9.28385 5.30501 8.11719 6.47168C6.95052 7.63835 6.36719 9.05501 6.36719 10.7217C6.36719 12.3883 6.95052 13.805 8.11719 14.9717C9.28385 16.1383 10.7005 16.7217 12.3672 16.7217ZM8.36719 20.7657L12.3672 19.6457L16.3672 20.7657V16.4357C15.8092 16.8457 15.1895 17.1623 14.5082 17.3857C13.8275 17.6097 13.1139 17.7217 12.3672 17.7217C11.6205 17.7217 10.9069 17.6097 10.2262 17.3857C9.54485 17.163 8.92519 16.8463 8.36719 16.4357V20.7657Z" fill="black"/>
</svg>
