<svg width="19" height="19" viewBox="0 0 19 19" fill="none" xmlns="http://www.w3.org/2000/svg">
<g id="streamline:computer-voice-mail-mic-audio-mike-music-microphone" clip-path="url(#clip0_465_1962)">
<g id="Group">
<path id="Vector" d="M12.8928 8.82132C12.8928 9.72117 12.5354 10.5842 11.8991 11.2204C11.2628 11.8567 10.3998 12.2142 9.49999 12.2142C8.60015 12.2142 7.73716 11.8567 7.10088 11.2204C6.46459 10.5842 6.10713 9.72117 6.10713 8.82132V4.07132C6.10713 3.17148 6.46459 2.3085 7.10088 1.67221C7.73716 1.03593 8.60015 0.678467 9.49999 0.678467C10.3998 0.678467 11.2628 1.03593 11.8991 1.67221C12.5354 2.3085 12.8928 3.17148 12.8928 4.07132V8.82132Z" stroke="#2196F3" stroke-width="1.5" stroke-linecap="round" stroke-linejoin="round"/>
<path id="Vector_2" d="M16.2857 9.5C16.2875 10.3025 16.1308 11.0975 15.8245 11.8392C15.5182 12.581 15.0684 13.2549 14.501 13.8224C13.9335 14.3898 13.2595 14.8396 12.5178 15.1459C11.776 15.4522 10.9811 15.6089 10.1786 15.6071H8.82142C8.01892 15.6089 7.22396 15.4522 6.4822 15.1459C5.74044 14.8396 5.06649 14.3898 4.49903 13.8224C3.93157 13.2549 3.48179 12.581 3.17551 11.8392C2.86923 11.0975 2.71249 10.3025 2.71428 9.5M9.49999 15.6071V18.3214" stroke="#2196F3" stroke-width="1.5" stroke-linecap="round" stroke-linejoin="round"/>
</g>
</g>
<defs>
<clipPath id="clip0_465_1962">
<rect width="19" height="19" fill="white"/>
</clipPath>
</defs>
</svg>
