<svg width="31" height="30" viewBox="0 0 31 30" fill="none" xmlns="http://www.w3.org/2000/svg">
<path d="M23.4474 12.2833C23.5137 11.7999 23.5493 11.3208 23.5493 10.8496C23.5493 6.48145 19.8868 2.94043 15.3674 2.94043C10.848 2.94043 7.18555 6.48145 7.18555 10.8496C7.18555 17.0429 13.4355 24.511 15.0668 26.3362C15.1137 26.3887 15.1718 26.4309 15.2371 26.4598C15.3024 26.4887 15.3734 26.5036 15.4452 26.5036C15.5171 26.5036 15.588 26.4887 15.6533 26.4598C15.7186 26.4309 15.7767 26.3887 15.8237 26.3362C16.7287 25.3067 19.0962 22.4514 20.9737 19.0409" stroke="black" stroke-linecap="round" stroke-linejoin="round"/>
<path d="M14.4297 16.5324C14.4297 16.8528 14.298 17.1602 14.0636 17.3868C13.8292 17.6134 13.5112 17.7407 13.1797 17.7407C12.8482 17.7407 12.5302 17.6134 12.2958 17.3868C12.0614 17.1602 11.9297 16.8528 11.9297 16.5324M14.4297 16.5324C14.4297 16.2119 14.298 15.9046 14.0636 15.6779C13.8292 15.4513 13.5112 15.324 13.1797 15.324C12.8482 15.324 12.5302 15.4513 12.2958 15.6779C12.0614 15.9046 11.9297 16.2119 11.9297 16.5324M14.4297 16.5324H19.4303M11.9297 16.5324H10.6797V12.3032H10.0547M21.9303 16.5324C21.9303 16.8528 21.7986 17.1602 21.5642 17.3868C21.3298 17.6134 21.0118 17.7407 20.6803 17.7407C20.3488 17.7407 20.0308 17.6134 19.7964 17.3868C19.562 17.1602 19.4303 16.8528 19.4303 16.5324M21.9303 16.5324C21.9303 16.2119 21.7986 15.9046 21.5642 15.6779C21.3298 15.4513 21.0118 15.324 20.6803 15.324C20.3488 15.324 20.0308 15.4513 19.7964 15.6779C19.562 15.9046 19.4303 16.2119 19.4303 16.5324M21.9303 16.5324H23.1803V13.5115L20.0553 10.4907M17.5547 11.0949V9.88654H8.80469M20.0547 10.4901H17.5547V16.5324M10.6797 11.0949H9.42969M21.3047 11.699H18.8047V13.8136H23.1803" stroke="black" stroke-linecap="round" stroke-linejoin="round"/>
</svg>
