<svg width="32" height="32" viewBox="0 0 32 32" fill="none" xmlns="http://www.w3.org/2000/svg">
<g id="clarity:notification-line" clip-path="url(#clip0_146_330)">
<path id="Vector" d="M28.8976 24.7379C28.0404 23.9737 27.29 23.0977 26.6665 22.1334C25.9858 20.8024 25.5778 19.3488 25.4665 17.8579V13.4668C25.4724 11.1251 24.623 8.86186 23.0778 7.1023C21.5327 5.34274 19.3982 4.20798 17.0754 3.91121V2.76455C17.0754 2.44982 16.9504 2.14799 16.7278 1.92545C16.5053 1.7029 16.2034 1.57788 15.8887 1.57788C15.574 1.57788 15.2722 1.7029 15.0496 1.92545C14.8271 2.14799 14.702 2.44982 14.702 2.76455V3.92899C12.4001 4.24715 10.2914 5.38877 8.76652 7.14242C7.24168 8.89607 6.40403 11.1429 6.40872 13.4668V17.8579C6.29739 19.3488 5.88941 20.8024 5.20872 22.1334C4.59617 23.0955 3.85778 23.9714 3.01316 24.7379C2.91834 24.8212 2.84235 24.9237 2.79024 25.0387C2.73813 25.1536 2.7111 25.2783 2.71094 25.4045V26.6134C2.71094 26.8492 2.80459 27.0753 2.97129 27.242C3.13799 27.4087 3.36408 27.5023 3.59983 27.5023H28.3109C28.5467 27.5023 28.7728 27.4087 28.9395 27.242C29.1062 27.0753 29.1998 26.8492 29.1998 26.6134V25.4045C29.1997 25.2783 29.1726 25.1536 29.1205 25.0387C29.0684 24.9237 28.9924 24.8212 28.8976 24.7379ZM4.55983 25.7245C5.38686 24.9256 6.11503 24.0303 6.72872 23.0579C7.58615 21.4503 8.08643 19.6766 8.19538 17.8579V13.4668C8.16013 12.425 8.33487 11.3868 8.7092 10.414C9.08353 9.44122 9.64979 8.55369 10.3743 7.80428C11.0987 7.05487 11.9666 6.45892 12.9262 6.0519C13.8858 5.64489 14.9175 5.43513 15.9598 5.43513C17.0022 5.43513 18.0339 5.64489 18.9934 6.0519C19.953 6.45892 20.8209 7.05487 21.5454 7.80428C22.2699 8.55369 22.8361 9.44122 23.2105 10.414C23.5848 11.3868 23.7595 12.425 23.7243 13.4668V17.8579C23.8332 19.6766 24.3335 21.4503 25.1909 23.0579C25.8046 24.0303 26.5328 24.9256 27.3598 25.7245H4.55983Z" />
<path id="Vector_2" d="M15.9999 30.471C16.5598 30.4581 17.0972 30.2476 17.5169 29.8767C17.9366 29.5058 18.2116 28.9984 18.2932 28.4443H13.6177C13.7017 29.0135 13.9895 29.5328 14.4277 29.9056C14.8659 30.2784 15.4246 30.4793 15.9999 30.471Z"/>
</g>
<defs>
<clipPath id="clip0_146_330">
<rect width="32" height="32" fill="white"/>
</clipPath>
</defs>
</svg>
