<svg width="25" height="25" viewBox="0 0 25 25" fill="none" xmlns="http://www.w3.org/2000/svg">
<path fill-rule="evenodd" clip-rule="evenodd" d="M9.69337 3.97168H13.8054C15.6434 3.97168 17.0994 3.97168 18.2384 4.12468C19.4104 4.28268 20.3594 4.61468 21.1084 5.36268C21.8564 6.11168 22.1884 7.06068 22.3464 8.23268C22.4364 8.90568 22.4734 9.68868 22.4884 10.5957C22.5014 10.6717 22.5028 10.7493 22.4924 10.8257C22.4994 11.3917 22.4994 12.0037 22.4994 12.6657V12.7777C22.4994 14.6157 22.4994 16.0717 22.3464 17.2107C22.1884 18.3827 21.8564 19.3317 21.1084 20.0807C20.3594 20.8287 19.4104 21.1607 18.2384 21.3187C17.0984 21.4717 15.6434 21.4717 13.8054 21.4717H9.69337C7.85537 21.4717 6.39937 21.4717 5.26038 21.3187C4.08838 21.1607 3.13937 20.8287 2.39037 20.0807C1.64237 19.3317 1.31037 18.3827 1.15237 17.2107C0.999375 16.0707 0.999375 14.6157 0.999375 12.7777V12.6657C0.999375 12.0037 0.999375 11.3917 1.00637 10.8257C0.995653 10.7493 0.996665 10.6717 1.00937 10.5957C1.02537 9.68868 1.06237 8.90568 1.15237 8.23268C1.31037 7.06068 1.64237 6.11168 2.39037 5.36268C3.13937 4.61468 4.08838 4.28268 5.26038 4.12468C6.40037 3.97168 7.85537 3.97168 9.69337 3.97168ZM2.50137 11.4717C2.49937 11.8597 2.49937 12.2757 2.49937 12.7217C2.49937 14.6287 2.50137 15.9837 2.63937 17.0117C2.77437 18.0167 3.02837 18.5967 3.45137 19.0197C3.87437 19.4427 4.45437 19.6967 5.46037 19.8317C6.48837 19.9697 7.84237 19.9717 9.74937 19.9717H13.7494C15.6564 19.9717 17.0114 19.9697 18.0394 19.8317C19.0444 19.6967 19.6244 19.4427 20.0474 19.0197C20.4704 18.5967 20.7244 18.0167 20.8594 17.0107C20.9974 15.9827 20.9994 14.6287 20.9994 12.7217C20.9994 12.2757 20.9994 11.8597 20.9974 11.4717H2.50137ZM20.9734 9.97168H2.52537C2.54537 9.38468 2.57937 8.87768 2.63937 8.43168C2.77437 7.42668 3.02837 6.84668 3.45137 6.42368C3.87437 6.00068 4.45437 5.74668 5.46037 5.61168C6.48837 5.47368 7.84237 5.47168 9.74937 5.47168H13.7494C15.6564 5.47168 17.0114 5.47368 18.0394 5.61168C19.0444 5.74668 19.6244 6.00068 20.0474 6.42368C20.4704 6.84668 20.7244 7.42668 20.8594 8.43268C20.9194 8.87768 20.9534 9.38468 20.9734 9.97168ZM4.99937 16.7217C4.99937 16.5228 5.07839 16.332 5.21904 16.1913C5.3597 16.0507 5.55046 15.9717 5.74937 15.9717H9.74937C9.94829 15.9717 10.1391 16.0507 10.2797 16.1913C10.4204 16.332 10.4994 16.5228 10.4994 16.7217C10.4994 16.9206 10.4204 17.1114 10.2797 17.252C10.1391 17.3927 9.94829 17.4717 9.74937 17.4717H5.74937C5.55046 17.4717 5.3597 17.3927 5.21904 17.252C5.07839 17.1114 4.99937 16.9206 4.99937 16.7217ZM11.4994 16.7217C11.4994 16.5228 11.5784 16.332 11.719 16.1913C11.8597 16.0507 12.0505 15.9717 12.2494 15.9717H13.7494C13.9483 15.9717 14.1391 16.0507 14.2797 16.1913C14.4204 16.332 14.4994 16.5228 14.4994 16.7217C14.4994 16.9206 14.4204 17.1114 14.2797 17.252C14.1391 17.3927 13.9483 17.4717 13.7494 17.4717H12.2494C12.0505 17.4717 11.8597 17.3927 11.719 17.252C11.5784 17.1114 11.4994 16.9206 11.4994 16.7217Z" fill="black"/>
</svg>
