<svg width="29" height="29" viewBox="0 0 29 29" fill="none" xmlns="http://www.w3.org/2000/svg">
<path d="M14.664 2.71838C8.03819 2.62889 2.62901 8.03807 2.7185 14.6639C2.80686 21.0184 7.98098 26.1925 14.3355 26.2809C20.9624 26.3715 26.3705 20.9623 26.2799 14.3365C26.1926 7.98086 21.0185 2.80674 14.664 2.71838ZM21.8245 21.254C21.802 21.2784 21.7743 21.2976 21.7435 21.3101C21.7127 21.3226 21.6796 21.3282 21.6464 21.3265C21.6132 21.3247 21.5808 21.3157 21.5515 21.3001C21.5222 21.2844 21.4966 21.2625 21.4767 21.2359C20.9701 20.5731 20.3497 20.0056 19.6444 19.5599C18.2023 18.6344 16.3751 18.1246 14.4998 18.1246C12.6244 18.1246 10.7972 18.6344 9.35508 19.5599C8.64984 20.0054 8.02941 20.5727 7.52276 21.2353C7.50286 21.2619 7.47734 21.2839 7.44802 21.2995C7.41871 21.3152 7.38631 21.3242 7.35312 21.3259C7.31993 21.3276 7.28677 21.322 7.25599 21.3095C7.2252 21.297 7.19755 21.2779 7.17499 21.2535C5.51297 19.4593 4.5715 17.1149 4.531 14.6696C4.43868 9.15785 8.96143 4.54447 14.4754 4.53088C19.9894 4.51729 24.4685 8.99473 24.4685 14.4996C24.4704 17.0039 23.526 19.4165 21.8245 21.254Z" fill="#2196F3"/>
<path d="M14.4998 8.15765C13.3827 8.15765 12.3726 8.57628 11.6549 9.33708C10.9372 10.0979 10.5786 11.1498 10.6596 12.2788C10.8239 14.5023 12.5465 16.3151 14.4998 16.3151C16.453 16.3151 18.1723 14.5023 18.34 12.2794C18.4238 11.1612 18.0681 10.1188 17.3385 9.34387C16.6179 8.57912 15.6095 8.15765 14.4998 8.15765Z" fill="#2196F3"/>
</svg>
