<svg width="25" height="25" viewBox="0 0 25 25" fill="none" xmlns="http://www.w3.org/2000/svg">
<path d="M9.00175 2.36869C10.0322 2.22669 10.8987 2.85719 11.3087 3.67669L12.3172 5.69319C12.8767 6.81219 12.5553 8.12519 11.7073 8.95119C11.2063 9.43869 10.7027 9.99569 10.4107 10.4872C10.3914 10.5222 10.3854 10.5631 10.3937 10.6022C10.6637 12.0652 11.6552 13.5107 12.5397 14.5472C12.5842 14.5966 12.6423 14.6318 12.7067 14.6485C12.771 14.6651 12.8389 14.6624 12.9017 14.6407L14.8892 14.0197C15.4246 13.8523 15.9995 13.8609 16.5297 14.0441C17.0599 14.2273 17.5174 14.5755 17.8352 15.0377L19.2738 17.1302C19.6638 17.6977 19.8613 18.4677 19.5623 19.2082C19.2953 19.8697 18.7787 20.8237 17.8392 21.4582C16.8642 22.1162 15.5287 22.3662 13.7812 21.7672C11.8287 21.0972 9.98425 19.4172 8.45475 17.2687C6.91625 15.1067 5.64975 12.4062 4.88175 9.59019C4.15575 6.93169 4.59375 5.14169 5.62475 3.98919C6.61925 2.87719 8.04425 2.50019 9.00175 2.36869ZM10.1902 4.23569C9.96175 3.77919 9.55425 3.55369 9.17175 3.60619C8.32125 3.72319 7.25625 4.03969 6.55675 4.82219C5.89375 5.56369 5.43475 6.86969 6.08675 9.26119C6.81925 11.9452 8.02525 14.5102 9.47275 16.5437C10.9293 18.5902 12.5842 20.0352 14.1862 20.5847C15.6138 21.0742 16.5312 20.8322 17.1393 20.4222C17.7823 19.9877 18.1778 19.2972 18.4028 18.7402C18.5058 18.4852 18.4613 18.1552 18.2433 17.8382L16.8047 15.7462C16.6383 15.5041 16.3987 15.3217 16.121 15.2256C15.8433 15.1296 15.5422 15.1251 15.2617 15.2127L13.2742 15.8337C12.6802 16.0192 12.0112 15.8537 11.5887 15.3587C10.6682 14.2802 9.49525 12.6262 9.16375 10.8287C9.10038 10.4918 9.1615 10.1434 9.33575 9.84819C9.71475 9.21119 10.3147 8.56169 10.8342 8.05569C11.3417 7.56169 11.4857 6.82669 11.1988 6.25219L10.1902 4.23569Z" fill="black"/>
</svg>
