<svg width="25" height="25" viewBox="0 0 25 25" fill="none" xmlns="http://www.w3.org/2000/svg">
<path d="M6.98219 21.7217C6.53552 21.7217 6.15452 21.5643 5.83919 21.2497C5.52452 20.935 5.36719 20.554 5.36719 20.1067V11.3367C5.36719 10.89 5.52452 10.509 5.83919 10.1937C6.15385 9.87901 6.53485 9.72168 6.98219 9.72168H8.36719V7.72168C8.36719 6.60768 8.75519 5.66235 9.53119 4.88568C10.3072 4.10901 11.2525 3.72101 12.3672 3.72168C13.4812 3.72168 14.4265 4.10968 15.2032 4.88568C15.9799 5.66168 16.3679 6.60701 16.3672 7.72168V9.72168H17.7522C18.1989 9.72168 18.5799 9.87901 18.8952 10.1937C19.2099 10.5083 19.3672 10.8893 19.3672 11.3367V20.1067C19.3672 20.5533 19.2099 20.9343 18.8952 21.2497C18.5805 21.5643 18.1995 21.7217 17.7522 21.7217H6.98219ZM6.98219 20.7217H17.7522C17.9315 20.7217 18.0789 20.664 18.1942 20.5487C18.3095 20.4333 18.3672 20.286 18.3672 20.1067V11.3367C18.3672 11.1573 18.3095 11.01 18.1942 10.8947C18.0789 10.7793 17.9315 10.7217 17.7522 10.7217H6.98219C6.80285 10.7217 6.65552 10.7793 6.54019 10.8947C6.42485 11.01 6.36719 11.1573 6.36719 11.3367V20.1067C6.36719 20.286 6.42485 20.4333 6.54019 20.5487C6.65552 20.664 6.80285 20.7217 6.98219 20.7217ZM12.3672 17.2217C12.7892 17.2217 13.1445 17.077 13.4332 16.7877C13.7225 16.499 13.8672 16.1437 13.8672 15.7217C13.8672 15.2997 13.7225 14.9443 13.4332 14.6557C13.1445 14.3663 12.7892 14.2217 12.3672 14.2217C11.9452 14.2217 11.5899 14.3663 11.3012 14.6557C11.0119 14.9443 10.8672 15.2997 10.8672 15.7217C10.8672 16.1437 11.0119 16.499 11.3012 16.7877C11.5899 17.077 11.9452 17.2217 12.3672 17.2217ZM9.36719 9.72168H15.3672V7.72168C15.3672 6.88835 15.0755 6.18001 14.4922 5.59668C13.9089 5.01335 13.2005 4.72168 12.3672 4.72168C11.5339 4.72168 10.8255 5.01335 10.2422 5.59668C9.65885 6.18001 9.36719 6.88835 9.36719 7.72168V9.72168Z" fill="black"/>
</svg>
