<svg width="26" height="30" viewBox="0 0 26 30" fill="none" xmlns="http://www.w3.org/2000/svg">
<g id="Group">
<path id="Vector" d="M12.6459 15.2887C16.3278 15.2887 19.3126 12.3039 19.3126 8.62199C19.3126 4.94009 16.3278 1.95532 12.6459 1.95532C8.96402 1.95532 5.97925 4.94009 5.97925 8.62199C5.97925 12.3039 8.96402 15.2887 12.6459 15.2887Z" stroke-width="2"/>
<path id="Vector_2" d="M19.3126 17.9553H19.7819C20.7567 17.9556 21.6978 18.3118 22.4285 18.957C23.1591 19.6023 23.629 20.4921 23.7499 21.4593L24.2712 25.6247C24.3181 25.9999 24.2847 26.3808 24.1731 26.7421C24.0615 27.1035 23.8744 27.4369 23.6241 27.7204C23.3738 28.0038 23.0661 28.2308 22.7213 28.3863C22.3766 28.5417 22.0027 28.6221 21.6246 28.622H3.66725C3.28909 28.6221 2.91524 28.5417 2.57051 28.3863C2.22578 28.2308 1.91805 28.0038 1.66775 27.7204C1.41745 27.4369 1.2303 27.1035 1.11872 26.7421C1.00714 26.3808 0.973689 25.9999 1.02058 25.6247L1.54058 21.4593C1.66151 20.4916 2.1318 19.6014 2.86302 18.9561C3.59425 18.3109 4.53602 17.9549 5.51125 17.9553H5.97925" stroke-linecap="round" stroke-linejoin="round"/>
</g>
</svg>
