<svg width="19" height="19" viewBox="0 0 19 19" fill="none" xmlns="http://www.w3.org/2000/svg">
<g id="bx:search-alt">
<path id="Vector" d="M7.91665 14.2499C9.32184 14.2496 10.6865 13.7792 11.7934 12.9136L15.2736 16.3938L16.393 15.2743L12.9129 11.7942C13.7789 10.6872 14.2496 9.32214 14.25 7.91659C14.25 4.42454 11.4087 1.58325 7.91665 1.58325C4.4246 1.58325 1.58331 4.42454 1.58331 7.91659C1.58331 11.4086 4.4246 14.2499 7.91665 14.2499ZM7.91665 3.16659C10.5363 3.16659 12.6666 5.29696 12.6666 7.91659C12.6666 10.5362 10.5363 12.6666 7.91665 12.6666C5.29702 12.6666 3.16665 10.5362 3.16665 7.91659C3.16665 5.29696 5.29702 3.16659 7.91665 3.16659Z" fill="#AAAAAA"/>
<path id="Vector_2" d="M9.03453 6.7972C9.33457 7.09803 9.50003 7.49545 9.50003 7.91661H11.0834C11.0841 7.50053 11.0023 7.08844 10.8428 6.70416C10.6832 6.31988 10.4491 5.97103 10.1539 5.67778C8.95536 4.48078 6.87724 4.48078 5.67944 5.67778L6.79728 6.79878C7.39894 6.1987 8.43603 6.20028 9.03453 6.7972Z" fill="#AAAAAA"/>
</g>
</svg>
