<svg width="81" height="81" viewBox="0 0 81 81" fill="none" xmlns="http://www.w3.org/2000/svg">
<path d="M40.5001 31.59C39.5689 31.59 38.6587 31.8662 37.8844 32.3835C37.1102 32.9008 36.5067 33.6361 36.1504 34.4964C35.794 35.3567 35.7008 36.3034 35.8825 37.2167C36.0641 38.1299 36.5125 38.9689 37.171 39.6273C37.8294 40.2857 38.6683 40.7341 39.5816 40.9158C40.4949 41.0975 41.4415 41.0042 42.3018 40.6479C43.1621 40.2915 43.8974 39.6881 44.4148 38.9138C44.9321 38.1396 45.2082 37.2293 45.2082 36.2982C45.2082 35.0495 44.7122 33.852 43.8293 32.969C42.9463 32.0861 41.7488 31.59 40.5001 31.59Z" stroke="black" stroke-linecap="round" stroke-linejoin="round"/>
<path d="M67.1791 7.59375L41.2254 13.7363C40.7469 13.8373 40.2526 13.8373 39.7741 13.7363L13.8204 7.59375C12.9879 7.59375 12.1896 7.92444 11.601 8.51307C11.0123 9.1017 10.6816 9.90005 10.6816 10.7325V64.125C10.6816 64.9574 11.0123 65.7558 11.601 66.3444C12.1896 66.9331 12.9879 67.2638 13.8204 67.2638L39.7741 73.3556C40.2507 73.4736 40.7488 73.4736 41.2254 73.3556L67.1791 67.2638C68.0116 67.2638 68.8099 66.9331 69.3986 66.3444C69.9872 65.7558 70.3179 64.9574 70.3179 64.125V10.7325C70.3179 10.3203 70.2367 9.91216 70.079 9.53135C69.9212 9.15054 69.69 8.80453 69.3986 8.51307C69.1071 8.22161 68.7611 7.99041 68.3803 7.83267C67.9995 7.67494 67.5913 7.59375 67.1791 7.59375ZM41.276 64.125C41.206 64.2105 41.1196 64.2812 41.0218 64.3327C40.924 64.3843 40.8169 64.4157 40.7068 64.4251C40.5967 64.4346 40.4857 64.4218 40.3806 64.3877C40.2755 64.3535 40.1783 64.2986 40.0948 64.2263L39.9935 64.125C37.2766 60.9862 26.7973 48.0431 26.7973 37.3275C26.7973 33.6934 28.2409 30.2081 30.8106 27.6384C33.3804 25.0687 36.8656 23.625 40.4998 23.625C44.1339 23.625 47.6192 25.0687 50.1889 27.6384C52.7586 30.2081 54.2023 33.6934 54.2023 37.3275C54.2023 47.9081 43.8748 60.8344 41.276 64.125Z" stroke="black" stroke-linecap="round" stroke-linejoin="round"/>
</svg>
