<svg width="36" height="37" viewBox="0 0 36 37" fill="none" xmlns="http://www.w3.org/2000/svg">
<path d="M17.9909 14.3257C17.5771 14.3257 17.1725 14.4484 16.8284 14.6783C16.4843 14.9083 16.2161 15.2351 16.0577 15.6174C15.8993 15.9998 15.8579 16.4205 15.9386 16.8264C16.0194 17.2323 16.2187 17.6052 16.5113 17.8978C16.804 18.1904 17.1768 18.3897 17.5827 18.4705C17.9886 18.5512 18.4093 18.5098 18.7917 18.3514C19.1741 18.193 19.5009 17.9248 19.7308 17.5807C19.9607 17.2366 20.0834 16.832 20.0834 16.4182C20.0834 15.8632 19.863 15.331 19.4706 14.9386C19.0781 14.5461 18.5459 14.3257 17.9909 14.3257Z" stroke-linecap="round" stroke-linejoin="round"/>
<path d="M29.8483 3.66064L18.3133 6.39064C18.1006 6.43558 17.8809 6.43558 17.6683 6.39064L6.13328 3.66064C5.7633 3.66064 5.40848 3.80762 5.14687 4.06923C4.88525 4.33084 4.73828 4.68567 4.73828 5.05564V28.7856C4.73828 29.1556 4.88525 29.5104 5.14687 29.7721C5.40848 30.0337 5.7633 30.1806 6.13328 30.1806L17.6683 32.8881C17.8801 32.9406 18.1015 32.9406 18.3133 32.8881L29.8483 30.1806C30.2183 30.1806 30.5731 30.0337 30.8347 29.7721C31.0963 29.5104 31.2433 29.1556 31.2433 28.7856V5.05564C31.2433 4.87245 31.2072 4.69105 31.1371 4.5218C31.067 4.35255 30.9642 4.19877 30.8347 4.06923C30.7052 3.93969 30.5514 3.83694 30.3821 3.76683C30.2129 3.69673 30.0315 3.66064 29.8483 3.66064ZM18.3358 28.7856C18.3047 28.8237 18.2662 28.855 18.2228 28.878C18.1793 28.9009 18.1317 28.9148 18.0828 28.919C18.0338 28.9232 17.9846 28.9176 17.9378 28.9024C17.8911 28.8872 17.8479 28.8628 17.8108 28.8306L17.7658 28.7856C16.5583 27.3906 11.9008 21.6381 11.9008 16.8756C11.9008 15.2605 12.5424 13.7115 13.6845 12.5694C14.8266 11.4273 16.3756 10.7856 17.9908 10.7856C19.6059 10.7856 21.155 11.4273 22.2971 12.5694C23.4392 13.7115 24.0808 15.2605 24.0808 16.8756C24.0808 21.5781 19.4908 27.3231 18.3358 28.7856Z" stroke-linecap="round" stroke-linejoin="round"/>
</svg>
