<svg width="21" height="21" viewBox="0 0 21 21" fill="none" xmlns="http://www.w3.org/2000/svg">
<path d="M17.5271 0.693844C17.4743 0.637974 17.4114 0.593628 17.3421 0.563396C17.2727 0.533163 17.1983 0.51765 17.1232 0.517762C17.048 0.517874 16.9736 0.533608 16.9044 0.564046C16.8351 0.594485 16.7723 0.639018 16.7198 0.695044C16.6137 0.810292 16.5552 0.964407 16.5569 1.12421C16.5586 1.28401 16.6204 1.43671 16.729 1.54944C17.5563 2.41432 18.1797 3.46802 18.5499 4.62737C18.9201 5.78672 19.027 7.01999 18.8622 8.22984C18.8403 8.38778 18.8786 8.54838 18.9689 8.67716C19.0592 8.80595 19.1943 8.89265 19.3452 8.91864C19.4195 8.93068 19.4954 8.92714 19.5684 8.90822C19.6414 8.8893 19.71 8.85538 19.7703 8.80846C19.8306 8.76153 19.8813 8.70253 19.9195 8.63491C19.9577 8.56729 19.9825 8.49241 19.9927 8.41464C20.1832 7.01636 20.0596 5.591 19.6317 4.25109C19.2038 2.91118 18.4833 1.69339 17.5271 0.693844ZM4.62175 2.96184C4.63833 2.53346 4.79184 2.12319 5.05782 1.79641C5.3238 1.46963 5.68694 1.24514 6.08938 1.15873C6.49182 1.07231 6.9104 1.12893 7.27842 1.31957C7.64644 1.51021 7.94272 1.8239 8.12005 2.21064C8.34831 1.99778 8.62386 1.84771 8.92173 1.77403C9.21961 1.70035 9.53039 1.70538 9.82593 1.78868C10.1215 1.87197 10.3924 2.03089 10.6142 2.25104C10.8361 2.47119 11.0017 2.74561 11.0963 3.04944L11.1975 3.37344C11.4284 3.17255 11.703 3.03378 11.9973 2.96926C12.2915 2.90475 12.5964 2.91646 12.8853 3.00337C13.1742 3.09028 13.4383 3.24974 13.6545 3.46781C13.8707 3.68587 14.0323 3.95589 14.1254 4.25424L15.3513 8.13024L16.0229 10.175C16.5158 11.6782 16.6655 13.2808 16.4599 14.855L16.1494 17.2406C16.0819 17.7587 15.8859 18.2494 15.5807 18.6641C15.2755 19.0788 14.8717 19.403 14.4094 19.6046L11.9277 20.6858C10.8099 21.173 9.5495 20.8634 8.7031 20.0174C5.1266 16.439 1.94225 15.2534 1.0671 14.9786C0.655401 14.849 0.303501 14.3546 0.522001 13.8122C0.694501 13.385 1.1085 12.6362 1.99515 12.227C2.6771 11.9114 3.5603 11.831 4.69765 12.1454L2.4816 5.44344C2.33072 4.95727 2.37022 4.42856 2.59147 3.97265C2.81273 3.51675 3.19779 3.17064 3.66265 3.00984C3.98465 2.90064 4.3147 2.88984 4.62175 2.96184ZM7.09425 7.33584L7.7325 9.35064C7.75621 9.4255 7.76556 9.50449 7.76001 9.58311C7.75447 9.66174 7.73413 9.73845 7.70018 9.80888C7.66622 9.8793 7.6193 9.94205 7.5621 9.99356C7.5049 10.0451 7.43854 10.0843 7.3668 10.109C7.29507 10.1338 7.21936 10.1435 7.14402 10.1378C7.06867 10.132 6.99515 10.1107 6.92766 10.0753C6.79136 10.0037 6.68789 9.87862 6.64 9.72744L5.9868 7.66344L4.892 4.64064L4.8874 4.62864C4.83206 4.44554 4.70967 4.29265 4.54686 4.20321C4.38405 4.11377 4.19399 4.09502 4.018 4.15104C3.84403 4.21325 3.70024 4.34393 3.61731 4.51521C3.53437 4.68649 3.51887 4.8848 3.5741 5.06784L6.16965 12.9254C6.20583 13.0353 6.21068 13.1538 6.18359 13.2664C6.15651 13.3791 6.09866 13.4811 6.01708 13.5602C5.9355 13.6392 5.83368 13.6918 5.72399 13.7117C5.6143 13.7315 5.50145 13.7176 5.39915 13.6718C3.86735 12.9878 2.9692 13.0886 2.45975 13.3238C2.12165 13.4798 1.89625 13.7234 1.75135 13.9478C3.05545 14.4134 6.12135 15.7742 9.49775 19.151C10.0429 19.6958 10.8237 19.8662 11.4838 19.5794L13.9644 18.497C14.2416 18.3762 14.4838 18.1818 14.667 17.9333C14.8501 17.6847 14.9679 17.3905 15.0086 17.0798L15.3191 14.6942C15.5007 13.3049 15.3688 11.8905 14.9338 10.5638L14.2611 8.51544L14.2588 8.50944L13.0317 4.62864V4.62624C12.9786 4.45168 12.8638 4.30478 12.7105 4.21546C12.5573 4.12614 12.3772 4.1011 12.2069 4.14545C12.0367 4.1898 11.889 4.30019 11.7939 4.45417C11.6989 4.60814 11.6637 4.79412 11.6954 4.97424L12.6787 8.13384C12.724 8.2844 12.7108 8.44756 12.6417 8.58796C12.5726 8.72837 12.4533 8.83472 12.3096 8.88397C12.1659 8.93322 12.0094 8.92139 11.8739 8.85107C11.7385 8.78074 11.6351 8.65757 11.5862 8.50824L11.5804 8.50944L10.6259 5.44224C10.61 5.39086 10.5962 5.33882 10.5845 5.28624L10.0026 3.42144C9.94228 3.24501 9.81843 3.10005 9.65735 3.01734C9.49628 2.93464 9.31065 2.9207 9.13988 2.97848C8.96911 3.03626 8.82665 3.16122 8.74273 3.32683C8.65882 3.49243 8.64007 3.68564 8.69045 3.86544L9.3839 6.09264C9.3977 6.13704 9.4069 6.18264 9.41035 6.22704L10.0164 8.13744C10.0643 8.28862 10.0527 8.45345 9.98408 8.59568C9.91549 8.7379 9.79558 8.84588 9.6507 8.89584C9.50583 8.94581 9.34786 8.93368 9.21156 8.86211C9.07526 8.79055 8.97179 8.66542 8.9239 8.51424L7.11495 2.81424C7.05731 2.63299 6.93302 2.48306 6.76944 2.39744C6.60586 2.31181 6.41637 2.29749 6.24268 2.35764C6.06898 2.41779 5.9253 2.54748 5.84324 2.71818C5.76117 2.88887 5.74746 3.08659 5.8051 3.26784L7.0724 7.26384L7.09885 7.33584H7.09425ZM15.6813 3.00624C15.7462 2.96578 15.818 2.93905 15.8928 2.92759C15.9675 2.91612 16.0437 2.92015 16.117 2.93943C16.1903 2.95871 16.2592 2.99287 16.3198 3.03995C16.3804 3.08704 16.4315 3.14613 16.4702 3.21384L16.8106 3.80784C17.3833 4.80864 17.6915 5.94984 17.7019 7.11624C17.7032 7.27537 17.644 7.42856 17.5371 7.54209C17.4302 7.65562 17.2845 7.72021 17.132 7.72164C16.9795 7.72308 16.8327 7.66124 16.7239 7.54973C16.6151 7.43822 16.5532 7.28617 16.5519 7.12704C16.5435 6.17439 16.2923 5.24122 15.8239 4.42344L15.4835 3.82944C15.4447 3.76184 15.419 3.68692 15.4079 3.60896C15.3968 3.531 15.4006 3.45153 15.419 3.37509C15.4373 3.29864 15.47 3.22672 15.515 3.16343C15.56 3.10015 15.6165 3.04673 15.6813 3.00624Z" fill="white"/>
</svg>
